<svg id="svg" version="1.1" width="400" height="429.2379471228616" viewBox="0 0 400 429.2379471228616" xmlns="http://www.w3.org/2000/svg" xmlns:xlink="http://www.w3.org/1999/xlink" ><g id="svgg"><path id="path0" d="M300.062 77.633 C 285.881 87.969,277.934 93.576,277.683 93.422 C 277.469 93.290,267.986 86.453,256.610 78.228 C 232.704 60.943,233.901 61.796,233.757 61.941 C 233.696 62.003,237.431 73.649,242.057 87.821 C 250.261 112.955,250.454 113.603,249.884 114.153 C 249.563 114.463,241.462 120.419,231.882 127.388 C 222.302 134.358,212.739 141.334,210.631 142.892 L 206.799 145.723 234.802 145.803 L 262.805 145.882 267.149 159.177 C 270.979 170.900,275.549 185.039,278.006 192.768 C 278.455 194.180,278.906 195.334,279.008 195.334 C 279.110 195.334,281.331 188.721,283.943 180.638 C 286.555 172.554,290.159 161.427,291.953 155.910 L 295.214 145.879 322.431 145.879 C 339.212 145.879,349.579 145.767,349.468 145.588 C 349.297 145.312,341.764 139.807,316.874 121.771 C 310.758 117.340,305.754 113.555,305.754 113.361 C 305.754 113.167,309.475 101.496,314.022 87.425 C 318.569 73.355,322.236 61.790,322.170 61.725 C 322.105 61.659,312.156 68.818,300.062 77.633 M154.101 223.484 C 154.100 227.760,154.144 229.553,154.198 227.468 C 154.252 225.382,154.252 221.883,154.198 219.692 C 154.145 217.500,154.101 219.207,154.101 223.484 M154.051 232.659 C 154.051 233.429,154.111 233.744,154.185 233.359 C 154.259 232.974,154.259 232.344,154.185 231.960 C 154.111 231.575,154.051 231.890,154.051 232.659 M189.222 260.342 C 189.222 261.796,189.276 262.391,189.341 261.664 C 189.407 260.937,189.407 259.747,189.341 259.020 C 189.276 258.293,189.222 258.888,189.222 260.342 " stroke="none" fill="#d71e55" fill-rule="evenodd"></path><path id="path1" d="M287.103 5.221 C 271.887 28.070,260.926 37.766,244.073 43.284 C 239.376 44.822,239.182 44.918,239.719 45.437 C 242.576 48.197,277.957 73.122,278.524 72.774 C 283.977 69.428,321.870 41.236,321.540 40.771 C 316.427 33.565,291.189 0.314,290.839 0.322 C 290.569 0.328,288.928 2.479,287.103 5.221 M210.264 52.846 C 185.126 62.227,164.262 88.123,159.423 115.950 L 159.026 118.232 169.171 131.734 C 174.751 139.161,179.456 145.238,179.627 145.239 C 180.115 145.241,230.938 107.617,231.040 107.178 C 231.116 106.849,227.828 96.703,214.656 56.629 C 212.954 51.450,213.273 51.724,210.264 52.846 M331.490 85.332 C 327.776 96.853,324.701 106.604,324.655 107.003 C 324.585 107.618,325.456 108.358,330.481 111.950 C 333.731 114.273,345.696 122.858,357.069 131.026 L 377.747 145.879 388.562 145.879 C 394.511 145.879,399.378 145.792,399.378 145.687 C 399.378 145.427,397.159 142.440,367.872 103.266 C 341.102 67.460,338.775 64.386,338.446 64.386 C 338.333 64.386,335.203 73.812,331.490 85.332 M0.000 139.036 C 0.000 144.852,0.053 149.611,0.117 149.611 C 0.182 149.611,4.035 150.381,8.681 151.322 C 13.327 152.263,17.193 153.033,17.273 153.033 C 17.353 153.033,17.419 186.870,17.419 228.227 C 17.420 269.584,17.512 305.416,17.623 307.854 L 17.826 312.286 32.857 312.286 L 47.889 312.286 48.051 311.586 C 48.218 310.863,50.389 297.450,50.389 297.139 C 50.389 297.043,51.090 297.927,51.947 299.104 C 62.045 312.969,79.687 318.117,98.670 312.738 C 122.675 305.936,135.277 279.645,132.847 241.439 C 130.288 201.217,114.385 180.440,85.488 179.566 C 70.568 179.115,63.693 182.388,55.521 193.832 L 52.722 197.752 52.643 163.106 L 52.563 128.460 26.282 128.460 L 0.000 128.460 0.000 139.036 M379.147 179.089 L 372.758 179.172 372.069 184.998 C 371.689 188.203,371.150 192.527,370.871 194.608 L 370.363 198.392 368.279 195.697 C 357.951 182.339,342.281 177.416,324.572 181.966 C 298.655 188.626,283.964 219.384,287.387 259.820 C 290.107 291.948,307.372 312.275,333.240 313.803 C 346.872 314.608,356.315 311.355,365.126 302.817 L 368.355 299.689 368.185 306.221 C 367.794 321.195,363.999 329.582,355.698 333.816 C 346.619 338.448,330.248 337.057,312.318 330.129 C 310.368 329.376,308.746 328.797,308.713 328.843 C 308.680 328.889,307.291 334.176,305.626 340.591 C 303.961 347.006,302.528 352.504,302.442 352.808 C 302.034 354.251,316.659 359.600,326.283 361.528 C 344.285 365.135,363.613 363.033,376.361 356.083 C 390.052 348.619,397.001 338.458,399.246 322.619 C 399.651 319.762,399.999 179.627,399.602 179.291 C 399.441 179.155,385.004 179.012,379.147 179.089 M136.858 191.456 C 136.858 202.812,136.899 203.768,137.395 203.958 C 137.690 204.071,141.504 204.878,145.871 205.750 L 153.810 207.336 154.007 209.967 C 154.114 211.413,154.184 229.392,154.162 249.918 L 154.121 287.239 148.056 288.561 C 144.720 289.288,140.976 290.104,139.736 290.375 L 137.481 290.867 137.481 301.421 L 137.481 311.975 170.451 311.975 L 203.421 311.975 203.421 301.440 L 203.421 290.905 200.233 290.071 C 198.480 289.613,195.295 288.784,193.157 288.231 L 189.269 287.224 189.190 267.329 C 189.146 256.387,189.197 240.819,189.304 232.734 L 189.498 218.033 190.575 216.624 C 199.682 204.696,222.911 204.567,228.889 216.411 C 231.631 221.842,231.726 223.229,231.726 257.708 L 231.726 287.283 224.261 289.081 L 216.796 290.880 216.796 301.427 L 216.796 311.975 250.233 311.975 L 283.670 311.975 283.670 301.446 L 283.670 290.917 279.238 289.932 C 276.800 289.390,273.056 288.559,270.918 288.086 L 267.030 287.226 266.866 253.800 C 266.673 214.623,266.596 213.722,262.554 203.390 C 251.335 174.712,209.044 171.786,190.046 198.374 C 188.319 200.791,188.352 200.867,187.889 193.468 C 187.701 190.474,187.389 186.030,187.195 183.593 L 186.841 179.160 161.850 179.160 L 136.858 179.160 136.858 191.456 M353.406 208.522 C 359.312 210.020,364.111 213.464,367.298 218.490 L 368.274 220.028 368.273 247.573 C 368.271 275.103,368.271 275.117,367.611 276.205 C 360.139 288.517,338.373 290.558,329.604 279.769 C 317.876 265.341,319.800 223.826,332.724 212.450 C 337.688 208.081,345.681 206.563,353.406 208.522 M80.560 210.145 C 92.500 212.838,98.584 226.466,98.597 250.544 C 98.611 277.450,91.070 288.413,73.095 287.620 C 64.473 287.239,57.737 283.759,53.754 277.627 L 52.556 275.782 52.639 248.811 L 52.722 221.840 54.223 219.642 C 59.830 211.437,70.012 207.765,80.560 210.145 M48.411 361.920 C 43.845 363.379,41.622 369.099,43.818 373.740 C 47.442 381.400,59.066 379.403,59.936 370.970 C 60.596 364.574,54.670 359.920,48.411 361.920 M66.891 361.950 C 62.520 363.551,60.424 369.052,62.444 373.619 C 64.124 377.417,68.965 379.504,72.784 378.077 C 75.083 377.218,75.401 377.200,76.029 377.893 C 76.821 378.769,77.208 378.707,78.048 377.570 L 78.764 376.601 77.997 375.833 L 77.229 375.065 77.954 373.303 C 80.885 366.175,74.169 359.282,66.891 361.950 M91.698 367.541 L 91.558 373.652 90.564 374.540 C 89.156 375.798,87.196 375.790,85.775 374.520 L 84.759 373.613 84.652 367.677 L 84.545 361.742 83.019 361.742 L 81.493 361.742 81.500 367.729 C 81.510 376.552,83.358 379.155,89.073 378.397 C 93.936 377.752,94.868 376.032,94.868 367.702 L 94.868 361.823 93.701 361.630 C 93.060 361.524,92.378 361.436,92.186 361.434 C 91.945 361.432,91.795 363.317,91.698 367.541 M99.412 361.660 L 98.202 361.785 98.401 364.143 C 98.511 365.440,98.600 369.140,98.600 372.364 L 98.600 378.227 103.733 378.227 L 108.865 378.227 108.865 376.827 L 108.865 375.428 105.288 375.428 L 101.711 375.428 101.711 373.406 L 101.711 371.384 103.810 371.380 C 107.056 371.373,107.309 371.247,107.309 369.637 L 107.309 368.274 104.510 368.274 L 101.711 368.274 101.711 366.407 L 101.711 364.541 105.132 364.541 L 108.554 364.541 108.554 362.986 L 108.554 361.431 104.588 361.483 C 102.407 361.512,100.077 361.591,99.412 361.660 M17.107 369.984 L 17.107 378.227 19.362 378.287 C 24.587 378.426,26.506 378.063,27.827 376.684 C 29.451 374.988,29.198 371.208,27.384 370.076 C 26.810 369.717,26.812 369.682,27.472 368.757 C 28.575 367.211,28.436 364.529,27.189 363.282 C 25.972 362.065,24.625 361.759,20.451 361.749 L 17.107 361.742 17.107 369.984 M32.037 369.992 L 32.037 378.242 37.092 378.157 L 42.146 378.072 42.242 376.750 L 42.337 375.428 38.743 375.428 L 35.148 375.428 35.148 368.585 L 35.148 361.742 33.593 361.742 L 32.037 361.742 32.037 369.992 M24.398 365.148 C 25.911 366.404,24.773 368.204,22.382 368.336 L 20.684 368.429 20.591 366.445 L 20.497 364.462 22.205 364.603 C 23.144 364.681,24.131 364.926,24.398 365.148 M54.390 365.444 C 58.504 368.373,56.446 375.428,51.477 375.428 C 46.066 375.428,44.325 367.207,49.263 364.971 C 50.648 364.343,53.171 364.576,54.390 365.444 M72.787 365.241 C 74.822 366.626,75.621 368.651,75.141 371.209 C 74.900 372.492,74.514 372.590,73.491 371.629 L 72.758 370.940 72.004 371.862 C 71.071 373.004,71.063 373.189,71.904 374.084 C 72.746 374.981,72.562 375.170,70.657 375.353 C 65.235 375.874,62.862 368.355,67.469 365.250 C 68.915 364.276,71.363 364.272,72.787 365.241 M25.062 371.741 C 26.695 373.374,25.269 375.428,22.502 375.428 L 20.529 375.428 20.529 373.214 L 20.529 371.001 22.554 371.130 C 23.823 371.210,24.760 371.439,25.062 371.741 M77.970 386.742 C 70.690 388.783,69.593 399.188,76.288 402.693 C 79.264 404.252,84.579 403.302,86.660 400.839 C 92.229 394.251,86.181 384.441,77.970 386.742 M145.723 386.537 C 143.849 386.993,142.146 389.194,142.146 391.161 C 142.146 393.095,143.103 394.190,146.183 395.780 C 150.086 397.796,150.577 398.412,149.300 399.689 C 148.428 400.561,146.668 400.488,144.955 399.509 L 143.564 398.714 142.708 399.746 C 141.519 401.178,141.593 401.391,143.624 402.388 C 148.270 404.669,153.033 402.685,153.033 398.468 C 153.033 396.139,152.257 395.306,148.234 393.313 C 146.144 392.277,145.707 391.932,145.629 391.252 C 145.421 389.459,147.842 388.827,150.238 390.049 L 151.462 390.674 152.125 389.375 L 152.787 388.077 152.072 387.538 C 150.694 386.498,147.777 386.038,145.723 386.537 M160.264 386.547 L 153.655 386.638 153.655 388.031 L 153.655 389.425 156.454 389.425 L 159.253 389.425 159.253 396.267 L 159.253 403.110 160.809 403.110 L 162.364 403.110 162.364 396.267 L 162.364 389.425 165.008 389.425 L 167.652 389.425 167.652 387.869 C 167.652 386.795,167.532 386.336,167.263 386.385 C 167.049 386.425,163.900 386.497,160.264 386.547 M173.447 386.592 L 172.243 386.781 169.481 394.674 C 166.215 404.006,166.332 403.110,168.383 403.110 L 170.048 403.110 170.585 401.125 C 171.103 399.211,171.163 399.134,172.264 398.951 C 174.253 398.623,176.681 398.725,176.826 399.145 C 176.901 399.358,177.256 400.338,177.617 401.322 L 178.272 403.110 179.805 403.110 C 181.690 403.110,181.734 403.660,179.288 396.676 C 178.161 393.457,176.888 389.809,176.460 388.569 C 175.632 386.167,175.731 386.233,173.447 386.592 M53.566 387.016 C 46.981 389.126,46.446 399.587,52.766 402.679 C 55.929 404.227,60.734 403.632,62.796 401.436 L 63.445 400.745 62.594 399.726 L 61.742 398.706 59.922 399.664 C 55.859 401.802,52.016 399.791,51.695 395.359 C 51.364 390.786,55.475 388.225,59.789 390.315 C 61.425 391.108,61.687 391.044,62.388 389.689 C 63.512 387.515,57.599 385.724,53.566 387.016 M65.837 386.833 C 65.571 387.099,65.568 396.849,65.832 400.574 L 66.034 403.421 67.543 403.421 L 69.051 403.421 69.051 395.023 L 69.051 386.625 67.548 386.625 C 66.721 386.625,65.951 386.719,65.837 386.833 M91.446 394.868 L 91.446 403.110 92.665 403.110 C 93.335 403.110,94.105 403.195,94.376 403.299 C 94.813 403.467,94.868 402.873,94.868 397.964 L 94.868 392.440 98.367 397.772 L 101.866 403.104 103.499 403.107 L 105.132 403.110 105.132 394.868 L 105.132 386.625 103.584 386.625 L 102.036 386.625 101.951 392.094 L 101.866 397.563 98.600 392.505 C 94.653 386.392,94.875 386.625,92.979 386.625 L 91.446 386.625 91.446 394.868 M110.345 393.376 C 109.049 397.105,107.774 400.820,107.512 401.633 L 107.036 403.110 108.717 403.110 L 110.397 403.110 110.993 401.166 L 111.589 399.222 114.363 399.134 L 117.136 399.045 117.760 401.000 L 118.384 402.955 120.001 403.049 C 122.045 403.168,122.135 403.840,118.858 394.557 L 116.114 386.781 114.408 386.689 L 112.702 386.597 110.345 393.376 M123.484 394.868 L 123.484 403.110 128.616 403.110 L 133.748 403.110 133.748 401.711 L 133.748 400.311 130.327 400.311 L 126.905 400.311 126.905 393.468 L 126.905 386.625 125.194 386.625 L 123.484 386.625 123.484 394.868 M135.925 394.868 L 135.925 403.110 137.437 403.110 L 138.949 403.110 139.145 401.477 C 139.401 399.345,139.402 392.033,139.146 389.005 L 138.944 386.625 137.435 386.625 L 135.925 386.625 135.925 394.868 M17.418 395.179 L 17.418 403.421 18.974 403.421 L 20.529 403.421 20.535 397.900 L 20.542 392.379 24.181 397.900 L 27.820 403.421 29.462 403.421 L 31.104 403.421 31.102 397.278 C 31.101 393.900,31.011 390.191,30.901 389.036 L 30.703 386.936 29.193 386.936 L 27.683 386.936 27.683 392.290 L 27.683 397.645 24.184 392.292 L 20.684 386.940 19.051 386.938 L 17.418 386.936 17.418 395.179 M35.770 394.633 C 32.431 404.352,32.553 403.477,34.555 403.361 L 36.186 403.266 36.860 401.244 L 37.533 399.222 40.223 399.183 L 42.912 399.143 43.601 401.282 L 44.290 403.421 45.940 403.421 C 47.963 403.421,48.097 404.400,44.789 395.032 C 43.250 390.675,41.991 387.071,41.991 387.023 C 41.991 386.975,41.186 386.936,40.202 386.936 L 38.414 386.936 35.770 394.633 M83.239 390.519 C 88.286 394.369,83.812 402.704,78.165 399.970 C 75.892 398.870,74.606 395.944,75.285 393.416 C 76.236 389.881,80.409 388.360,83.239 390.519 M175.739 395.865 C 175.739 396.146,175.221 396.267,174.028 396.267 C 172.022 396.267,172.090 396.519,173.153 393.038 L 173.996 390.275 174.867 392.868 C 175.347 394.295,175.739 395.643,175.739 395.865 M41.894 396.468 C 41.815 396.547,40.994 396.569,40.071 396.517 L 38.392 396.423 39.294 393.499 L 40.197 390.575 41.117 393.450 C 41.624 395.031,41.973 396.389,41.894 396.468 M115.490 393.857 L 116.287 396.267 114.421 396.267 C 112.788 396.267,112.576 396.200,112.723 395.723 C 112.815 395.424,113.185 394.217,113.546 393.041 C 114.303 390.569,114.420 390.618,115.490 393.857 M23.484 412.236 C 19.375 413.596,17.404 416.252,17.364 420.484 C 17.306 426.658,23.172 430.748,28.572 428.298 C 30.197 427.561,30.171 427.563,30.171 428.149 C 30.171 428.495,30.534 428.616,31.571 428.616 L 32.970 428.616 32.970 425.704 C 32.970 424.103,32.881 422.143,32.773 421.350 L 32.575 419.907 29.973 419.907 L 27.372 419.907 27.372 421.306 L 27.372 422.706 28.616 422.706 C 29.783 422.706,29.860 422.762,29.860 423.614 C 29.860 426.457,23.766 426.749,21.808 424.000 C 18.085 418.770,23.470 412.820,29.216 415.815 L 30.471 416.469 31.263 415.311 L 32.055 414.152 31.235 413.492 C 29.581 412.160,25.643 411.522,23.484 412.236 M80.523 412.230 C 70.060 416.143,75.168 432.030,85.700 428.328 C 87.101 427.836,87.403 427.808,87.403 428.173 C 87.403 428.491,87.799 428.616,88.802 428.616 L 90.202 428.616 90.202 424.261 L 90.202 419.907 87.558 419.907 L 84.914 419.907 84.914 421.306 L 84.914 422.706 86.179 422.706 C 89.048 422.706,86.930 425.494,83.868 425.748 C 81.086 425.979,79.094 424.523,78.342 421.710 C 77.058 416.911,81.891 413.216,86.426 415.530 C 88.058 416.362,88.053 416.363,88.910 415.041 C 89.719 413.793,89.756 413.858,87.558 412.689 C 85.997 411.859,82.182 411.610,80.523 412.230 M97.567 412.284 C 88.802 415.614,91.359 428.717,100.778 428.733 C 111.927 428.753,112.231 412.309,101.089 411.915 C 99.613 411.863,98.319 411.998,97.567 412.284 M38.310 415.639 C 36.912 419.477,33.904 428.240,33.904 428.471 C 33.904 428.551,34.646 428.616,35.554 428.616 L 37.205 428.616 37.827 426.672 L 38.449 424.728 41.213 424.728 L 43.977 424.728 44.599 426.672 L 45.221 428.616 46.872 428.616 C 47.780 428.616,48.523 428.554,48.523 428.479 C 48.523 428.365,47.163 424.431,43.491 413.919 L 42.867 412.131 41.227 412.131 L 39.587 412.131 38.310 415.639 M50.389 420.373 L 50.389 428.616 55.521 428.616 L 60.653 428.616 60.653 427.216 L 60.653 425.816 57.279 425.816 L 53.905 425.816 53.702 422.502 C 53.590 420.679,53.499 417.600,53.499 415.659 L 53.499 412.131 51.944 412.131 L 50.389 412.131 50.389 420.373 M62.830 420.373 L 62.830 428.616 67.963 428.616 L 73.095 428.616 73.095 427.216 L 73.095 425.816 69.518 425.816 L 65.941 425.816 65.941 423.795 L 65.941 421.773 68.740 421.773 L 71.540 421.773 71.540 420.373 L 71.540 418.974 68.725 418.974 L 65.911 418.974 66.004 417.030 L 66.096 415.086 69.440 414.997 L 72.784 414.909 72.784 413.520 L 72.784 412.131 67.807 412.131 L 62.830 412.131 62.830 420.373 M103.450 415.624 C 106.453 417.654,106.776 421.685,104.146 424.314 C 101.594 426.866,97.639 426.008,96.075 422.563 C 93.854 417.676,99.134 412.708,103.450 415.624 M42.724 420.918 C 42.936 421.773,42.936 421.773,41.219 421.773 C 40.275 421.773,39.502 421.688,39.502 421.585 C 39.502 421.482,39.877 420.196,40.335 418.726 L 41.168 416.056 41.840 418.059 C 42.210 419.161,42.608 420.447,42.724 420.918 " stroke="none" fill="#76b3dd" fill-rule="evenodd"></path></g></svg>