<?xml version="1.0" encoding="UTF-8"?>
<svg xmlns="http://www.w3.org/2000/svg" width="579.919" height="149.333">
  <path fill="#ff4f00" d="M549.64 61.685c.217 3.653 2.82 7.2 8.466 7.2 4.232 0 6.295-2.256 6.295-4.622 0-1.933-1.303-3.546-5.32-4.406l-6.184-1.396c-11.507-2.472-16.064-8.92-16.064-16.442 0-9.78 8.682-17.732 20.729-17.732 15.628 0 21.056 9.672 21.597 15.904l-13.673 2.472c-.435-3.546-2.715-6.554-7.705-6.554-3.148 0-5.862 1.825-5.862 4.62 0 2.257 1.844 3.546 4.232 3.976l7.164 1.397c11.179 2.257 16.604 8.92 16.604 16.764 0 9.135-7.054 18.055-21.488 18.055-16.93 0-22.358-10.854-22.792-16.766zm-37.2-9.135c0-9.027-5.861-13.218-12.155-13.218-6.186 0-12.156 4.19-12.156 13.218 0 8.92 5.97 13.325 12.156 13.325 6.294 0 12.155-4.299 12.155-13.325m16.496 0c0 16.55-12.48 28.37-28.65 28.37-16.063 0-28.654-11.82-28.654-28.37 0-16.548 12.59-28.263 28.653-28.263 16.171 0 28.651 11.715 28.651 28.263m-99.31 26.759h-16.497V25.898h15.955v6.127c2.93-5.051 9.55-7.523 15.084-7.523 13.567 0 19.645 9.564 19.645 21.277v33.53h-16.497V48.574c0-5.265-2.821-9.243-8.79-9.243-5.427 0-8.9 3.978-8.9 9.35zm-40.532-20.955v-2.366l-10.2 1.612c-3.473.538-6.08 2.15-6.08 5.912 0 2.794 1.847 5.48 6.406 5.48 4.882 0 9.874-2.364 9.874-10.638m-16.605-9.887l12.699-1.936c2.93-.43 3.906-1.825 3.906-3.652 0-3.117-2.713-5.804-7.922-5.804-5.75 0-8.899 3.868-9.224 7.845L357.62 42.02c.652-7.63 7.816-17.732 23.661-17.732 17.473 0 23.875 9.672 23.875 20.633v26.114c0 4.19.544 7.737.652 8.274h-14.87c-.108-.43-.54-2.365-.54-6.017-2.822 4.512-8.032 7.521-15.196 7.521-11.829 0-18.666-7.737-18.666-16.226 0-9.458 7.054-14.83 15.953-16.12m-51.95 17.41c6.403 0 12.154-4.513 12.154-13.326 0-8.919-5.75-13.217-12.155-13.217-6.403 0-12.155 4.298-12.155 13.217 0 8.813 5.752 13.325 12.155 13.325m28.219 3.87c0 4.836.324 8.382.434 9.564h-15.846c-.108-.646-.434-3.01-.434-5.16-2.496 3.654-7.922 6.34-14.436 6.34-15.192 0-26.697-11.604-26.697-28.046 0-15.905 10.853-27.834 26.156-27.834 9.224 0 13.24 3.438 14.544 5.48V1.506h16.279zm-80.779-11.391v-2.366L257.777 57.6c-3.474.538-6.079 2.15-6.079 5.912 0 2.794 1.847 5.48 6.404 5.48 4.884 0 9.876-2.364 9.876-10.638m-16.605-9.887l12.698-1.936c2.93-.43 3.907-1.825 3.907-3.652 0-3.117-2.713-5.804-7.923-5.804-5.752 0-8.898 3.868-9.224 7.845l-14.328-2.901c.652-7.63 7.816-17.732 23.662-17.732 17.473 0 23.874 9.672 23.874 20.633v26.114c0 4.19.544 7.737.652 8.274h-14.869c-.108-.43-.541-2.365-.541-6.017-2.822 4.512-8.03 7.521-15.195 7.521-11.83 0-18.667-7.737-18.667-16.226 0-9.458 7.055-14.83 15.954-16.12m-52.352 17.41c6.404 0 12.155-4.513 12.155-13.326 0-8.919-5.75-13.217-12.155-13.217-6.403 0-12.155 4.298-12.155 13.217 0 8.813 5.752 13.325 12.155 13.325m28.219 3.87c0 4.836.324 8.382.434 9.564h-15.846c-.108-.646-.434-3.01-.434-5.16-2.496 3.654-7.922 6.34-14.436 6.34-15.192 0-26.697-11.604-26.697-28.046 0-15.905 10.853-27.834 26.156-27.834 9.224 0 13.24 3.438 14.544 5.48V1.506h16.279zm-80.776 4.19c-2.821 4.622-9.008 6.556-14.435 6.556-13.133 0-20.512-9.458-20.512-20.848V25.899h16.498v30.305c0 5.159 2.82 9.241 8.68 9.241 5.537 0 9.009-3.76 9.009-9.133V25.899H162.2v43.845c0 4.836.433 8.705.544 9.565h-15.847c-.217-.968-.433-3.977-.433-5.374M85.259 25.899h16.496v53.41H85.259zM93.397 0c5.428 0 9.768 4.299 9.768 9.564 0 5.267-4.34 9.564-9.768 9.564-5.209 0-9.549-4.297-9.549-9.564 0-5.265 4.34-9.564 9.55-9.564M0 41.373C0 17.624 18.232 1.504 39.721 1.504c23.116 0 33.319 14.724 35.815 25.684L59.364 32.24c-1.193-5.265-6.077-14.185-19.643-14.185-10.31 0-21.922 7.306-21.922 23.318 0 14.294 10.634 22.568 22.14 22.568 13.348 0 18.665-8.812 20.186-14.293l16.388 4.621C74.017 64.801 63.813 80.92 39.94 80.92 17.799 80.92 0 65.124 0 41.373m.24 54.391l.014 53.57s69.796-53.53 69.912-53.572z"/>
</svg>
