<?xml version="1.0" encoding="utf-8"?>
<!-- Generator: Adobe Illustrator 22.0.1, SVG Export Plug-In . SVG Version: 6.00 Build 0)  -->
<svg version="1.1" id="Capa_1" xmlns="http://www.w3.org/2000/svg" xmlns:xlink="http://www.w3.org/1999/xlink" x="0px" y="0px"
	 viewBox="0 0 386.8 248.4" style="enable-background:new 0 0 386.8 248.4;" xml:space="preserve">
<style type="text/css">
	.st0{fill:#0a7565;}
</style>
<title>Recurso 1</title>
<g id="Capa_2_1_">
	<g id="Capa_1-2">
		<path class="st0" d="M23.9,7.7l31.9,77.9h1.3L89,7.7h23.8v107.6H94.1V41.4h-1L63.4,115h-14L19.7,41.2h-1v74.1H0V7.7H23.9z"/>
		<path class="st0" d="M127.8,92.6c0-18.2,15-22.8,30.6-24.5c14.2-1.5,20-1.8,20-7.2v-0.3c0-7.9-4.8-12.4-13.7-12.4
			c-9.3,0-14.7,4.7-16.5,10.2l-17.8-2.5c4.2-14.7,17.2-22.3,34.2-22.3c15.4,0,32.8,6.4,32.8,27.7v54h-18.3v-11.1h-0.6
			c-3.5,6.8-11,12.7-23.7,12.7C139.4,116.9,127.8,108.5,127.8,92.6z M178.4,86.3v-9.5c-2.5,2-12.4,3.3-17.4,3.9
			c-8.5,1.2-14.9,4.3-14.9,11.6c0,7,5.7,10.6,13.6,10.6C171.1,102.9,178.4,95.3,178.4,86.3z M169.9,0h18.6l-16.1,24h-14.2L169.9,0z"
			/>
		<path class="st0" d="M259.3,57.8c-1.5-5.3-6.1-10.1-14.9-10.1c-7.9,0-14,3.8-13.9,9.2c-0.1,4.7,3.2,7.5,11.4,9.3l13.8,2.9
			c15.2,3.3,22.6,10.3,22.7,21.8c-0.1,15.3-14.3,25.7-34.5,25.7c-19.8,0-32.2-8.8-34.6-23.6l18.5-1.8c1.6,7.2,7.3,11,16,11
			c9,0,15-4.1,15-9.7c0-4.6-3.5-7.6-10.9-9.2l-13.8-2.9c-15.5-3.2-22.7-11-22.7-22.7c-0.1-14.9,13.2-24.5,32.6-24.5
			c18.9,0,29.8,8.7,32.5,22.4L259.3,57.8z"/>
		<path class="st0" d="M126,142.5h11.4v12.2h1.4c2.6-4,7.2-13.2,22.3-13.2c19.5,0,32.9,15.4,32.9,39.7c0,24.5-13.4,39.9-32.7,39.9
			c-14.8,0-19.9-9.2-22.5-13.4h-1v40.7H126V142.5z M159.7,210.5c14.8,0,22.5-13,22.5-29.5c0-16.2-7.4-28.9-22.5-28.9
			c-14.4,0-22.1,11.6-22.1,28.9S145.5,210.5,159.7,210.5z"/>
		<path class="st0" d="M208.4,197.6c0-17.6,15.6-20.8,29.9-22.7c14-1.8,19.9-1.3,19.9-7v-0.4c0-9.9-5.4-15.6-16.2-15.6
			c-11.3,0-17.4,6-20.1,11.6l-11.2-4c6-14,19.3-18.1,30.9-18.1c9.8,0,28.5,2.8,28.5,27.3v50.7h-11.8V209h-0.6
			c-2.4,5-9.4,12.2-22.9,12.2C220.1,221.3,208.4,212.7,208.4,197.6z M258.2,191.6v-10.8c-2,2.4-15.4,3.8-20.5,4.4
			c-9.2,1.2-17.4,4-17.4,13c0,8.2,6.8,12.4,16.2,12.4C250.6,210.7,258.2,201.2,258.2,191.6L258.2,191.6z"/>
		<path class="st0" d="M291.7,142.5h11.8v77h-11.8V142.5z M304.5,108.8h13.8L302.7,132h-10.4L304.5,108.8z"/>
		<path class="st0" d="M369.1,162.7c-2.1-5.3-6.3-11-16.6-11c-9.4,0-16.4,4.8-16.4,11.4c0,5.9,4.1,9,13.2,11.2l11.4,2.9
			c13.7,3.4,20.5,10.1,20.5,20.9c0,13.3-12.2,23.1-30.1,23.1c-15.7,0-26.5-7-29.3-20.1l11.2-2.8c2.1,8.3,8.2,12.4,17.8,12.4
			c11,0,18.1-5.4,18.1-12c0-5.3-3.7-9-11.4-10.8l-12.8-3c-14.1-3.3-20.5-10.4-20.5-21.1c0-13,12-22.3,28.3-22.3
			c15.2,0,23.6,7.3,27.3,18.3L369.1,162.7z"/>
	</g>
</g>
</svg>
