<svg xmlns="http://www.w3.org/2000/svg" width="451" height="531" viewBox="61.7315 39.6088 273.526 322.288"><path fill="none" d="M0 0h400v400H0z"/><path d="M173.05 53.93c17.33.11 34.67 0 52.01.06.1 25.1-.04 50.2.07 75.31 10.83-4.03 21.8-7.68 32.67-11.6-3.02 17.84-9.84 35.05-20.12 49.96 16.74 21.72 34.62 42.56 51.73 64-14.28 9.94-28.67 19.72-43 29.6-15.95-20.7-31.97-41.36-48.03-61.98-15.25 20.59-30.34 41.3-45.52 61.95-14.57-9.82-29.05-19.77-43.66-29.53 16.01-19.72 32.17-39.3 48.07-59.1-25.13-7.7-50.18-15.66-75.31-23.39 5.84-15.53 11.61-31.09 17.68-46.53 24.36 9.03 48.9 17.61 73.29 26.57.13-25.1-.11-50.21.12-75.32zM123.76 298.6c7.73.31 15.54-.61 23.21.67 7.45 1.47 14.13 7.03 16.2 14.45 1.82 6.82 1.51 14.48-1.91 20.76-3.65 6.53-11 10.38-18.36 10.68-6.37.23-12.75.02-19.12.11-.08-15.56-.05-31.11-.02-46.67m11.94 10.04c-.03 8.86-.03 17.71.01 26.57 3.9-.12 8.24.5 11.65-1.83 3.42-2.18 4.39-6.55 4.5-10.34.12-4.03-.28-8.6-3.24-11.64-3.47-3.25-8.53-2.82-12.92-2.76zm105.23 36.67c4.24-15.89 8.99-31.72 15.77-46.74 4.14-.02 8.28-.02 12.43 0 6.85 14.97 11.62 30.79 15.81 46.68-4.08.04-8.17-.05-12.25.06-.8-2.84-1.44-5.71-2.16-8.57-5.03 0-10.06.05-15.1-.05-.83 2.86-1.57 5.75-2.26 8.64-4.08-.01-8.16.01-12.24-.02m21.85-33.68c-2.08 4.84-3.47 9.92-4.86 14.98 3.32.05 6.64.03 9.97-.04-1.64-4.99-2.63-10.26-5.11-14.94z" fill="#04428b"/><path fill="#05428b" d="M296.28 104.15c1.39-.47 2.8-.94 4.2-1.41 5.79 15.52 11.83 30.95 17.49 46.51-6.2 1.84-12.39 3.7-18.54 5.69.7-17-1.17-33.94-3.15-50.79z"/><path fill="#064289" d="M286.41 107.63c1.51-.51 3.01-1.01 4.52-1.52 1.53 17.06 2.17 34.27.16 51.31-2.58.78-5.16 1.56-7.73 2.36 2.91-17.22 3.19-34.74 3.05-52.15z"/><path fill="#06418b" d="M274.64 111.81c2.06-.73 4.13-1.46 6.2-2.19-.24 17.64-1.59 35.36-5.65 52.57-2.99 1.11-6.07 1.96-9.12 2.88 5.91-17.11 7.86-35.27 8.57-53.26z"/><path fill="#064189" d="M263.39 115.68c2.02-.62 4.02-1.32 6-2.07-1.41 18.28-5.16 36.54-12.61 53.37-.23 1.3-1.7 1.38-2.65 1.79-2.53.8-5.08 1.51-7.62 2.26 9.78-16.88 14.22-36.2 16.88-55.35z"/><path fill="#04438b" d="M210.48 303.51c7.28-6.9 18.68-7.05 27.58-3.51-.58 3.43-1.72 6.73-2.5 10.12-4.5-1.44-9.64-3.08-14.13-.73-4.42 2.42-5.26 8.02-5.22 12.59-.01 4.35.74 9.61 4.74 12.16 4.96 2.78 10.94 1.11 15.73-1.2.64 3.47 1.62 6.87 2.14 10.36-7.1 3.26-15.58 3.76-22.87.82-6.84-2.86-11.12-9.91-11.97-17.09-1.05-8.2.28-17.55 6.5-23.52z"/><path d="M281.55 298.59c11.69-.07 23.37 0 35.06-.03.04 3.35.04 6.71-.01 10.06-3.83.02-7.67.02-11.5-.03-.06 12.24.03 24.47-.05 36.71-3.98-.08-7.96-.08-11.94 0 .01-12.22-.02-24.43.02-36.65-3.87-.06-7.74-.02-11.61-.04.05-3.34.07-6.68.03-10.02m19.35 13.974c-18.14-11.304-19.34-7.454 15.924-10.525-30.244 5.321-7.375-.21-19.965 4.991 15.263 54.073 1.12 20.304-2.579 15.96 8.882 5.727-.65 13.89 1.611-.448 14.82-63.296 5.039 21.538 4.1 20.341-1.494-9.513 3.879-19.693 2.556-26.54-21.584-11.434.497-8.813-1.897-3.181-41.32-22.962 10.89-4.682 13.8-6.772-29.155-.978 1.34-4.17-.07-3.59-1.75-3.91 9.635 15.194-12.59-.53-4.809 25.862-9.26-3.46-.89 10.294z" fill="#00438b"/><path d="M83.4 345.27c-.03-15.57-.09-31.14.01-46.72 9.04.66 18.93-1.83 27.25 2.76 9.75 5.23 10.14 21.32.77 27.1-4.71 3.16-10.59 3.3-16.07 3.13-.11 4.57-.02 9.15-.03 13.72-3.98-.05-7.96 0-11.93.01m12.05-36.65c-.12 4.34-.08 8.69-.05 13.04 3.25-.08 7.56.48 9.62-2.67 1.13-2.65 1.19-6.13-.63-8.49-2.43-2.19-5.92-1.79-8.94-1.88zm74.39 10.18c4.62-9.48 19.26-11.99 26.45-4.1 4.12 4.39 4.16 10.82 3.54 16.44-6.65.01-13.3-.06-19.95.09 1.01 1.83 1.98 4.02 4.17 4.67 4.15 1.36 8.6.2 12.59-1.2.55 3.05 1.15 6.09 1.52 9.17-7.59 2.45-16.88 3.53-23.66-1.56-7.27-5.18-8.36-15.88-4.66-23.51m9.67 5.5c3.18.02 6.36.02 9.54.04.05-2.39-1.16-5.43-4.01-5.29-3.08-.2-4.98 2.55-5.53 5.25z" fill="#05428a"/></svg>