<?xml version="1.0" encoding="UTF-8" standalone="no"?>
<svg xmlns:rdf="http://www.w3.org/1999/02/22-rdf-syntax-ns#" xmlns="http://www.w3.org/2000/svg" height="496.7" viewBox="0 0 496.54102 496.66772" width="496.5" version="1.1" xmlns:cc="http://creativecommons.org/ns#" xmlns:dc="http://purl.org/dc/elements/1.1/">
 <path fill="#00a3df" d="m226.8 494.8c-30.62-2.718-59.43-10.84-87.72-24.71-63.1-31-110.7-88.6-129.4-156.6-7.027-25.8-10-54.9-8.174-80.4 2.523-35.3 10-63.3 25.04-94 23.77-48.46 64.07-88.76 112.5-112.5 30.7-15.06 58.7-22.54 94-25.07 32.48-2.325 69.16 3.027 101.1 14.76 13.87 5.085 35.96 16.26 48.62 24.59 51.29 33.75 88.09 84.07 104 142.3 13.47 49.16 11.16 102.7-6.533 151.1-7.985 21.83-23.68 49.48-38.77 68.31-9.083 11.33-26.63 28.93-38.11 38.23-19.41 15.71-46.83 31.39-69.24 39.59-33.88 12.39-72.24 17.54-107.4 14.42zm51.19-43.53c81.43-12.08 148.4-72 168.6-150.9 4.981-19.44 6.443-31.25 6.443-52.05 0-34.45-6.675-62.59-22.04-92.91-6.474-12.77-16.18-27.72-23.99-36.94l-5.56-6.562-10.47 0.2105c-18.34 0.3688-45.47 5.175-68.52 12.14-16.98 5.13-35.25 12.66-58.69 24.18-22.44 11.03-27.59 13.09-31.45 12.54-2.423-0.3419-3.038-1.349-9.88-16.18-7.169-15.54-20.74-23.93-45.95-28.4-12.12-2.148-53.56-2.183-73.01-0.0616l-13.1 1.429-3.157 3.63c-10.39 11.94-26.78 41.82-32.87 59.88-3.989 11.85-7.25 25.37-9.158 37.97-2.239 14.79-2.231 43.44 0.01625 58.09 11.45 74.63 59.55 135 129.6 162.5 15.19 5.975 37.05 11.08 54.78 12.79 11.86 1.145 35.88 0.4433 48.39-1.413zm-157.9-82.68-6.797-0.3235v-98.46-98.46l44.77 0.3967c48.41 0.4291 50.74 0.646 63.22 5.9 8.523 3.587 15.47 8.329 21.59 14.75l5.419 5.677v-13.36-13.36l44.77 0.3703c42.41 0.3509 45.18 0.4784 52.64 2.428 29.55 7.721 46.28 27.85 47.64 57.33 0.961 20.77-3.923 34.39-16.99 47.4-9.113 9.07-18.6 14.35-32.22 17.94-8.261 2.176-11.29 2.445-32.32 2.866l-23.2 0.4647v34.57 34.57l-16.64-0.0103c-9.152-0.006-18.22-0.2718-20.16-0.5914l-3.516-0.5811v-47.93-47.93l-7.471 7.234c-5.941 5.752-9.254 8.083-16.17 11.38-15.22 7.247-25.88 9.052-53.44 9.052h-17.6v34.69 34.69l-13.36-0.1863c-7.348-0.1024-16.42-0.3319-20.16-0.5098zm81.44-106.8c5.641-2.606 11.71-8.141 14.17-12.93 4.403-8.558 2.854-24.87-2.967-31.24-7.766-8.502-15.56-10.5-41.08-10.52l-18.05-0.0163v28.67 28.67l21.8-0.3114c19.9-0.2843 22.17-0.4856 26.13-2.314zm135.8-0.4677c10.75-5.156 15.91-13.23 15.93-24.92 0.009-6.919-1.783-13.94-4.547-17.81-0.8455-1.184-3.751-3.649-6.457-5.478-7.165-4.843-14.04-6.005-35.63-6.025l-18.05-0.0163v28.66 28.66l21.8-0.2967c21.33-0.2904 21.91-0.3496 26.95-2.77zm-55.2-151.3c6.6-1.244 17.63-3.572 24.52-5.175 21.04-4.897 43.31-9.215 58.27-11.3 7.836-1.091 14.45-2.179 14.69-2.417 0.2429-0.2378 0.004-0.7258-0.5311-1.084-0.535-0.3587-3.476-2.598-6.535-4.975-19.97-15.52-46.27-28.33-71.88-35.01-19.19-5.004-31.23-6.498-52.28-6.48-24.68 0.02107-43.35 2.969-65.62 10.36-17.58 5.835-42.87 19.11-57.07 29.95-5.005 3.822-4.994 3.823 13.03 1.138 16.2-2.411 42.18-2.901 51.07-0.962 14.35 3.131 24.36 7.513 38.68 16.94 10.16 6.684 16.66 10.1 21.55 11.34 4.998 1.262 18.13 0.313 32.1-2.321z"/>
</svg>
