<svg id="svg" version="1.1" width="400" height="127.55632582322357" viewBox="0 0 400 127.55632582322357" xmlns="http://www.w3.org/2000/svg" xmlns:xlink="http://www.w3.org/1999/xlink" ><g id="svgg"><path id="path0" d="" stroke="none" fill="#000000" fill-rule="evenodd"></path><path id="path1" d="M23.333 2.486 C 23.333 2.570,23.408 2.664,23.499 2.694 C 23.908 2.832,31.667 2.642,31.667 2.494 C 31.667 2.395,30.067 2.333,27.500 2.333 C 25.086 2.333,23.333 2.398,23.333 2.486 M218.667 2.477 C 218.667 2.622,306.402 2.851,306.792 2.708 C 306.906 2.666,307.000 2.564,307.000 2.482 C 307.000 2.395,288.639 2.333,262.833 2.333 C 238.242 2.333,218.667 2.397,218.667 2.477 M21.333 2.833 C 21.333 2.925,21.521 3.000,21.750 3.000 C 21.979 3.000,22.167 2.925,22.167 2.833 C 22.167 2.742,21.979 2.667,21.750 2.667 C 21.521 2.667,21.333 2.742,21.333 2.833 M377.500 2.833 C 377.500 2.925,377.762 3.000,378.083 3.000 C 378.404 3.000,378.667 2.925,378.667 2.833 C 378.667 2.742,378.404 2.667,378.083 2.667 C 377.762 2.667,377.500 2.742,377.500 2.833 M20.000 3.139 C 20.000 3.374,20.188 3.481,20.433 3.387 C 20.781 3.254,20.715 3.000,20.333 3.000 C 20.150 3.000,20.000 3.063,20.000 3.139 M379.375 3.208 C 379.413 3.323,379.544 3.417,379.667 3.417 C 379.789 3.417,379.920 3.323,379.958 3.208 C 380.000 3.084,379.881 3.000,379.667 3.000 C 379.452 3.000,379.334 3.084,379.375 3.208 M18.917 3.500 C 18.860 3.592,18.968 3.667,19.157 3.667 C 19.346 3.667,19.500 3.592,19.500 3.500 C 19.500 3.408,19.392 3.333,19.260 3.333 C 19.128 3.333,18.973 3.408,18.917 3.500 M380.427 3.483 C 380.317 3.662,380.800 3.874,381.015 3.741 C 381.098 3.689,381.167 3.576,381.167 3.490 C 381.167 3.290,380.550 3.284,380.427 3.483 M17.875 3.875 C 17.913 3.990,18.044 4.083,18.167 4.083 C 18.289 4.083,18.420 3.990,18.458 3.875 C 18.500 3.751,18.381 3.667,18.167 3.667 C 17.952 3.667,17.834 3.751,17.875 3.875 M381.333 3.816 C 381.333 3.964,381.725 4.167,382.014 4.167 C 382.098 4.167,382.167 4.054,382.167 3.917 C 382.167 3.761,382.009 3.667,381.750 3.667 C 381.521 3.667,381.333 3.734,381.333 3.816 M382.333 4.264 C 382.333 4.409,382.422 4.498,382.531 4.462 C 382.840 4.359,382.892 4.000,382.597 4.000 C 382.452 4.000,382.333 4.119,382.333 4.264 M16.167 4.500 C 16.167 4.592,16.017 4.667,15.833 4.667 C 15.650 4.667,15.500 4.742,15.500 4.833 C 15.500 4.925,15.387 5.000,15.250 5.000 C 15.112 5.000,15.000 5.067,15.000 5.149 C 15.000 5.231,15.112 5.341,15.250 5.394 C 15.387 5.446,15.500 5.417,15.500 5.328 C 15.500 5.239,15.612 5.167,15.750 5.167 C 15.887 5.167,16.000 5.097,16.000 5.012 C 16.000 4.926,16.163 4.833,16.362 4.803 C 16.839 4.733,16.969 4.333,16.514 4.333 C 16.323 4.333,16.167 4.408,16.167 4.500 M14.372 5.531 C 14.475 5.840,14.833 5.892,14.833 5.597 C 14.833 5.452,14.715 5.333,14.569 5.333 C 14.424 5.333,14.335 5.422,14.372 5.531 M385.167 5.583 C 385.167 5.736,385.247 5.834,385.346 5.801 C 385.444 5.769,385.525 5.670,385.525 5.583 C 385.525 5.496,385.444 5.398,385.346 5.365 C 385.247 5.332,385.167 5.431,385.167 5.583 M13.667 5.927 C 13.667 6.069,13.592 6.140,13.500 6.083 C 13.408 6.027,13.333 6.060,13.333 6.157 C 13.333 6.254,13.183 6.333,13.000 6.333 C 12.815 6.333,12.667 6.444,12.667 6.583 C 12.667 6.721,12.592 6.833,12.500 6.833 C 12.408 6.833,12.333 6.908,12.333 7.000 C 12.333 7.278,12.800 7.187,13.032 6.863 C 13.152 6.696,13.494 6.453,13.792 6.322 C 14.393 6.059,14.518 5.667,14.000 5.667 C 13.809 5.667,13.667 5.778,13.667 5.927 M385.833 5.917 C 385.833 6.054,385.911 6.167,386.007 6.167 C 386.102 6.167,386.342 6.317,386.538 6.500 C 386.926 6.861,387.333 6.941,387.333 6.655 C 387.333 6.389,386.895 6.000,386.595 6.000 C 386.451 6.000,386.333 5.925,386.333 5.833 C 386.333 5.742,386.221 5.667,386.083 5.667 C 385.946 5.667,385.833 5.779,385.833 5.917 M11.333 7.667 C 11.104 7.936,10.841 8.159,10.748 8.162 C 10.511 8.169,10.111 8.833,10.344 8.833 C 10.443 8.833,10.626 8.740,10.752 8.625 C 10.877 8.510,11.245 8.229,11.569 8.000 C 12.155 7.585,12.354 7.162,11.958 7.172 C 11.844 7.174,11.563 7.397,11.333 7.667 M387.871 7.363 C 387.907 7.471,388.082 7.640,388.260 7.738 C 388.438 7.836,388.636 7.989,388.699 8.079 C 388.763 8.168,388.854 8.202,388.901 8.155 C 389.026 8.029,388.247 7.167,388.008 7.167 C 387.897 7.167,387.835 7.255,387.871 7.363 M389.500 8.631 C 389.500 8.794,391.216 10.500,391.380 10.500 C 391.713 10.500,391.419 9.910,390.754 9.246 C 390.081 8.572,389.500 8.288,389.500 8.631 M8.042 10.760 C 7.927 10.884,7.833 11.048,7.833 11.123 C 7.833 11.198,7.683 11.368,7.500 11.500 C 7.163 11.743,7.044 12.167,7.312 12.167 C 7.481 12.167,8.500 11.009,8.500 10.816 C 8.500 10.567,8.249 10.537,8.042 10.760 M391.833 11.076 C 391.833 11.202,391.893 11.331,391.965 11.361 C 392.038 11.392,392.269 11.698,392.479 12.042 C 392.689 12.385,392.929 12.667,393.014 12.667 C 393.098 12.667,393.167 12.765,393.167 12.885 C 393.167 13.005,393.317 13.265,393.500 13.462 C 393.683 13.658,393.833 13.898,393.833 13.993 C 393.833 14.089,393.946 14.167,394.083 14.167 C 394.221 14.167,394.333 14.054,394.333 13.917 C 394.333 13.779,394.258 13.667,394.167 13.667 C 394.075 13.667,394.000 13.549,394.000 13.405 C 394.000 13.105,393.611 12.667,393.345 12.667 C 393.247 12.667,393.167 12.551,393.167 12.410 C 393.167 12.269,392.867 11.859,392.500 11.500 C 392.133 11.141,391.833 10.950,391.833 11.076 M6.833 12.500 C 6.833 12.592,6.721 12.667,6.583 12.667 C 6.446 12.667,6.333 12.800,6.333 12.963 C 6.333 13.126,6.183 13.368,6.000 13.500 C 5.817 13.632,5.667 13.836,5.667 13.953 C 5.667 14.333,6.104 14.179,6.347 13.713 C 6.477 13.464,6.715 13.127,6.875 12.963 C 7.198 12.635,7.257 12.333,7.000 12.333 C 6.908 12.333,6.833 12.408,6.833 12.500 M5.333 14.569 C 5.333 14.715,5.452 14.833,5.597 14.833 C 5.742 14.833,5.831 14.744,5.795 14.635 C 5.692 14.326,5.333 14.275,5.333 14.569 M394.245 14.507 C 394.186 14.603,394.211 14.772,394.301 14.882 C 394.625 15.281,395.167 16.349,395.167 16.588 C 395.167 16.723,395.279 16.833,395.417 16.833 C 395.556 16.833,395.667 16.685,395.667 16.500 C 395.667 16.317,395.592 16.167,395.500 16.167 C 395.408 16.167,395.333 16.017,395.333 15.833 C 395.333 15.650,395.228 15.500,395.099 15.500 C 394.948 15.500,394.895 15.383,394.950 15.173 C 395.076 14.692,394.480 14.129,394.245 14.507 M5.000 15.217 C 5.000 15.372,4.925 15.500,4.833 15.500 C 4.742 15.500,4.667 15.650,4.667 15.833 C 4.667 16.017,4.592 16.167,4.500 16.167 C 4.408 16.167,4.333 16.317,4.333 16.500 C 4.333 16.685,4.444 16.833,4.583 16.833 C 4.721 16.833,4.833 16.732,4.833 16.609 C 4.833 16.486,4.954 16.142,5.103 15.845 C 5.301 15.448,5.323 15.256,5.186 15.119 C 5.049 14.982,5.000 15.008,5.000 15.217 M4.000 17.417 C 4.000 17.554,4.075 17.667,4.167 17.667 C 4.258 17.667,4.333 17.554,4.333 17.417 C 4.333 17.279,4.258 17.167,4.167 17.167 C 4.075 17.167,4.000 17.279,4.000 17.417 M395.616 17.273 C 395.482 17.406,395.633 17.667,395.843 17.667 C 395.929 17.667,396.000 17.554,396.000 17.417 C 396.000 17.159,395.803 17.086,395.616 17.273 M3.667 18.167 C 3.667 18.381,3.751 18.500,3.875 18.458 C 3.990 18.420,4.083 18.289,4.083 18.167 C 4.083 18.044,3.990 17.913,3.875 17.875 C 3.751 17.834,3.667 17.952,3.667 18.167 M395.863 18.111 C 395.944 18.529,396.333 18.587,396.333 18.181 C 396.333 17.976,396.226 17.833,396.071 17.833 C 395.916 17.833,395.831 17.947,395.863 18.111 M3.333 19.167 C 3.333 19.492,3.510 19.601,3.711 19.400 C 3.844 19.267,3.670 18.833,3.482 18.833 C 3.400 18.833,3.333 18.983,3.333 19.167 M396.259 18.985 C 396.139 19.180,396.323 19.667,396.518 19.667 C 396.600 19.667,396.667 19.479,396.667 19.250 C 396.667 18.838,396.441 18.691,396.259 18.985 M3.000 20.250 C 3.000 20.387,3.075 20.500,3.167 20.500 C 3.258 20.500,3.333 20.387,3.333 20.250 C 3.333 20.112,3.258 20.000,3.167 20.000 C 3.075 20.000,3.000 20.112,3.000 20.250 M396.583 20.167 C 396.462 20.363,396.619 20.667,396.843 20.667 C 396.929 20.667,397.000 20.517,397.000 20.333 C 397.000 19.982,396.758 19.885,396.583 20.167 M2.667 21.569 C 2.667 22.189,2.981 22.421,3.025 21.833 C 3.039 21.650,3.057 21.412,3.067 21.306 C 3.076 21.199,2.990 21.080,2.875 21.042 C 2.734 20.995,2.667 21.166,2.667 21.569 M397.000 21.750 C 397.000 21.979,397.075 22.167,397.167 22.167 C 397.258 22.167,397.333 21.979,397.333 21.750 C 397.333 21.521,397.258 21.333,397.167 21.333 C 397.075 21.333,397.000 21.521,397.000 21.750 M110.473 22.057 C 110.230 22.166,109.892 22.376,109.723 22.525 C 109.555 22.673,109.135 22.841,108.792 22.898 C 108.448 22.954,107.905 23.046,107.586 23.101 C 107.167 23.174,106.849 23.110,106.445 22.872 C 105.905 22.554,105.872 22.553,105.490 22.841 C 105.244 23.026,104.997 23.090,104.839 23.009 C 103.679 22.417,100.767 22.820,99.504 23.747 C 99.073 24.063,98.366 24.474,97.933 24.660 C 97.138 25.000,97.037 25.333,97.728 25.333 C 98.230 25.333,98.857 25.779,98.500 25.882 C 98.362 25.921,97.875 26.077,97.417 26.228 C 96.301 26.594,96.280 26.588,96.406 25.917 C 96.513 25.345,96.504 25.333,95.960 25.333 C 95.585 25.333,95.216 25.173,94.827 24.840 C 94.076 24.198,93.985 24.208,93.259 25.012 C 92.618 25.722,92.167 25.709,92.167 24.980 C 92.167 24.609,91.880 24.574,91.513 24.901 C 91.059 25.305,89.265 25.488,88.760 25.182 C 88.464 25.002,88.260 24.972,88.105 25.085 C 87.207 25.743,86.917 25.866,86.055 25.951 C 85.520 26.004,84.884 26.187,84.641 26.357 C 84.398 26.527,84.045 26.667,83.857 26.667 C 83.670 26.667,83.081 26.788,82.550 26.935 C 81.072 27.346,80.685 27.389,80.422 27.171 C 80.241 27.021,80.041 27.015,79.631 27.150 C 79.303 27.259,77.900 27.317,76.128 27.295 C 73.985 27.270,73.117 27.316,72.970 27.463 C 72.661 27.772,71.939 27.707,71.538 27.333 C 71.233 27.049,70.950 27.000,69.611 27.000 C 68.056 27.000,68.039 26.995,67.846 26.542 C 67.436 25.578,66.551 24.872,66.029 25.091 C 65.875 25.156,65.271 25.380,64.686 25.590 L 63.621 25.972 62.682 25.494 C 61.929 25.112,61.361 24.979,59.829 24.826 C 58.777 24.722,57.893 24.613,57.865 24.585 C 57.836 24.558,57.415 24.627,56.929 24.740 C 56.108 24.931,55.994 24.918,55.317 24.556 C 53.958 23.830,52.367 24.182,52.582 25.162 C 52.703 25.712,52.444 26.021,51.441 26.524 C 49.607 27.444,49.051 28.751,49.945 30.040 C 51.511 32.300,49.874 37.898,47.836 37.251 C 47.487 37.140,47.376 36.596,47.667 36.417 C 48.218 36.076,47.509 35.176,46.417 34.829 C 46.050 34.713,45.337 34.348,44.833 34.017 C 44.329 33.687,43.832 33.362,43.728 33.295 C 43.622 33.226,43.221 33.425,42.812 33.751 C 42.411 34.070,41.933 34.333,41.750 34.337 C 41.538 34.341,41.149 34.712,40.680 35.358 L 39.943 36.372 38.597 36.271 C 37.856 36.216,36.800 36.127,36.250 36.074 C 34.240 35.879,32.953 36.728,32.744 38.386 C 32.672 38.955,32.521 39.296,32.224 39.553 C 31.553 40.135,30.806 41.857,30.759 42.931 C 30.702 44.206,29.892 44.531,28.917 43.669 C 28.070 42.922,27.375 42.824,26.538 43.334 C 26.071 43.618,25.696 43.667,23.954 43.668 L 21.917 43.669 21.635 44.543 C 21.480 45.023,21.396 45.628,21.449 45.887 C 21.501 46.146,21.459 46.539,21.355 46.762 C 21.251 46.985,21.074 47.373,20.961 47.625 C 20.847 47.877,20.613 48.284,20.439 48.529 C 20.103 49.002,20.118 49.254,20.559 50.500 C 20.704 50.913,20.865 51.458,20.916 51.713 C 20.967 51.967,21.278 52.473,21.607 52.838 L 22.205 53.500 66.144 53.517 C 90.311 53.527,117.096 53.584,125.667 53.643 C 142.702 53.763,141.691 53.813,142.783 52.786 C 143.294 52.305,143.355 52.290,144.283 52.418 C 144.815 52.491,145.736 52.558,146.330 52.567 L 147.411 52.583 147.773 51.858 C 147.972 51.458,148.211 51.055,148.305 50.961 C 148.517 50.750,150.578 51.097,151.119 51.436 C 151.604 51.739,152.268 51.727,153.450 51.395 C 155.602 50.789,155.656 50.806,155.923 52.167 C 156.160 53.376,156.692 53.593,157.558 52.833 C 157.871 52.558,158.244 52.333,158.387 52.333 C 158.530 52.333,158.693 52.258,158.750 52.167 C 158.807 52.075,159.145 52.000,159.502 52.000 C 161.587 52.000,162.383 51.477,162.652 49.929 C 163.101 47.350,162.793 45.958,161.595 45.151 C 161.235 44.908,160.881 44.550,160.809 44.355 C 160.714 44.099,160.536 44.000,160.168 44.000 C 159.781 44.000,159.621 43.902,159.504 43.593 C 159.419 43.370,159.198 43.106,159.014 43.007 C 158.829 42.909,158.596 42.525,158.497 42.154 C 158.131 40.797,155.906 39.167,154.419 39.167 C 153.710 39.167,153.073 38.865,152.513 38.266 C 152.067 37.789,151.816 37.737,151.353 38.026 C 150.942 38.283,150.532 38.105,150.334 37.585 C 150.143 37.084,149.576 36.835,148.614 36.829 C 148.231 36.827,147.617 36.744,147.250 36.645 C 146.883 36.545,146.096 36.404,145.500 36.330 C 140.833 35.753,140.333 35.553,140.333 34.258 C 140.333 33.438,139.758 34.194,139.515 35.333 C 139.192 36.844,138.954 37.513,138.764 37.446 C 138.474 37.343,138.589 36.262,138.998 35.255 C 139.429 34.194,139.249 33.738,138.358 33.634 C 137.827 33.573,137.679 33.011,138.086 32.604 C 138.503 32.187,139.216 32.277,139.917 32.833 C 140.618 33.391,141.115 33.455,141.837 33.082 C 143.341 32.304,142.659 30.712,140.551 30.080 C 140.019 29.921,139.278 29.650,138.906 29.478 C 138.533 29.307,138.151 29.167,138.057 29.167 C 137.962 29.167,137.423 28.868,136.859 28.504 L 135.833 27.841 135.833 26.930 L 135.833 26.020 135.225 25.968 C 134.605 25.916,134.509 25.817,134.166 24.889 C 133.936 24.266,133.461 24.050,132.118 23.956 C 131.365 23.903,131.098 23.809,130.900 23.527 C 130.478 22.924,129.656 23.043,128.843 23.824 L 128.159 24.482 127.371 24.243 C 126.043 23.840,124.030 24.298,123.000 25.238 C 122.410 25.776,122.059 25.862,121.293 25.656 C 120.341 25.399,119.133 25.610,118.294 26.179 C 117.820 26.500,117.370 26.662,116.944 26.664 L 116.304 26.667 116.411 27.298 C 116.482 27.718,116.434 28.090,116.267 28.411 C 115.929 29.062,116.066 29.202,116.912 29.075 C 117.749 28.950,118.014 29.188,117.466 29.572 C 116.389 30.326,115.167 29.732,115.167 28.455 C 115.167 27.386,115.006 27.375,113.859 28.365 C 113.006 29.101,112.868 29.297,112.941 29.664 C 113.040 30.160,112.779 30.329,111.417 30.654 C 110.958 30.763,110.558 30.923,110.528 31.009 C 110.437 31.266,109.877 31.188,109.768 30.905 C 109.711 30.755,109.846 30.409,110.084 30.097 C 110.616 29.400,110.621 29.427,109.824 28.638 C 109.128 27.948,109.008 27.403,109.500 27.161 C 109.638 27.094,109.960 26.940,110.216 26.820 C 110.472 26.700,110.972 26.354,111.326 26.051 C 111.894 25.565,112.084 25.500,112.943 25.498 C 114.939 25.494,115.722 25.149,114.573 24.780 C 113.656 24.486,113.461 24.200,113.794 23.637 C 113.982 23.319,114.021 23.112,113.907 23.035 C 113.812 22.970,113.387 22.673,112.962 22.375 C 112.129 21.790,111.309 21.686,110.473 22.057 M2.333 63.583 C 2.333 85.624,2.395 101.333,2.482 101.333 C 2.749 101.333,2.751 101.125,2.667 81.417 C 2.621 70.692,2.622 53.892,2.668 44.083 C 2.754 26.100,2.751 25.833,2.482 25.833 C 2.395 25.833,2.333 41.543,2.333 63.583 M134.092 26.485 C 133.963 26.695,133.500 26.732,133.500 26.533 C 133.500 26.460,133.590 26.310,133.700 26.200 C 133.933 25.967,134.264 26.208,134.092 26.485 M348.583 27.523 C 345.212 28.018,342.182 28.644,340.250 29.245 C 339.883 29.359,339.246 29.551,338.833 29.673 C 338.421 29.794,338.008 29.941,337.917 30.000 C 337.825 30.059,337.412 30.209,337.000 30.333 C 336.587 30.458,336.175 30.609,336.083 30.669 C 335.992 30.729,335.654 30.878,335.333 31.001 C 328.783 33.507,321.988 39.274,318.217 45.528 C 315.175 50.574,313.851 54.441,312.809 61.333 C 312.345 64.399,312.561 72.691,313.169 75.167 C 313.248 75.487,313.402 76.125,313.511 76.583 C 315.512 84.963,322.118 93.029,329.632 96.268 C 330.155 96.493,330.771 96.760,331.000 96.861 C 331.837 97.230,332.116 97.331,333.851 97.901 C 336.482 98.766,338.234 99.155,341.782 99.662 C 343.285 99.877,353.299 99.888,354.801 99.676 C 355.415 99.590,356.554 99.435,357.333 99.332 C 359.517 99.043,364.405 98.067,366.209 97.560 C 366.749 97.407,366.969 96.444,367.666 91.167 C 367.845 89.807,368.002 88.679,368.337 86.333 C 368.422 85.737,368.535 84.837,368.588 84.333 C 368.642 83.829,368.727 83.249,368.777 83.043 C 368.931 82.417,368.432 82.425,366.808 83.075 C 362.367 84.853,357.808 85.840,352.833 86.101 C 349.419 86.281,344.020 85.531,342.461 84.661 C 342.301 84.573,342.094 84.500,342.000 84.500 C 339.963 84.500,335.264 80.154,333.711 76.833 C 331.337 71.758,331.153 62.845,333.320 57.917 C 333.400 57.733,333.558 57.321,333.669 57.000 C 336.005 50.288,341.731 44.603,348.098 42.673 C 348.732 42.480,349.475 42.254,349.750 42.170 C 354.309 40.772,362.505 40.844,368.042 42.332 C 369.547 42.737,369.794 42.809,370.583 43.072 C 371.042 43.225,371.567 43.414,371.750 43.491 C 371.933 43.569,372.383 43.760,372.750 43.916 C 373.117 44.072,373.772 44.379,374.205 44.600 C 375.689 45.353,375.792 45.278,376.506 42.917 C 376.700 42.275,376.920 41.563,376.994 41.333 C 377.068 41.104,377.222 40.579,377.336 40.167 C 377.451 39.754,377.674 39.004,377.833 38.500 C 377.991 37.996,378.292 37.021,378.502 36.333 C 378.711 35.646,378.991 34.746,379.124 34.333 C 380.204 30.968,380.171 30.853,377.917 30.132 C 377.413 29.971,377.179 29.905,375.500 29.444 C 372.939 28.742,368.217 27.957,363.805 27.500 C 361.859 27.299,349.989 27.316,348.583 27.523 M191.528 28.755 C 191.421 28.990,191.333 29.305,191.333 29.454 C 191.333 29.604,191.264 29.957,191.179 30.238 C 191.095 30.520,190.941 31.162,190.838 31.667 C 190.735 32.171,190.585 32.883,190.505 33.250 C 190.426 33.617,190.276 34.329,190.173 34.833 C 190.016 35.604,189.000 40.253,188.480 42.583 C 188.398 42.950,188.254 43.625,188.158 44.083 C 187.884 45.404,187.718 46.182,187.500 47.167 C 187.282 48.151,187.116 48.929,186.842 50.250 C 186.746 50.708,186.593 51.421,186.501 51.833 C 186.408 52.246,186.258 52.958,186.167 53.417 C 186.075 53.875,185.935 54.550,185.854 54.917 C 185.774 55.283,185.515 56.483,185.279 57.583 C 184.842 59.619,184.229 62.445,183.996 63.500 C 183.636 65.126,183.450 65.982,183.315 66.625 C 183.233 67.015,183.100 67.652,183.018 68.042 C 182.859 68.802,182.559 70.171,182.316 71.250 C 182.233 71.617,182.092 72.292,182.002 72.750 C 181.912 73.208,181.695 74.258,181.521 75.083 C 181.347 75.908,181.042 77.371,180.842 78.333 C 180.643 79.296,180.418 80.308,180.342 80.583 C 180.267 80.858,180.116 81.533,180.007 82.083 C 179.898 82.633,179.746 83.346,179.669 83.667 C 179.593 83.987,179.449 84.644,179.349 85.125 C 178.888 87.340,178.622 88.603,178.347 89.875 C 178.263 90.265,178.104 91.033,177.994 91.583 C 177.885 92.133,177.737 92.808,177.667 93.083 C 177.596 93.358,177.443 94.033,177.328 94.583 C 177.212 95.133,177.016 95.993,176.892 96.493 C 176.768 96.994,176.667 97.677,176.667 98.011 L 176.667 98.618 177.942 98.726 C 179.568 98.863,193.710 98.864,194.541 98.726 C 195.224 98.614,195.202 98.659,195.665 96.417 C 195.779 95.867,195.929 95.192,196.000 94.917 C 196.071 94.642,196.218 93.967,196.328 93.417 C 196.437 92.867,196.594 92.117,196.676 91.750 C 197.087 89.912,197.885 86.200,197.947 85.833 C 197.986 85.604,198.089 85.098,198.176 84.708 C 198.459 83.434,198.636 82.599,198.839 81.583 C 198.949 81.033,199.096 80.358,199.167 80.083 C 199.237 79.808,199.384 79.133,199.493 78.583 C 199.602 78.033,199.754 77.321,199.831 77.000 C 199.907 76.679,200.061 76.004,200.173 75.500 C 200.491 74.066,200.011 74.166,206.562 74.168 C 216.661 74.171,222.740 73.025,227.898 70.144 C 228.071 70.048,228.483 69.818,228.815 69.634 C 233.915 66.802,238.066 61.871,239.801 56.583 C 240.093 55.694,240.207 55.261,240.576 53.667 C 242.139 46.897,240.742 39.302,237.241 35.534 C 234.890 33.003,230.528 30.625,226.750 29.813 C 221.341 28.652,216.950 28.400,201.403 28.356 L 191.722 28.328 191.528 28.755 M254.705 28.473 C 254.446 28.637,254.258 29.258,253.810 31.417 C 253.620 32.333,253.397 33.383,253.315 33.750 C 253.233 34.117,253.084 34.829,252.984 35.333 C 252.598 37.284,252.530 37.612,252.333 38.500 C 252.222 39.004,252.073 39.717,252.003 40.083 C 251.777 41.270,251.332 43.399,251.166 44.083 C 250.992 44.804,249.706 50.826,249.494 51.917 C 249.177 53.547,248.989 54.469,248.833 55.167 C 248.740 55.579,248.587 56.292,248.492 56.750 C 248.397 57.208,248.254 57.883,248.175 58.250 C 248.096 58.617,247.942 59.367,247.833 59.917 C 247.725 60.467,247.568 61.235,247.485 61.625 C 247.401 62.015,247.267 62.652,247.185 63.042 C 246.807 64.846,245.551 70.694,245.315 71.750 C 245.233 72.117,245.091 72.792,245.000 73.250 C 244.909 73.708,244.759 74.421,244.667 74.833 C 244.575 75.246,244.417 75.996,244.317 76.500 C 244.218 77.004,244.068 77.735,243.985 78.125 C 243.901 78.515,243.765 79.152,243.682 79.542 C 243.599 79.931,243.449 80.662,243.349 81.167 C 243.249 81.671,243.092 82.421,243.000 82.833 C 242.908 83.246,242.758 83.958,242.667 84.417 C 242.467 85.427,242.314 86.151,241.753 88.750 C 241.304 90.829,240.724 93.599,240.496 94.750 C 240.424 95.117,240.273 95.867,240.162 96.417 C 239.769 98.355,239.783 98.401,240.833 98.528 C 242.181 98.691,257.146 98.906,257.858 98.772 C 258.457 98.660,258.471 98.639,258.742 97.454 C 259.103 95.884,259.264 95.134,259.502 93.917 C 259.610 93.367,259.772 92.542,259.862 92.083 C 259.952 91.625,260.095 91.020,260.179 90.738 C 260.264 90.457,260.333 90.049,260.333 89.833 C 260.333 89.617,260.404 89.210,260.490 88.928 C 260.576 88.647,260.733 87.967,260.839 87.417 C 260.945 86.867,261.102 86.079,261.187 85.667 C 261.272 85.254,261.524 83.979,261.748 82.833 C 261.972 81.688,262.430 79.438,262.765 77.833 C 263.464 74.494,263.594 73.842,263.749 72.917 C 264.101 70.818,264.253 70.773,269.574 71.179 C 274.738 71.573,275.468 72.642,277.422 82.667 C 277.825 84.735,278.020 85.715,278.167 86.417 C 278.243 86.783,278.393 87.533,278.500 88.083 C 278.607 88.633,278.757 89.383,278.833 89.750 C 278.910 90.117,279.060 90.867,279.167 91.417 C 279.387 92.555,279.568 93.419,279.813 94.500 C 279.907 94.912,280.068 95.662,280.172 96.167 C 280.276 96.671,280.470 97.429,280.603 97.852 L 280.845 98.620 282.028 98.730 C 283.378 98.855,297.592 98.842,298.542 98.714 C 299.213 98.624,299.413 97.820,299.019 96.800 C 298.937 96.589,298.784 96.004,298.678 95.500 C 298.573 94.996,298.417 94.321,298.332 94.000 C 298.248 93.679,298.067 92.929,297.931 92.333 C 297.794 91.737,297.526 90.575,297.335 89.750 C 297.144 88.925,296.919 87.950,296.836 87.583 C 296.753 87.217,296.535 86.279,296.352 85.500 C 296.169 84.721,295.931 83.671,295.823 83.167 C 295.714 82.662,295.568 82.063,295.497 81.833 C 295.427 81.604,295.279 80.967,295.169 80.417 C 295.058 79.867,294.900 79.244,294.817 79.034 C 294.735 78.823,294.667 78.471,294.667 78.250 C 294.667 78.029,294.600 77.677,294.519 77.466 C 294.437 77.256,294.280 76.671,294.170 76.167 C 293.883 74.860,293.098 72.242,292.671 71.167 C 291.363 67.871,289.990 66.225,287.457 64.914 C 286.621 64.481,286.745 64.275,287.930 64.127 C 301.167 62.478,307.923 54.521,306.151 42.667 C 305.087 35.557,300.900 31.575,292.500 29.686 C 289.062 28.912,286.695 28.697,279.500 28.504 C 271.932 28.302,255.009 28.280,254.705 28.473 M397.232 32.097 C 397.172 32.334,397.170 32.990,397.226 33.556 C 397.283 34.121,397.334 39.141,397.341 44.712 C 397.348 50.994,397.413 54.804,397.510 54.744 C 397.728 54.609,397.721 31.667,397.503 31.667 C 397.413 31.667,397.291 31.860,397.232 32.097 M213.167 41.838 C 216.332 42.003,217.521 42.218,218.962 42.885 C 219.903 43.321,221.587 45.470,222.001 46.766 C 222.116 47.124,222.275 47.589,222.355 47.800 C 222.704 48.718,222.494 51.962,222.003 53.250 C 219.984 58.541,216.708 60.308,207.909 60.853 C 203.230 61.143,203.133 61.094,203.684 58.711 C 203.785 58.274,203.928 57.654,204.002 57.333 C 204.136 56.752,204.294 55.976,204.663 54.083 C 204.770 53.533,204.921 52.821,204.997 52.500 C 205.074 52.179,205.215 51.542,205.311 51.083 C 205.454 50.406,206.974 43.456,207.289 42.042 C 207.389 41.590,208.004 41.569,213.167 41.838 M278.000 41.840 C 285.366 42.167,287.634 43.818,287.661 48.873 C 287.694 55.220,282.347 57.901,270.196 57.628 C 267.083 57.559,266.909 57.505,267.072 56.667 C 267.117 56.438,267.418 54.938,267.743 53.333 C 268.067 51.729,268.414 50.004,268.513 49.500 C 268.612 48.996,268.759 48.283,268.838 47.917 C 269.025 47.052,269.153 46.424,269.333 45.500 C 269.413 45.087,269.560 44.413,269.660 44.000 C 269.759 43.587,269.886 42.968,269.942 42.623 C 270.024 42.119,270.131 41.976,270.481 41.900 C 270.720 41.847,270.992 41.779,271.083 41.749 C 271.426 41.634,274.205 41.671,278.000 41.840 M397.352 89.713 C 397.338 94.316,397.280 98.621,397.225 99.277 C 397.118 100.529,397.227 101.333,397.503 101.333 C 397.710 101.333,397.729 81.558,397.523 81.431 C 397.443 81.381,397.367 85.062,397.352 89.713 M2.667 105.333 C 2.667 105.806,2.879 105.998,3.065 105.696 C 3.186 105.501,2.991 104.833,2.814 104.833 C 2.733 104.833,2.667 105.058,2.667 105.333 M397.000 105.417 C 397.000 105.646,397.075 105.833,397.167 105.833 C 397.258 105.833,397.333 105.646,397.333 105.417 C 397.333 105.188,397.258 105.000,397.167 105.000 C 397.075 105.000,397.000 105.188,397.000 105.417 M3.000 106.833 C 3.000 107.158,3.177 107.268,3.377 107.067 C 3.511 106.934,3.336 106.500,3.149 106.500 C 3.067 106.500,3.000 106.650,3.000 106.833 M396.613 106.734 C 396.519 106.979,396.626 107.167,396.861 107.167 C 396.938 107.167,397.000 107.017,397.000 106.833 C 397.000 106.451,396.746 106.386,396.613 106.734 M3.333 108.000 C 3.333 108.183,3.400 108.333,3.482 108.333 C 3.670 108.333,3.844 107.900,3.711 107.766 C 3.510 107.566,3.333 107.675,3.333 108.000 M396.250 107.999 C 396.137 108.356,396.257 108.667,396.510 108.667 C 396.596 108.667,396.667 108.442,396.667 108.167 C 396.667 107.601,396.410 107.497,396.250 107.999 M3.667 109.000 C 3.667 109.215,3.751 109.333,3.875 109.292 C 3.990 109.253,4.083 109.122,4.083 109.000 C 4.083 108.878,3.990 108.747,3.875 108.708 C 3.751 108.667,3.667 108.785,3.667 109.000 M395.917 108.833 C 395.795 109.030,395.953 109.333,396.177 109.333 C 396.263 109.333,396.333 109.183,396.333 109.000 C 396.333 108.648,396.091 108.551,395.917 108.833 M4.000 110.000 C 4.000 110.183,4.075 110.333,4.167 110.333 C 4.258 110.333,4.333 110.483,4.333 110.667 C 4.333 110.852,4.444 111.000,4.583 111.000 C 4.864 111.000,4.924 110.576,4.667 110.417 C 4.575 110.360,4.500 110.168,4.500 109.990 C 4.500 109.812,4.387 109.667,4.250 109.667 C 4.111 109.667,4.000 109.815,4.000 110.000 M395.611 109.778 C 395.408 109.981,395.496 110.333,395.750 110.333 C 395.889 110.333,396.000 110.185,396.000 110.000 C 396.000 109.668,395.822 109.566,395.611 109.778 M395.167 110.750 C 395.167 110.888,395.279 111.000,395.417 111.000 C 395.554 111.000,395.667 110.888,395.667 110.750 C 395.667 110.612,395.554 110.500,395.417 110.500 C 395.279 110.500,395.167 110.612,395.167 110.750 M4.667 111.417 C 4.667 111.554,4.779 111.667,4.917 111.667 C 5.054 111.667,5.167 111.554,5.167 111.417 C 5.167 111.279,5.054 111.167,4.917 111.167 C 4.779 111.167,4.667 111.279,4.667 111.417 M394.833 111.417 C 394.833 111.554,394.946 111.667,395.083 111.667 C 395.221 111.667,395.333 111.554,395.333 111.417 C 395.333 111.279,395.221 111.167,395.083 111.167 C 394.946 111.167,394.833 111.279,394.833 111.417 M5.000 112.095 C 5.000 112.558,5.430 112.868,5.671 112.579 C 5.813 112.407,5.818 112.333,5.687 112.333 C 5.584 112.333,5.500 112.221,5.500 112.083 C 5.500 111.946,5.388 111.833,5.250 111.833 C 5.112 111.833,5.000 111.951,5.000 112.095 M394.529 112.111 C 394.611 112.529,395.000 112.587,395.000 112.181 C 395.000 111.976,394.892 111.833,394.738 111.833 C 394.583 111.833,394.498 111.947,394.529 112.111 M393.986 112.958 C 393.856 113.210,393.619 113.562,393.458 113.740 C 393.298 113.917,393.167 114.161,393.167 114.281 C 393.167 114.402,393.098 114.500,393.014 114.500 C 392.929 114.500,392.690 114.781,392.481 115.125 C 392.272 115.469,392.024 115.802,391.930 115.866 C 391.836 115.930,391.809 116.031,391.869 116.091 C 392.022 116.244,393.167 115.066,393.167 114.756 C 393.167 114.615,393.247 114.500,393.345 114.500 C 393.596 114.500,394.000 114.068,394.000 113.799 C 394.000 113.675,394.150 113.465,394.333 113.333 C 394.709 113.063,394.784 112.500,394.445 112.500 C 394.323 112.500,394.117 112.706,393.986 112.958 M5.667 113.250 C 5.667 113.388,5.742 113.500,5.833 113.500 C 5.925 113.500,6.000 113.618,6.000 113.762 C 6.000 114.061,6.389 114.500,6.655 114.500 C 6.941 114.500,6.861 114.093,6.500 113.705 C 6.317 113.508,6.167 113.269,6.167 113.174 C 6.167 113.078,6.054 113.000,5.917 113.000 C 5.779 113.000,5.667 113.112,5.667 113.250 M7.167 115.160 C 7.167 115.417,7.994 116.228,8.124 116.098 C 8.249 115.974,7.646 115.132,7.365 115.038 C 7.256 115.002,7.167 115.057,7.167 115.160 M8.460 116.865 C 8.661 117.635,10.833 119.462,10.833 118.861 C 10.833 118.715,8.595 116.500,8.448 116.500 C 8.402 116.500,8.407 116.664,8.460 116.865 M390.513 117.375 C 389.525 118.254,389.282 118.667,389.754 118.667 C 390.092 118.667,391.419 117.329,391.540 116.866 C 391.672 116.362,391.628 116.383,390.513 117.375 M388.138 119.458 C 387.833 119.710,387.559 119.972,387.528 120.040 C 387.498 120.108,387.215 120.286,386.900 120.436 C 386.443 120.653,386.365 120.754,386.517 120.937 C 386.744 121.211,387.000 121.238,387.000 120.988 C 387.000 120.755,387.425 120.333,387.660 120.333 C 387.843 120.333,389.000 119.259,389.000 119.089 C 389.000 118.883,388.656 119.030,388.138 119.458 M11.756 119.657 C 11.635 119.853,12.036 120.333,12.321 120.333 C 12.595 120.333,12.534 120.083,12.183 119.765 C 11.974 119.576,11.829 119.539,11.756 119.657 M12.667 120.500 C 12.667 120.592,12.742 120.667,12.833 120.667 C 12.925 120.667,13.000 120.779,13.000 120.917 C 13.000 121.056,13.148 121.167,13.333 121.167 C 13.517 121.167,13.667 121.246,13.667 121.343 C 13.667 121.440,13.742 121.473,13.833 121.417 C 13.925 121.360,14.000 121.431,14.000 121.573 C 14.000 121.726,14.144 121.833,14.347 121.833 C 14.812 121.833,14.688 121.537,14.079 121.195 C 13.806 121.042,13.558 120.860,13.528 120.792 C 13.497 120.723,13.366 120.667,13.236 120.667 C 13.106 120.667,13.000 120.592,13.000 120.500 C 13.000 120.408,12.925 120.333,12.833 120.333 C 12.742 120.333,12.667 120.408,12.667 120.500 M385.538 121.333 C 385.342 121.517,385.065 121.667,384.924 121.667 C 384.782 121.667,384.667 121.779,384.667 121.917 C 384.667 122.056,384.815 122.167,385.000 122.167 C 385.183 122.167,385.333 122.092,385.333 122.000 C 385.333 121.908,385.456 121.833,385.605 121.833 C 385.832 121.833,386.500 121.254,386.500 121.058 C 386.500 120.864,385.839 121.054,385.538 121.333 M14.773 121.917 C 14.715 122.069,14.773 122.167,14.922 122.167 C 15.057 122.167,15.167 122.054,15.167 121.917 C 15.167 121.779,15.100 121.667,15.018 121.667 C 14.936 121.667,14.826 121.779,14.773 121.917 M15.500 122.250 C 15.500 122.388,15.575 122.500,15.667 122.500 C 15.758 122.500,15.833 122.388,15.833 122.250 C 15.833 122.112,15.758 122.000,15.667 122.000 C 15.575 122.000,15.500 122.112,15.500 122.250 M384.000 122.250 C 384.000 122.388,384.113 122.500,384.250 122.500 C 384.387 122.500,384.500 122.388,384.500 122.250 C 384.500 122.112,384.387 122.000,384.250 122.000 C 384.113 122.000,384.000 122.112,384.000 122.250 M16.167 122.583 C 16.167 122.721,16.279 122.833,16.417 122.833 C 16.554 122.833,16.667 122.721,16.667 122.583 C 16.667 122.446,16.554 122.333,16.417 122.333 C 16.279 122.333,16.167 122.446,16.167 122.583 M383.333 122.583 C 383.333 122.721,383.446 122.833,383.583 122.833 C 383.721 122.833,383.833 122.721,383.833 122.583 C 383.833 122.446,383.721 122.333,383.583 122.333 C 383.446 122.333,383.333 122.446,383.333 122.583 M16.833 122.904 C 16.833 123.059,16.976 123.167,17.181 123.167 C 17.587 123.167,17.529 122.777,17.111 122.696 C 16.947 122.664,16.833 122.749,16.833 122.904 M382.611 122.778 C 382.400 122.989,382.501 123.167,382.833 123.167 C 383.019 123.167,383.167 123.056,383.167 122.917 C 383.167 122.663,382.814 122.575,382.611 122.778 M18.042 123.110 C 17.751 123.227,17.781 123.500,18.083 123.500 C 18.221 123.500,18.333 123.388,18.333 123.250 C 18.333 123.112,18.315 123.006,18.292 123.013 C 18.269 123.020,18.156 123.064,18.042 123.110 M381.667 123.333 C 381.667 123.425,381.779 123.500,381.917 123.500 C 382.054 123.500,382.167 123.425,382.167 123.333 C 382.167 123.242,382.054 123.167,381.917 123.167 C 381.779 123.167,381.667 123.242,381.667 123.333 M18.617 123.439 C 18.383 123.673,18.510 123.833,18.931 123.833 C 19.201 123.833,19.335 123.756,19.292 123.625 C 19.212 123.384,18.788 123.267,18.617 123.439 M380.784 123.439 C 380.549 123.673,380.677 123.833,381.097 123.833 C 381.368 123.833,381.502 123.756,381.458 123.625 C 381.378 123.384,380.955 123.267,380.784 123.439 M19.667 123.917 C 19.667 124.072,19.824 124.167,20.083 124.167 C 20.549 124.167,20.642 123.924,20.236 123.768 C 19.819 123.608,19.667 123.648,19.667 123.917 M379.500 124.000 C 379.500 124.092,379.613 124.167,379.750 124.167 C 379.887 124.167,380.000 124.092,380.000 124.000 C 380.000 123.908,379.887 123.833,379.750 123.833 C 379.613 123.833,379.500 123.908,379.500 124.000 M21.111 124.111 C 20.866 124.356,21.027 124.500,21.542 124.495 C 22.054 124.490,22.066 124.476,21.760 124.245 C 21.401 123.973,21.275 123.947,21.111 124.111 M378.000 124.333 C 378.000 124.425,378.150 124.500,378.333 124.500 C 378.517 124.500,378.667 124.425,378.667 124.333 C 378.667 124.242,378.517 124.167,378.333 124.167 C 378.150 124.167,378.000 124.242,378.000 124.333 M25.666 124.472 C 24.747 124.779,27.598 124.833,44.700 124.833 C 56.431 124.833,63.838 124.774,63.742 124.680 C 63.597 124.539,26.077 124.335,25.666 124.472 M357.208 124.458 C 347.263 124.487,342.000 124.559,342.000 124.668 C 342.000 124.776,347.950 124.833,359.333 124.833 C 369.393 124.833,376.667 124.771,376.667 124.684 C 376.667 124.403,376.134 124.333,374.278 124.374 C 373.254 124.397,365.573 124.434,357.208 124.458 " stroke="none" fill="#ffffff" fill-rule="evenodd"></path><path id="path2" d="M42.805 53.818 C 31.928 53.872,22.965 53.979,22.889 54.055 C 22.813 54.132,22.900 54.301,23.084 54.432 C 25.526 56.180,25.657 56.354,25.906 58.167 C 26.012 58.941,26.723 59.667,27.376 59.667 C 27.994 59.667,28.412 60.922,27.927 61.324 C 26.427 62.570,28.680 64.836,30.407 63.817 C 31.064 63.429,31.581 63.512,32.476 64.150 C 33.683 65.009,36.306 65.161,37.875 64.462 L 38.667 64.109 39.042 64.450 C 39.588 64.948,40.078 65.167,40.646 65.167 C 40.921 65.167,41.197 65.248,41.258 65.347 C 41.320 65.446,41.600 65.667,41.882 65.839 L 42.395 66.150 43.298 65.655 C 43.794 65.382,44.512 64.952,44.892 64.700 C 46.384 63.707,46.405 63.704,47.507 64.310 C 48.899 65.075,49.568 65.006,50.223 64.029 C 51.110 62.704,52.023 62.665,52.671 63.925 C 52.946 64.460,53.293 64.820,53.824 65.122 C 55.140 65.870,55.787 66.611,56.177 67.820 C 56.371 68.423,56.598 68.999,56.682 69.100 C 56.765 69.201,56.881 69.651,56.939 70.100 C 57.060 71.036,58.592 73.644,59.318 74.149 C 59.556 74.314,60.237 74.540,60.833 74.651 C 61.429 74.761,62.164 74.966,62.467 75.105 C 62.769 75.243,63.294 75.398,63.634 75.447 C 65.164 75.670,67.004 77.364,66.745 78.312 C 66.538 79.068,66.465 81.340,66.640 81.551 C 66.825 81.774,66.781 86.823,66.584 87.932 C 66.471 88.572,66.505 88.658,67.144 89.329 C 68.068 90.300,68.888 90.187,71.296 88.757 C 72.300 88.160,72.664 88.213,73.649 89.099 C 74.687 90.032,74.688 90.048,73.723 91.028 L 72.945 91.817 72.459 91.407 L 71.972 90.998 71.544 91.334 C 71.309 91.519,70.824 91.718,70.466 91.775 C 69.769 91.886,69.000 92.664,69.000 93.257 C 69.000 93.427,69.469 94.023,70.042 94.582 C 70.615 95.141,71.355 95.933,71.687 96.341 L 72.291 97.083 74.018 97.083 L 75.745 97.083 75.854 97.833 C 75.985 98.730,77.051 100.920,77.428 101.064 C 78.975 101.658,80.500 101.071,80.500 99.881 C 80.500 99.087,80.866 98.538,81.443 98.469 C 81.685 98.440,81.966 98.268,82.067 98.086 C 82.167 97.904,82.531 97.425,82.875 97.021 C 83.373 96.436,83.501 96.147,83.505 95.602 C 83.512 94.790,83.809 94.333,84.332 94.333 C 84.745 94.333,84.738 95.720,84.315 98.000 C 84.020 99.587,84.172 101.051,84.644 101.162 C 84.877 101.217,85.149 101.487,85.310 101.825 C 85.781 102.809,87.806 102.942,88.957 102.064 L 89.515 101.638 90.320 101.928 C 91.336 102.293,91.554 102.205,92.074 101.216 C 92.305 100.776,92.764 100.117,93.093 99.750 L 93.691 99.083 94.174 99.667 C 94.440 99.988,94.660 100.298,94.662 100.356 C 94.691 101.031,96.968 101.123,98.101 100.495 C 100.453 99.191,101.273 96.893,100.226 94.542 C 99.981 93.992,100.056 92.922,100.352 92.738 C 100.846 92.433,100.466 91.639,99.167 90.260 C 98.433 89.482,97.833 88.804,97.833 88.754 C 97.833 88.602,98.497 87.268,98.714 86.984 C 98.825 86.838,99.217 86.616,99.583 86.491 C 101.243 85.927,101.262 84.747,99.650 82.395 C 99.047 81.516,98.817 81.438,97.955 81.820 C 97.567 81.992,97.047 82.212,96.800 82.309 C 96.420 82.458,96.317 82.644,96.141 83.493 L 95.933 84.500 95.048 84.500 C 94.538 84.500,93.864 84.634,93.457 84.817 C 91.728 85.591,89.776 85.732,89.204 85.123 C 87.356 83.156,88.646 79.782,93.106 74.917 C 93.778 74.183,94.329 73.498,94.331 73.394 C 94.332 73.289,94.593 73.155,94.910 73.095 C 95.228 73.036,95.918 72.790,96.443 72.550 C 97.894 71.886,99.503 71.827,100.627 72.397 C 101.300 72.738,101.525 72.787,101.660 72.625 C 101.755 72.510,102.174 71.951,102.592 71.382 L 103.351 70.347 103.087 69.568 C 102.765 68.620,102.671 68.709,104.230 68.492 C 105.436 68.324,105.561 68.337,106.135 68.678 C 106.595 68.952,107.031 69.047,107.863 69.057 L 108.977 69.069 109.863 68.158 C 110.351 67.657,111.125 67.063,111.583 66.837 C 113.924 65.686,115.067 64.731,118.524 61.035 L 120.129 59.319 120.876 60.201 C 121.287 60.686,121.727 61.380,121.853 61.742 C 122.175 62.664,122.980 63.407,124.115 63.828 C 124.647 64.026,125.346 64.344,125.667 64.534 C 126.985 65.313,127.355 65.500,127.583 65.500 C 127.715 65.500,128.107 65.662,128.453 65.861 C 129.663 66.553,130.024 66.701,131.216 66.994 C 131.876 67.156,132.942 67.457,133.583 67.662 C 135.167 68.169,137.493 68.194,138.142 67.712 C 138.757 67.255,138.765 66.723,138.175 65.436 C 137.571 64.115,137.527 63.191,138.004 61.766 C 138.471 60.370,138.469 57.807,137.999 57.038 C 137.455 56.145,138.260 55.320,139.453 55.548 C 140.484 55.745,142.085 54.675,141.696 54.049 C 141.559 53.827,73.022 53.668,42.805 53.818 M149.333 58.120 C 147.710 58.730,146.906 61.163,147.587 63.407 C 148.716 67.128,151.839 65.726,151.831 61.502 C 151.826 59.077,150.732 57.595,149.333 58.120 M96.084 88.168 C 96.141 88.261,96.445 88.468,96.759 88.629 L 97.330 88.922 96.747 89.742 C 96.426 90.193,96.037 90.980,95.882 91.490 C 95.727 91.999,95.582 92.444,95.560 92.477 C 95.538 92.509,95.297 92.378,95.026 92.185 C 94.754 91.992,94.417 91.833,94.276 91.833 C 93.810 91.833,93.791 91.479,94.232 91.019 C 94.471 90.769,94.667 90.467,94.667 90.347 C 94.667 90.227,94.807 89.856,94.978 89.523 C 95.149 89.189,95.387 88.710,95.506 88.458 C 95.734 87.977,95.911 87.888,96.084 88.168 " stroke="none" fill="#cc1a3e" fill-rule="evenodd"></path><path id="path3" d="M31.639 2.498 C 31.604 2.600,29.811 2.666,26.875 2.672 C 24.010 2.678,22.167 2.745,22.167 2.841 C 22.167 2.929,21.835 3.000,21.431 3.000 C 20.997 3.000,20.666 3.084,20.626 3.204 C 20.587 3.321,20.331 3.391,20.029 3.368 C 19.738 3.346,19.500 3.404,19.500 3.497 C 19.500 3.590,19.283 3.667,19.018 3.667 C 18.740 3.667,18.494 3.774,18.438 3.921 C 18.370 4.099,18.215 4.143,17.920 4.069 C 17.660 4.004,17.500 4.034,17.500 4.149 C 17.500 4.250,17.358 4.333,17.184 4.333 C 17.011 4.333,16.826 4.446,16.773 4.583 C 16.720 4.721,16.525 4.833,16.339 4.833 C 16.152 4.833,16.000 4.908,16.000 5.000 C 16.000 5.092,15.887 5.167,15.750 5.167 C 15.612 5.167,15.500 5.235,15.500 5.318 C 15.500 5.401,15.350 5.430,15.167 5.382 C 14.929 5.319,14.833 5.377,14.833 5.582 C 14.833 5.769,14.746 5.835,14.583 5.773 C 14.445 5.720,14.333 5.768,14.333 5.881 C 14.333 5.993,14.090 6.192,13.792 6.322 C 13.494 6.453,13.152 6.696,13.032 6.863 C 12.912 7.030,12.669 7.167,12.491 7.167 C 12.312 7.167,12.165 7.260,12.162 7.375 C 12.160 7.490,11.893 7.771,11.569 8.000 C 11.245 8.229,10.877 8.510,10.752 8.625 C 10.626 8.740,10.364 8.833,10.169 8.833 C 9.973 8.833,9.860 8.908,9.917 9.000 C 9.973 9.092,9.930 9.167,9.821 9.167 C 9.531 9.167,8.834 10.032,8.834 10.393 C 8.833 10.595,8.749 10.670,8.592 10.610 C 8.435 10.550,8.381 10.597,8.438 10.745 C 8.486 10.871,8.222 11.287,7.846 11.673 C 7.472 12.058,7.167 12.439,7.167 12.520 C 7.167 12.601,7.035 12.800,6.875 12.963 C 6.715 13.127,6.477 13.464,6.347 13.713 C 6.217 13.963,6.005 14.167,5.877 14.167 C 5.725 14.167,5.679 14.275,5.743 14.479 C 5.815 14.705,5.744 14.818,5.488 14.885 C 5.289 14.937,5.182 15.057,5.244 15.158 C 5.306 15.257,5.238 15.573,5.094 15.861 C 4.951 16.149,4.833 16.486,4.833 16.609 C 4.833 16.732,4.721 16.833,4.583 16.833 C 4.428 16.833,4.333 16.991,4.333 17.250 C 4.333 17.479,4.253 17.667,4.155 17.667 C 4.056 17.667,4.022 17.808,4.079 17.988 C 4.145 18.195,4.082 18.364,3.899 18.467 C 3.711 18.572,3.649 18.747,3.712 18.989 C 3.773 19.221,3.721 19.387,3.570 19.445 C 3.440 19.495,3.333 19.753,3.333 20.018 C 3.333 20.283,3.265 20.500,3.182 20.500 C 3.098 20.500,3.035 20.852,3.042 21.283 C 3.048 21.715,2.972 22.093,2.870 22.127 C 2.630 22.207,2.538 47.044,2.633 85.697 C 2.669 100.175,2.728 104.826,2.877 104.876 C 2.993 104.914,3.062 105.233,3.045 105.657 C 3.028 106.075,3.111 106.468,3.243 106.600 C 3.369 106.726,3.429 106.987,3.377 107.185 C 3.318 107.412,3.378 107.595,3.543 107.687 C 3.707 107.779,3.768 107.963,3.710 108.187 C 3.649 108.417,3.714 108.597,3.893 108.697 C 4.085 108.804,4.138 108.975,4.066 109.259 C 3.989 109.565,4.031 109.667,4.232 109.667 C 4.386 109.667,4.500 109.804,4.500 109.990 C 4.500 110.168,4.582 110.364,4.681 110.426 C 4.781 110.487,4.825 110.679,4.780 110.852 C 4.726 111.059,4.785 111.167,4.952 111.167 C 5.123 111.167,5.177 111.274,5.118 111.500 C 5.062 111.717,5.113 111.833,5.266 111.833 C 5.395 111.833,5.500 111.946,5.500 112.083 C 5.500 112.221,5.584 112.333,5.687 112.333 C 5.814 112.333,5.805 112.417,5.660 112.592 C 5.479 112.810,5.501 112.865,5.806 112.945 C 6.004 112.996,6.167 113.108,6.167 113.193 C 6.167 113.278,6.317 113.508,6.500 113.705 C 6.683 113.902,6.836 114.217,6.840 114.406 C 6.844 114.608,7.067 114.888,7.381 115.084 C 7.700 115.283,7.981 115.637,8.076 115.959 C 8.164 116.256,8.359 116.539,8.511 116.587 C 8.857 116.697,11.000 118.904,11.000 119.150 C 11.000 119.251,11.150 119.333,11.333 119.333 C 11.517 119.333,11.667 119.413,11.667 119.510 C 11.667 119.607,11.736 119.644,11.820 119.592 C 11.904 119.539,12.121 119.685,12.302 119.915 C 12.483 120.145,12.714 120.333,12.816 120.333 C 12.917 120.333,13.000 120.408,13.000 120.500 C 13.000 120.592,13.112 120.667,13.250 120.667 C 13.387 120.667,13.500 120.723,13.500 120.793 C 13.500 120.862,13.731 121.021,14.013 121.146 C 14.295 121.270,14.590 121.532,14.669 121.728 C 14.748 121.923,14.817 121.990,14.823 121.875 C 14.838 121.570,15.167 121.620,15.167 121.928 C 15.167 122.113,15.263 122.158,15.500 122.083 C 15.738 122.008,15.833 122.053,15.833 122.242 C 15.833 122.441,15.937 122.480,16.250 122.402 C 16.563 122.323,16.667 122.363,16.667 122.560 C 16.667 122.735,16.758 122.788,16.941 122.718 C 17.107 122.654,17.301 122.730,17.433 122.911 C 17.570 123.099,17.778 123.176,17.992 123.120 C 18.218 123.061,18.333 123.111,18.333 123.269 C 18.333 123.439,18.451 123.477,18.748 123.402 C 19.043 123.328,19.193 123.375,19.266 123.564 C 19.335 123.744,19.490 123.800,19.743 123.737 C 19.977 123.678,20.224 123.748,20.398 123.921 C 20.573 124.097,20.818 124.165,21.058 124.105 C 21.267 124.052,21.584 124.109,21.761 124.231 C 22.025 124.413,25.864 124.459,42.833 124.486 C 55.593 124.506,63.644 124.579,63.742 124.676 C 63.955 124.888,341.952 124.890,342.028 124.678 C 342.061 124.585,349.170 124.506,360.042 124.480 C 369.919 124.456,378.000 124.376,378.000 124.302 C 378.000 124.227,378.337 124.167,378.750 124.167 C 379.162 124.167,379.500 124.092,379.500 124.000 C 379.500 123.908,379.754 123.833,380.066 123.833 C 380.431 123.833,380.667 123.739,380.734 123.566 C 380.807 123.375,380.956 123.328,381.252 123.402 C 381.491 123.462,381.667 123.434,381.667 123.337 C 381.667 123.243,381.846 123.167,382.066 123.167 C 382.285 123.167,382.511 123.046,382.568 122.898 C 382.633 122.727,382.792 122.661,383.002 122.715 C 383.226 122.774,383.333 122.720,383.333 122.548 C 383.333 122.377,383.441 122.323,383.667 122.382 C 383.892 122.441,384.000 122.387,384.000 122.215 C 384.000 122.043,384.108 121.989,384.333 122.048 C 384.550 122.105,384.667 122.053,384.667 121.901 C 384.667 121.772,384.782 121.667,384.924 121.667 C 385.065 121.667,385.346 121.512,385.549 121.323 C 385.772 121.113,386.064 121.006,386.293 121.050 C 386.578 121.104,386.628 121.071,386.498 120.914 C 386.371 120.761,386.475 120.637,386.900 120.436 C 387.215 120.286,387.498 120.108,387.528 120.040 C 387.678 119.705,388.740 119.000,389.096 119.000 C 389.386 119.000,389.500 118.908,389.500 118.673 C 389.500 118.343,390.923 116.878,391.514 116.600 C 391.690 116.517,391.833 116.317,391.833 116.155 C 391.833 115.993,391.893 115.836,391.965 115.806 C 392.038 115.775,392.269 115.469,392.479 115.125 C 392.689 114.781,392.929 114.500,393.014 114.500 C 393.098 114.500,393.167 114.402,393.167 114.281 C 393.167 114.161,393.298 113.917,393.458 113.740 C 393.619 113.562,393.856 113.210,393.986 112.958 C 394.117 112.706,394.316 112.500,394.429 112.500 C 394.553 112.500,394.601 112.367,394.548 112.167 C 394.489 111.941,394.543 111.833,394.715 111.833 C 394.887 111.833,394.941 111.726,394.882 111.500 C 394.823 111.274,394.877 111.167,395.048 111.167 C 395.220 111.167,395.274 111.059,395.215 110.833 C 395.156 110.608,395.210 110.500,395.382 110.500 C 395.553 110.500,395.607 110.392,395.549 110.169 C 395.493 109.955,395.562 109.799,395.743 109.729 C 395.943 109.653,395.996 109.506,395.925 109.224 C 395.859 108.962,395.906 108.795,396.061 108.736 C 396.190 108.686,396.261 108.511,396.219 108.347 C 396.176 108.184,396.267 107.923,396.422 107.769 C 396.581 107.609,396.665 107.345,396.616 107.158 C 396.569 106.976,396.635 106.722,396.765 106.592 C 396.894 106.463,397.000 106.052,397.000 105.679 C 397.000 105.305,397.066 105.000,397.146 105.000 C 397.228 105.000,397.315 100.095,397.343 93.875 C 397.405 80.409,397.390 81.348,397.542 81.442 C 397.610 81.485,397.667 75.473,397.667 68.083 C 397.667 59.715,397.607 54.684,397.510 54.744 C 397.350 54.843,397.246 39.594,397.327 28.042 C 397.357 23.835,397.316 22.167,397.184 22.167 C 397.078 22.167,397.000 21.858,397.000 21.434 C 397.000 20.923,396.921 20.672,396.739 20.602 C 396.565 20.535,396.513 20.390,396.583 20.167 C 396.648 19.963,396.587 19.730,396.428 19.571 C 396.267 19.410,396.203 19.162,396.262 18.927 C 396.329 18.661,396.273 18.512,396.077 18.437 C 395.899 18.369,395.826 18.211,395.879 18.009 C 395.926 17.830,395.866 17.651,395.745 17.604 C 395.616 17.555,395.563 17.378,395.616 17.177 C 395.679 16.935,395.626 16.833,395.436 16.833 C 395.281 16.833,395.167 16.697,395.167 16.510 C 395.167 16.332,395.085 16.136,394.985 16.074 C 394.886 16.013,394.841 15.821,394.887 15.648 C 394.932 15.475,394.909 15.370,394.836 15.415 C 394.630 15.542,394.158 14.717,394.270 14.425 C 394.334 14.258,394.275 14.167,394.101 14.167 C 393.954 14.167,393.833 14.089,393.833 13.993 C 393.833 13.898,393.683 13.658,393.500 13.462 C 393.317 13.265,393.167 13.005,393.167 12.885 C 393.167 12.765,393.098 12.667,393.014 12.667 C 392.929 12.667,392.689 12.385,392.479 12.042 C 392.269 11.698,392.038 11.392,391.965 11.361 C 391.893 11.331,391.833 11.124,391.833 10.903 C 391.833 10.627,391.739 10.500,391.536 10.500 C 391.214 10.500,389.611 8.934,389.445 8.458 C 389.389 8.298,389.191 8.167,389.005 8.167 C 388.819 8.167,388.667 8.092,388.667 8.000 C 388.667 7.908,388.551 7.833,388.409 7.833 C 388.267 7.833,388.023 7.609,387.867 7.334 C 387.697 7.034,387.446 6.835,387.240 6.834 C 387.051 6.834,386.735 6.683,386.538 6.500 C 386.342 6.317,386.102 6.167,386.007 6.167 C 385.911 6.167,385.833 6.049,385.833 5.905 C 385.833 5.720,385.737 5.675,385.500 5.750 C 385.263 5.825,385.167 5.780,385.167 5.595 C 385.167 5.444,385.025 5.333,384.833 5.333 C 384.650 5.333,384.500 5.258,384.500 5.167 C 384.500 5.075,384.350 5.000,384.167 5.000 C 383.983 5.000,383.833 4.925,383.833 4.833 C 383.833 4.742,383.683 4.667,383.500 4.667 C 383.317 4.667,383.167 4.584,383.167 4.482 C 383.167 4.368,383.007 4.337,382.750 4.402 C 382.452 4.477,382.333 4.439,382.333 4.269 C 382.333 4.120,382.219 4.061,382.025 4.112 C 381.855 4.156,381.593 4.069,381.443 3.919 C 381.292 3.769,381.100 3.688,381.016 3.740 C 380.783 3.884,380.321 3.655,380.444 3.457 C 380.515 3.340,380.373 3.317,380.020 3.388 C 379.631 3.466,379.462 3.428,379.392 3.247 C 379.325 3.071,379.039 3.000,378.399 3.000 C 377.904 3.000,377.500 2.929,377.500 2.842 C 377.500 2.744,347.854 2.685,298.128 2.685 C 242.554 2.685,218.739 2.633,218.698 2.509 C 218.618 2.272,31.719 2.260,31.639 2.498 M112.962 22.375 C 113.387 22.673,113.812 22.970,113.907 23.035 C 114.021 23.112,113.982 23.319,113.794 23.637 C 113.461 24.200,113.656 24.486,114.573 24.780 C 115.722 25.149,114.939 25.494,112.943 25.498 C 112.084 25.500,111.894 25.565,111.326 26.051 C 110.972 26.354,110.472 26.700,110.216 26.820 C 109.960 26.940,109.638 27.094,109.500 27.161 C 109.008 27.403,109.128 27.948,109.824 28.638 C 110.621 29.427,110.616 29.400,110.084 30.097 C 109.846 30.409,109.711 30.755,109.768 30.905 C 109.877 31.188,110.437 31.266,110.528 31.009 C 110.558 30.923,110.958 30.763,111.417 30.654 C 112.779 30.329,113.040 30.160,112.941 29.664 C 112.868 29.297,113.006 29.101,113.859 28.365 C 115.006 27.375,115.167 27.386,115.167 28.455 C 115.167 29.732,116.389 30.326,117.466 29.572 C 118.014 29.188,117.749 28.950,116.912 29.075 C 116.066 29.202,115.929 29.062,116.267 28.411 C 116.434 28.090,116.482 27.718,116.411 27.298 L 116.304 26.667 116.944 26.664 C 117.370 26.662,117.820 26.500,118.294 26.179 C 119.133 25.610,120.341 25.399,121.293 25.656 C 122.059 25.862,122.410 25.776,123.000 25.238 C 124.030 24.298,126.043 23.840,127.371 24.243 L 128.159 24.482 128.843 23.824 C 129.656 23.043,130.478 22.924,130.900 23.527 C 131.098 23.809,131.365 23.903,132.118 23.956 C 133.461 24.050,133.936 24.266,134.166 24.889 C 134.509 25.817,134.605 25.916,135.225 25.968 L 135.833 26.020 135.833 26.930 L 135.833 27.841 136.859 28.504 C 137.423 28.868,137.962 29.167,138.057 29.167 C 138.151 29.167,138.533 29.307,138.906 29.478 C 139.278 29.650,140.019 29.921,140.551 30.080 C 142.659 30.712,143.341 32.304,141.837 33.082 C 141.115 33.455,140.618 33.391,139.917 32.833 C 139.216 32.277,138.503 32.187,138.086 32.604 C 137.679 33.011,137.827 33.573,138.358 33.634 C 139.249 33.738,139.429 34.194,138.998 35.255 C 138.589 36.262,138.474 37.343,138.764 37.446 C 138.954 37.513,139.192 36.844,139.515 35.333 C 139.758 34.194,140.333 33.438,140.333 34.258 C 140.333 35.553,140.833 35.753,145.500 36.330 C 146.096 36.404,146.883 36.545,147.250 36.645 C 147.617 36.744,148.231 36.827,148.614 36.829 C 149.576 36.835,150.143 37.084,150.334 37.585 C 150.532 38.105,150.942 38.283,151.353 38.026 C 151.816 37.737,152.067 37.789,152.513 38.266 C 153.073 38.865,153.710 39.167,154.419 39.167 C 155.906 39.167,158.131 40.797,158.497 42.154 C 158.596 42.525,158.829 42.909,159.014 43.007 C 159.198 43.106,159.419 43.370,159.504 43.593 C 159.621 43.902,159.781 44.000,160.168 44.000 C 160.536 44.000,160.714 44.099,160.809 44.355 C 160.881 44.550,161.235 44.908,161.595 45.151 C 162.793 45.958,163.101 47.350,162.652 49.929 C 162.383 51.477,161.587 52.000,159.502 52.000 C 159.145 52.000,158.807 52.075,158.750 52.167 C 158.693 52.258,158.530 52.333,158.387 52.333 C 158.244 52.333,157.871 52.558,157.558 52.833 C 156.692 53.593,156.160 53.376,155.923 52.167 C 155.656 50.806,155.602 50.789,153.450 51.395 C 152.268 51.727,151.604 51.739,151.119 51.436 C 150.578 51.097,148.517 50.750,148.305 50.961 C 148.211 51.055,147.972 51.458,147.773 51.858 L 147.411 52.583 146.330 52.567 C 145.736 52.558,144.815 52.491,144.283 52.418 C 143.349 52.290,143.297 52.303,142.783 52.799 C 142.490 53.082,142.039 53.393,141.780 53.490 C 141.354 53.651,141.334 53.692,141.570 53.928 C 142.211 54.568,140.636 55.774,139.453 55.548 C 138.260 55.320,137.455 56.145,137.999 57.038 C 138.469 57.807,138.471 60.370,138.004 61.766 C 137.527 63.191,137.571 64.115,138.175 65.436 C 138.765 66.723,138.757 67.255,138.142 67.712 C 137.493 68.194,135.167 68.169,133.583 67.662 C 132.942 67.457,131.876 67.156,131.216 66.994 C 130.024 66.701,129.663 66.553,128.453 65.861 C 128.107 65.662,127.715 65.500,127.583 65.500 C 127.355 65.500,126.985 65.313,125.667 64.534 C 125.346 64.344,124.647 64.026,124.115 63.828 C 122.980 63.407,122.175 62.664,121.853 61.742 C 121.727 61.380,121.287 60.686,120.876 60.201 L 120.129 59.319 118.524 61.035 C 115.067 64.731,113.924 65.686,111.583 66.837 C 111.125 67.063,110.351 67.657,109.863 68.158 L 108.977 69.069 107.863 69.057 C 107.031 69.047,106.595 68.952,106.135 68.678 C 105.561 68.337,105.436 68.324,104.230 68.492 C 102.671 68.709,102.765 68.620,103.087 69.568 L 103.351 70.347 102.592 71.382 C 102.174 71.951,101.755 72.510,101.660 72.625 C 101.525 72.787,101.300 72.738,100.627 72.397 C 99.503 71.827,97.894 71.886,96.443 72.550 C 95.918 72.790,95.228 73.036,94.910 73.095 C 94.593 73.155,94.332 73.289,94.331 73.394 C 94.329 73.498,93.778 74.183,93.106 74.917 C 88.646 79.782,87.356 83.156,89.204 85.123 C 89.776 85.732,91.728 85.591,93.457 84.817 C 93.864 84.634,94.538 84.500,95.048 84.500 L 95.933 84.500 96.141 83.493 C 96.317 82.644,96.420 82.458,96.800 82.309 C 97.047 82.212,97.567 81.992,97.955 81.820 C 98.817 81.438,99.047 81.516,99.650 82.395 C 101.262 84.747,101.243 85.927,99.583 86.491 C 99.217 86.616,98.825 86.838,98.714 86.984 C 98.497 87.268,97.833 88.602,97.833 88.754 C 97.833 88.804,98.433 89.482,99.167 90.260 C 100.466 91.639,100.846 92.433,100.352 92.738 C 100.056 92.922,99.981 93.992,100.226 94.542 C 101.273 96.893,100.453 99.191,98.101 100.495 C 96.968 101.123,94.691 101.031,94.662 100.356 C 94.660 100.298,94.440 99.988,94.174 99.667 L 93.691 99.083 93.093 99.750 C 92.764 100.117,92.305 100.776,92.074 101.216 C 91.554 102.205,91.336 102.293,90.320 101.928 L 89.515 101.638 88.957 102.064 C 87.806 102.942,85.781 102.809,85.310 101.825 C 85.149 101.487,84.877 101.217,84.644 101.162 C 84.172 101.051,84.020 99.587,84.315 98.000 C 84.738 95.720,84.745 94.333,84.332 94.333 C 83.809 94.333,83.512 94.790,83.505 95.602 C 83.501 96.147,83.373 96.436,82.875 97.021 C 82.531 97.425,82.167 97.904,82.067 98.086 C 81.966 98.268,81.685 98.440,81.443 98.469 C 80.866 98.538,80.500 99.087,80.500 99.881 C 80.500 101.071,78.975 101.658,77.428 101.064 C 77.051 100.920,75.985 98.730,75.854 97.833 L 75.745 97.083 74.018 97.083 L 72.291 97.083 71.687 96.341 C 71.355 95.933,70.615 95.141,70.042 94.582 C 69.469 94.023,69.000 93.427,69.000 93.257 C 69.000 92.664,69.769 91.886,70.466 91.775 C 70.824 91.718,71.309 91.519,71.544 91.334 L 71.972 90.998 72.459 91.407 L 72.945 91.817 73.723 91.028 C 74.688 90.048,74.687 90.032,73.649 89.099 C 72.664 88.213,72.300 88.160,71.296 88.757 C 68.888 90.187,68.068 90.300,67.144 89.329 C 66.505 88.658,66.471 88.572,66.584 87.932 C 66.781 86.823,66.825 81.774,66.640 81.551 C 66.465 81.340,66.538 79.068,66.745 78.312 C 67.004 77.364,65.164 75.670,63.634 75.447 C 63.294 75.398,62.769 75.243,62.467 75.105 C 62.164 74.966,61.429 74.761,60.833 74.651 C 60.237 74.540,59.556 74.314,59.318 74.149 C 58.592 73.644,57.060 71.036,56.939 70.100 C 56.881 69.651,56.765 69.201,56.682 69.100 C 56.598 68.999,56.371 68.423,56.177 67.820 C 55.787 66.611,55.140 65.870,53.824 65.122 C 53.293 64.820,52.946 64.460,52.671 63.925 C 52.023 62.665,51.110 62.704,50.223 64.029 C 49.568 65.006,48.899 65.075,47.507 64.310 C 46.405 63.704,46.384 63.707,44.892 64.700 C 44.512 64.952,43.794 65.382,43.298 65.655 L 42.395 66.150 41.882 65.839 C 41.600 65.667,41.320 65.446,41.258 65.347 C 41.197 65.248,40.921 65.167,40.646 65.167 C 40.078 65.167,39.588 64.948,39.042 64.450 L 38.667 64.109 37.875 64.462 C 36.306 65.161,33.683 65.009,32.476 64.150 C 31.581 63.512,31.064 63.429,30.407 63.817 C 28.680 64.836,26.427 62.570,27.927 61.324 C 28.412 60.922,27.994 59.667,27.376 59.667 C 26.723 59.667,26.012 58.941,25.906 58.167 C 25.657 56.354,25.526 56.180,23.084 54.432 C 22.900 54.301,22.813 54.132,22.889 54.055 C 23.103 53.842,68.485 53.663,105.833 53.729 C 128.035 53.769,134.587 53.748,125.167 53.668 C 117.329 53.602,90.957 53.537,66.561 53.524 L 22.205 53.500 21.607 52.838 C 21.278 52.473,20.967 51.967,20.916 51.713 C 20.865 51.458,20.704 50.913,20.559 50.500 C 20.118 49.254,20.103 49.002,20.439 48.529 C 20.613 48.284,20.847 47.877,20.961 47.625 C 21.074 47.373,21.251 46.985,21.355 46.762 C 21.459 46.539,21.501 46.146,21.449 45.887 C 21.396 45.628,21.480 45.023,21.635 44.543 L 21.917 43.669 23.954 43.668 C 25.696 43.667,26.071 43.618,26.538 43.334 C 27.375 42.824,28.070 42.922,28.917 43.669 C 29.892 44.531,30.702 44.206,30.759 42.931 C 30.806 41.857,31.553 40.135,32.224 39.553 C 32.521 39.296,32.672 38.955,32.744 38.386 C 32.953 36.728,34.240 35.879,36.250 36.074 C 36.800 36.127,37.856 36.216,38.597 36.271 L 39.943 36.372 40.680 35.358 C 41.149 34.712,41.538 34.341,41.750 34.337 C 41.933 34.333,42.411 34.070,42.812 33.751 C 43.221 33.425,43.622 33.226,43.728 33.295 C 43.832 33.362,44.329 33.687,44.833 34.017 C 45.337 34.348,46.050 34.713,46.417 34.829 C 47.509 35.176,48.218 36.076,47.667 36.417 C 47.376 36.596,47.487 37.140,47.836 37.251 C 49.874 37.898,51.511 32.300,49.945 30.040 C 49.051 28.751,49.607 27.444,51.441 26.524 C 52.444 26.021,52.703 25.712,52.582 25.162 C 52.367 24.182,53.958 23.830,55.317 24.556 C 55.994 24.918,56.108 24.931,56.929 24.740 C 57.415 24.627,57.836 24.558,57.865 24.585 C 57.893 24.613,58.777 24.722,59.829 24.826 C 61.361 24.979,61.929 25.112,62.682 25.494 L 63.621 25.972 64.686 25.590 C 65.271 25.380,65.875 25.156,66.029 25.091 C 66.551 24.872,67.436 25.578,67.846 26.542 C 68.039 26.995,68.056 27.000,69.611 27.000 C 70.950 27.000,71.233 27.049,71.538 27.333 C 71.939 27.707,72.661 27.772,72.970 27.463 C 73.117 27.316,73.985 27.270,76.128 27.295 C 77.900 27.317,79.303 27.259,79.631 27.150 C 80.041 27.015,80.241 27.021,80.422 27.171 C 80.685 27.389,81.072 27.346,82.550 26.935 C 83.081 26.788,83.670 26.667,83.857 26.667 C 84.045 26.667,84.398 26.527,84.641 26.357 C 84.884 26.187,85.520 26.004,86.055 25.951 C 86.917 25.866,87.207 25.743,88.105 25.085 C 88.260 24.972,88.464 25.002,88.760 25.182 C 89.265 25.488,91.059 25.305,91.513 24.901 C 91.880 24.574,92.167 24.609,92.167 24.980 C 92.167 25.709,92.618 25.722,93.259 25.012 C 93.985 24.208,94.076 24.198,94.827 24.840 C 95.216 25.173,95.585 25.333,95.960 25.333 C 96.504 25.333,96.513 25.345,96.406 25.917 C 96.280 26.588,96.301 26.594,97.417 26.228 C 97.875 26.077,98.362 25.921,98.500 25.882 C 98.857 25.779,98.230 25.333,97.728 25.333 C 97.037 25.333,97.138 25.000,97.933 24.660 C 98.366 24.474,99.073 24.063,99.504 23.747 C 100.767 22.820,103.679 22.417,104.839 23.009 C 104.997 23.090,105.244 23.026,105.490 22.841 C 105.872 22.553,105.905 22.554,106.445 22.872 C 106.849 23.110,107.167 23.174,107.586 23.101 C 107.905 23.046,108.448 22.954,108.792 22.898 C 109.135 22.841,109.555 22.673,109.723 22.525 C 110.682 21.680,111.892 21.624,112.962 22.375 M133.700 26.200 C 133.590 26.310,133.500 26.460,133.500 26.533 C 133.500 26.732,133.963 26.695,134.092 26.485 C 134.264 26.208,133.933 25.967,133.700 26.200 M363.805 27.500 C 368.217 27.957,372.939 28.742,375.500 29.444 C 380.465 30.806,380.319 30.609,379.124 34.333 C 378.991 34.746,378.711 35.646,378.502 36.333 C 378.292 37.021,377.991 37.996,377.833 38.500 C 377.674 39.004,377.451 39.754,377.336 40.167 C 377.222 40.579,377.068 41.104,376.994 41.333 C 376.920 41.563,376.700 42.275,376.506 42.917 C 375.792 45.278,375.689 45.353,374.205 44.600 C 373.772 44.379,373.117 44.072,372.750 43.916 C 372.383 43.760,371.933 43.569,371.750 43.491 C 371.567 43.414,371.042 43.225,370.583 43.072 C 369.794 42.809,369.547 42.737,368.042 42.332 C 362.505 40.844,354.309 40.772,349.750 42.170 C 349.475 42.254,348.732 42.480,348.098 42.673 C 341.731 44.603,336.005 50.288,333.669 57.000 C 333.558 57.321,333.400 57.733,333.320 57.917 C 331.153 62.845,331.337 71.758,333.711 76.833 C 335.264 80.154,339.963 84.500,342.000 84.500 C 342.094 84.500,342.301 84.573,342.461 84.661 C 346.884 87.128,358.587 86.366,366.808 83.075 C 368.432 82.425,368.931 82.417,368.777 83.043 C 368.727 83.249,368.642 83.829,368.588 84.333 C 368.535 84.837,368.422 85.737,368.337 86.333 C 368.002 88.679,367.845 89.807,367.666 91.167 C 366.969 96.444,366.749 97.407,366.209 97.560 C 364.405 98.067,359.517 99.043,357.333 99.332 C 356.554 99.435,355.415 99.590,354.801 99.676 C 353.299 99.888,343.285 99.877,341.782 99.662 C 338.234 99.155,336.482 98.766,333.851 97.901 C 332.116 97.331,331.837 97.230,331.000 96.861 C 330.771 96.760,330.155 96.493,329.632 96.268 C 322.118 93.029,315.512 84.963,313.511 76.583 C 313.402 76.125,313.248 75.487,313.169 75.167 C 312.561 72.691,312.345 64.399,312.809 61.333 C 313.851 54.441,315.175 50.574,318.217 45.528 C 321.988 39.274,328.783 33.507,335.333 31.001 C 335.654 30.878,335.992 30.729,336.083 30.669 C 336.175 30.609,336.587 30.458,337.000 30.333 C 337.412 30.209,337.825 30.059,337.917 30.000 C 338.008 29.941,338.421 29.794,338.833 29.673 C 339.246 29.551,339.883 29.359,340.250 29.245 C 342.182 28.644,345.212 28.018,348.583 27.523 C 349.989 27.316,361.859 27.299,363.805 27.500 M215.000 28.520 C 219.758 28.686,223.333 29.080,226.750 29.813 C 230.528 30.625,234.890 33.003,237.241 35.534 C 240.742 39.302,242.139 46.897,240.576 53.667 C 240.207 55.261,240.093 55.694,239.801 56.583 C 238.066 61.871,233.915 66.802,228.815 69.634 C 228.483 69.818,228.071 70.048,227.898 70.144 C 222.740 73.025,216.661 74.171,206.562 74.168 C 200.011 74.166,200.491 74.066,200.173 75.500 C 200.061 76.004,199.907 76.679,199.831 77.000 C 199.754 77.321,199.602 78.033,199.493 78.583 C 199.384 79.133,199.237 79.808,199.167 80.083 C 199.096 80.358,198.949 81.033,198.839 81.583 C 198.636 82.599,198.459 83.434,198.176 84.708 C 198.089 85.098,197.986 85.604,197.947 85.833 C 197.885 86.200,197.087 89.912,196.676 91.750 C 196.594 92.117,196.437 92.867,196.328 93.417 C 196.218 93.967,196.071 94.642,196.000 94.917 C 195.929 95.192,195.779 95.867,195.665 96.417 C 195.202 98.659,195.224 98.614,194.541 98.726 C 193.710 98.864,179.568 98.863,177.942 98.726 L 176.667 98.618 176.667 98.011 C 176.667 97.677,176.768 96.994,176.892 96.493 C 177.016 95.993,177.212 95.133,177.328 94.583 C 177.443 94.033,177.596 93.358,177.667 93.083 C 177.737 92.808,177.885 92.133,177.994 91.583 C 178.104 91.033,178.263 90.265,178.347 89.875 C 178.622 88.603,178.888 87.340,179.349 85.125 C 179.449 84.644,179.593 83.987,179.669 83.667 C 179.746 83.346,179.898 82.633,180.007 82.083 C 180.116 81.533,180.267 80.858,180.342 80.583 C 180.418 80.308,180.643 79.296,180.842 78.333 C 181.042 77.371,181.347 75.908,181.521 75.083 C 181.695 74.258,181.912 73.208,182.002 72.750 C 182.092 72.292,182.233 71.617,182.316 71.250 C 182.559 70.171,182.859 68.802,183.018 68.042 C 183.100 67.652,183.233 67.015,183.315 66.625 C 183.450 65.982,183.636 65.126,183.996 63.500 C 184.229 62.445,184.842 59.619,185.279 57.583 C 185.515 56.483,185.774 55.283,185.854 54.917 C 185.935 54.550,186.075 53.875,186.167 53.417 C 186.258 52.958,186.408 52.246,186.501 51.833 C 186.593 51.421,186.746 50.708,186.842 50.250 C 187.116 48.929,187.282 48.151,187.500 47.167 C 187.718 46.182,187.884 45.404,188.158 44.083 C 188.254 43.625,188.398 42.950,188.480 42.583 C 189.000 40.253,190.016 35.604,190.173 34.833 C 190.276 34.329,190.426 33.617,190.505 33.250 C 190.585 32.883,190.735 32.171,190.838 31.667 C 190.941 31.162,191.095 30.520,191.179 30.238 C 191.264 29.957,191.333 29.604,191.333 29.454 C 191.333 29.305,191.421 28.990,191.528 28.755 L 191.722 28.328 201.403 28.356 C 206.727 28.371,212.846 28.445,215.000 28.520 M279.500 28.504 C 286.695 28.697,289.062 28.912,292.500 29.686 C 300.900 31.575,305.087 35.557,306.151 42.667 C 307.923 54.521,301.167 62.478,287.930 64.127 C 286.745 64.275,286.621 64.481,287.457 64.914 C 289.990 66.225,291.363 67.871,292.671 71.167 C 293.098 72.242,293.883 74.860,294.170 76.167 C 294.280 76.671,294.437 77.256,294.519 77.466 C 294.600 77.677,294.667 78.029,294.667 78.250 C 294.667 78.471,294.735 78.823,294.817 79.034 C 294.900 79.244,295.058 79.867,295.169 80.417 C 295.279 80.967,295.427 81.604,295.497 81.833 C 295.568 82.063,295.714 82.662,295.823 83.167 C 295.931 83.671,296.169 84.721,296.352 85.500 C 296.535 86.279,296.753 87.217,296.836 87.583 C 296.919 87.950,297.144 88.925,297.335 89.750 C 297.526 90.575,297.794 91.737,297.931 92.333 C 298.067 92.929,298.248 93.679,298.332 94.000 C 298.417 94.321,298.573 94.996,298.678 95.500 C 298.784 96.004,298.937 96.589,299.019 96.800 C 299.413 97.820,299.213 98.624,298.542 98.714 C 297.592 98.842,283.378 98.855,282.028 98.730 L 280.845 98.620 280.603 97.852 C 280.470 97.429,280.276 96.671,280.172 96.167 C 280.068 95.662,279.907 94.912,279.813 94.500 C 279.568 93.419,279.387 92.555,279.167 91.417 C 279.060 90.867,278.910 90.117,278.833 89.750 C 278.757 89.383,278.607 88.633,278.500 88.083 C 278.393 87.533,278.243 86.783,278.167 86.417 C 278.020 85.715,277.825 84.735,277.422 82.667 C 275.468 72.642,274.738 71.573,269.574 71.179 C 264.253 70.773,264.101 70.818,263.749 72.917 C 263.594 73.842,263.464 74.494,262.765 77.833 C 262.430 79.438,261.972 81.688,261.748 82.833 C 261.524 83.979,261.272 85.254,261.187 85.667 C 261.102 86.079,260.945 86.867,260.839 87.417 C 260.733 87.967,260.576 88.647,260.490 88.928 C 260.404 89.210,260.333 89.617,260.333 89.833 C 260.333 90.049,260.264 90.457,260.179 90.738 C 260.095 91.020,259.952 91.625,259.862 92.083 C 259.772 92.542,259.610 93.367,259.502 93.917 C 259.264 95.134,259.103 95.884,258.742 97.454 C 258.471 98.639,258.457 98.660,257.858 98.772 C 257.146 98.906,242.181 98.691,240.833 98.528 C 239.783 98.401,239.769 98.355,240.162 96.417 C 240.273 95.867,240.424 95.117,240.496 94.750 C 240.724 93.599,241.304 90.829,241.753 88.750 C 242.314 86.151,242.467 85.427,242.667 84.417 C 242.758 83.958,242.908 83.246,243.000 82.833 C 243.092 82.421,243.249 81.671,243.349 81.167 C 243.449 80.662,243.599 79.931,243.682 79.542 C 243.765 79.152,243.901 78.515,243.985 78.125 C 244.068 77.735,244.218 77.004,244.317 76.500 C 244.417 75.996,244.575 75.246,244.667 74.833 C 244.759 74.421,244.909 73.708,245.000 73.250 C 245.091 72.792,245.233 72.117,245.315 71.750 C 245.551 70.694,246.807 64.846,247.185 63.042 C 247.267 62.652,247.401 62.015,247.485 61.625 C 247.568 61.235,247.725 60.467,247.833 59.917 C 247.942 59.367,248.096 58.617,248.175 58.250 C 248.254 57.883,248.397 57.208,248.492 56.750 C 248.587 56.292,248.740 55.579,248.833 55.167 C 248.989 54.469,249.177 53.547,249.494 51.917 C 249.706 50.826,250.992 44.804,251.166 44.083 C 251.332 43.399,251.777 41.270,252.003 40.083 C 252.073 39.717,252.222 39.004,252.333 38.500 C 252.530 37.612,252.598 37.284,252.984 35.333 C 253.084 34.829,253.233 34.117,253.315 33.750 C 253.397 33.383,253.620 32.333,253.810 31.417 C 254.258 29.258,254.446 28.637,254.705 28.473 C 255.009 28.280,271.932 28.302,279.500 28.504 M207.289 42.042 C 206.974 43.456,205.454 50.406,205.311 51.083 C 205.215 51.542,205.074 52.179,204.997 52.500 C 204.921 52.821,204.770 53.533,204.663 54.083 C 204.294 55.976,204.136 56.752,204.002 57.333 C 203.928 57.654,203.785 58.274,203.684 58.711 C 203.133 61.094,203.230 61.143,207.909 60.853 C 216.708 60.308,219.984 58.541,222.003 53.250 C 222.494 51.962,222.704 48.718,222.355 47.800 C 222.275 47.589,222.116 47.124,222.001 46.766 C 220.732 42.797,217.793 41.675,208.644 41.668 C 207.461 41.667,207.366 41.693,207.289 42.042 M271.083 41.749 C 270.992 41.779,270.720 41.847,270.481 41.900 C 270.131 41.976,270.024 42.119,269.942 42.623 C 269.886 42.968,269.759 43.587,269.660 44.000 C 269.560 44.413,269.413 45.087,269.333 45.500 C 269.153 46.424,269.025 47.052,268.838 47.917 C 268.759 48.283,268.612 48.996,268.513 49.500 C 268.414 50.004,268.067 51.729,267.743 53.333 C 267.418 54.938,267.117 56.438,267.072 56.667 C 266.909 57.505,267.083 57.559,270.196 57.628 C 282.347 57.901,287.694 55.220,287.661 48.873 C 287.642 45.321,285.894 43.017,282.583 42.182 C 281.497 41.908,271.711 41.539,271.083 41.749 M150.848 58.465 C 152.757 60.170,151.804 65.512,149.594 65.495 C 148.575 65.487,148.053 64.944,147.587 63.407 C 146.617 60.209,148.911 56.734,150.848 58.465 M95.506 88.458 C 95.387 88.710,95.149 89.189,94.978 89.523 C 94.807 89.856,94.667 90.227,94.667 90.347 C 94.667 90.467,94.471 90.769,94.232 91.019 C 93.791 91.479,93.810 91.833,94.276 91.833 C 94.417 91.833,94.754 91.992,95.026 92.185 C 95.297 92.378,95.538 92.509,95.560 92.477 C 95.582 92.444,95.727 91.999,95.882 91.490 C 96.037 90.980,96.426 90.193,96.747 89.742 L 97.330 88.922 96.759 88.629 C 96.445 88.468,96.141 88.261,96.084 88.168 C 95.911 87.888,95.734 87.977,95.506 88.458 " stroke="none" fill="#becd48" fill-rule="evenodd"></path></g></svg>