<svg id="svg" version="1.1" width="400" height="378.55822550831795" viewBox="0 0 400 378.55822550831795" xmlns="http://www.w3.org/2000/svg" xmlns:xlink="http://www.w3.org/1999/xlink" ><g id="svgg"><path id="path0" d="M102.195 279.575 L 101.109 280.776 102.311 279.691 C 102.971 279.093,103.512 278.553,103.512 278.489 C 103.512 278.203,103.207 278.455,102.195 279.575 M360.603 295.564 C 360.603 300.444,360.656 302.389,360.720 299.886 C 360.784 297.384,360.784 293.391,360.720 291.014 C 360.655 288.636,360.603 290.684,360.603 295.564 M100.924 306.585 C 100.924 306.649,101.465 307.189,102.126 307.787 L 103.327 308.872 102.241 307.671 C 101.229 306.551,100.924 306.300,100.924 306.585 M137.893 306.585 C 137.893 306.649,138.433 307.189,139.094 307.787 L 140.296 308.872 139.210 307.671 C 138.198 306.551,137.893 306.300,137.893 306.585 M319.409 306.585 C 319.409 306.649,319.949 307.189,320.610 307.787 L 321.811 308.872 320.726 307.671 C 319.714 306.551,319.409 306.300,319.409 306.585 M116.081 343.184 C 116.081 343.248,116.622 343.788,117.283 344.386 L 118.484 345.471 117.398 344.270 C 116.386 343.150,116.081 342.898,116.081 343.184 M160.813 344.362 C 161.503 345.074,162.151 345.656,162.252 345.656 C 162.354 345.656,161.873 345.074,161.183 344.362 C 160.493 343.651,159.846 343.068,159.744 343.068 C 159.642 343.068,160.124 343.651,160.813 344.362 " stroke="none" fill="#000000" fill-rule="evenodd"></path><path id="path1" d="" stroke="none" fill="#595959" fill-rule="evenodd"></path><path id="path2" d="M10.906 156.747 C 11.700 157.560,12.433 158.226,12.535 158.226 C 12.636 158.226,12.070 157.560,11.275 156.747 C 10.481 155.933,9.748 155.268,9.647 155.268 C 9.545 155.268,10.112 155.933,10.906 156.747 M62.107 175.046 C 63.212 176.165,64.198 177.079,64.300 177.079 C 64.402 177.079,63.581 176.165,62.477 175.046 C 61.372 173.928,60.386 173.013,60.284 173.013 C 60.182 173.013,61.003 173.928,62.107 175.046 " stroke="none" fill="#9f9f9f" fill-rule="evenodd"></path><path id="path3" d="M71.904 184.843 C 76.170 189.113,79.744 192.606,79.846 192.606 C 79.947 192.606,76.540 189.113,72.274 184.843 C 68.007 180.573,64.434 177.079,64.332 177.079 C 64.230 177.079,67.638 180.573,71.904 184.843 M49.723 195.194 C 50.930 196.414,52.001 197.412,52.103 197.412 C 52.204 197.412,51.300 196.414,50.092 195.194 C 48.885 193.974,47.814 192.976,47.713 192.976 C 47.611 192.976,48.516 193.974,49.723 195.194 M70.595 215.250 C 71.501 216.215,72.291 217.006,72.351 217.006 C 72.628 217.006,72.335 216.674,70.702 215.142 L 68.946 213.494 70.595 215.250 M106.290 218.392 L 106.954 219.224 103.636 219.224 C 97.190 219.224,93.065 221.987,89.146 228.932 C 87.183 232.412,87.030 232.015,92.055 236.537 C 98.839 242.642,106.253 243.449,110.227 238.515 C 115.474 231.999,115.107 227.214,108.873 220.866 C 107.087 219.048,105.925 217.934,106.290 218.392 " stroke="none" fill="#bfbfbf" fill-rule="evenodd"></path><path id="path4" d="M332.053 261.069 L 324.983 267.055 325.985 268.915 C 327.885 272.440,327.759 272.452,337.106 267.818 C 343.140 264.826,345.270 263.599,345.277 263.112 C 345.302 261.344,340.849 255.083,339.566 255.083 C 339.322 255.083,335.941 257.777,332.053 261.069 M243.634 256.778 C 238.518 258.997,238.171 265.768,243.019 268.813 C 245.832 270.581,250.586 269.005,252.200 265.771 C 254.854 260.454,249.095 254.409,243.634 256.778 M299.896 256.976 C 295.239 259.295,295.214 266.293,299.854 268.853 C 302.645 270.394,307.445 268.927,308.922 266.083 C 311.855 260.433,305.609 254.131,299.896 256.976 M221.442 260.972 L 220.518 261.216 220.423 286.431 L 220.328 311.645 221.901 311.704 C 222.767 311.737,224.473 311.809,225.693 311.864 C 226.913 311.920,228.785 311.870,229.852 311.754 L 231.793 311.543 231.793 286.313 L 231.793 261.082 230.591 260.898 C 228.860 260.633,222.530 260.683,221.442 260.972 M112.015 274.528 C 92.947 278.629,91.344 306.120,109.828 312.025 C 116.162 314.048,125.308 312.634,129.886 308.924 C 130.999 308.021,129.034 304.160,126.191 301.663 L 124.890 300.521 123.351 301.412 C 115.699 305.840,108.788 301.947,108.910 293.277 C 109.017 285.688,114.697 282.047,121.739 285.055 L 124.399 286.191 126.248 284.207 C 128.814 281.453,130.328 278.380,129.463 277.684 C 125.792 274.736,117.785 273.287,112.015 274.528 M149.751 274.339 C 128.712 278.467,127.972 308.173,148.799 312.565 C 164.255 315.825,176.519 303.876,173.344 288.650 C 171.255 278.635,160.649 272.201,149.751 274.339 M189.829 274.452 C 180.091 276.308,177.495 279.729,182.094 284.645 L 183.792 286.461 185.046 285.757 C 190.338 282.785,197.509 282.896,199.867 285.987 C 201.017 287.495,201.563 290.457,200.624 290.096 C 198.216 289.172,189.650 289.569,185.213 290.810 C 174.643 293.765,174.328 308.068,184.751 311.750 C 190.538 313.794,201.906 313.202,210.214 310.425 L 212.754 309.575 212.733 298.503 C 212.706 284.676,212.316 282.707,208.860 278.958 C 205.271 275.064,196.952 273.095,189.829 274.452 M242.097 274.209 L 240.387 274.344 240.322 292.960 L 240.257 311.576 243.326 311.827 C 245.014 311.965,247.144 311.991,248.059 311.885 C 248.974 311.778,250.180 311.681,250.739 311.668 L 251.756 311.645 251.756 293.200 C 251.756 275.985,251.713 274.737,251.109 274.482 C 250.382 274.175,244.710 274.003,242.097 274.209 M275.231 274.171 C 265.346 275.698,259.011 282.644,258.499 292.516 C 257.845 305.109,266.646 313.775,279.298 312.996 C 284.069 312.702,292.052 309.722,292.052 308.235 C 292.052 306.959,288.982 302.530,287.235 301.286 L 286.166 300.525 284.765 301.435 C 277.410 306.213,269.542 301.339,270.366 292.514 C 271.022 285.490,276.901 282.000,283.011 285.008 C 285.728 286.346,285.598 286.378,288.096 283.739 C 288.869 282.923,289.992 281.302,290.593 280.138 L 291.685 278.020 290.112 277.190 C 287.552 275.838,286.425 275.364,284.473 274.820 C 282.498 274.269,277.063 273.888,275.231 274.171 M298.706 274.264 L 297.412 274.492 297.316 293.035 L 297.221 311.578 300.333 311.837 C 302.044 311.980,304.633 311.977,306.085 311.831 L 308.726 311.566 308.663 293.349 C 308.628 283.330,308.467 274.918,308.305 274.655 C 307.982 274.133,301.058 273.851,298.706 274.264 M330.354 274.520 C 317.541 277.389,311.333 291.219,317.445 303.281 C 324.160 316.531,346.713 316.210,353.157 302.773 C 360.821 286.794,347.767 270.620,330.354 274.520 M375.372 274.340 C 370.234 274.940,364.754 276.972,361.977 279.308 L 360.813 280.288 360.813 295.966 L 360.813 311.645 362.200 311.714 C 362.962 311.752,364.168 311.830,364.880 311.887 C 365.591 311.945,367.629 311.896,369.409 311.779 L 372.643 311.567 372.643 298.677 L 372.643 285.788 374.740 285.178 C 377.355 284.418,381.640 284.608,383.074 285.547 C 385.492 287.132,385.662 288.050,385.750 300.000 C 385.847 313.072,385.509 311.539,388.360 311.844 C 389.684 311.986,392.328 311.985,394.234 311.842 L 397.701 311.582 397.743 301.170 C 397.810 284.977,397.242 282.131,393.222 278.518 C 388.789 274.531,383.780 273.359,375.372 274.340 M156.285 284.126 C 165.705 286.047,163.498 303.494,153.832 303.510 C 143.425 303.527,141.830 285.906,152.062 283.944 C 153.553 283.658,154.109 283.682,156.285 284.126 M339.372 284.792 C 345.905 288.069,344.904 301.201,337.974 303.126 C 331.950 304.799,327.313 301.163,326.893 294.437 C 326.373 286.110,332.524 281.356,339.372 284.792 M199.394 297.093 L 201.109 297.328 201.109 300.924 L 201.109 304.521 199.394 304.756 C 192.534 305.696,188.909 304.276,188.909 300.649 C 188.909 297.385,192.541 296.153,199.394 297.093 M245.271 322.685 C 238.468 326.834,242.566 337.012,250.210 334.953 C 254.670 333.753,256.544 328.348,253.765 324.704 C 251.832 322.170,247.719 321.192,245.271 322.685 M64.807 340.270 C 52.503 343.418,46.649 356.585,52.126 368.797 C 56.740 379.085,73.127 382.029,83.315 374.400 C 84.140 373.783,83.707 372.719,81.312 369.476 C 78.991 366.334,78.442 366.135,75.845 367.496 C 68.769 371.205,62.107 367.261,62.107 359.363 C 62.107 351.483,68.383 347.334,75.052 350.805 L 77.368 352.010 79.448 349.790 C 81.451 347.652,83.179 344.978,83.179 344.016 C 83.179 341.481,70.323 338.859,64.807 340.270 M99.076 339.999 C 95.791 340.543,89.315 343.205,88.300 344.429 C 86.847 346.179,91.771 352.614,93.642 351.410 C 98.977 347.977,107.567 348.799,109.283 352.906 C 110.410 355.604,110.313 355.670,105.613 355.402 C 92.560 354.656,85.237 359.248,85.850 367.794 C 86.588 378.067,100.492 381.741,118.072 376.308 L 121.726 375.179 121.518 363.652 C 121.259 349.299,120.808 347.538,116.405 343.687 C 112.998 340.706,105.038 339.012,99.076 339.999 M142.266 340.119 C 138.103 340.822,134.312 342.278,130.961 344.463 L 129.020 345.728 129.020 361.415 C 129.020 375.534,129.080 377.126,129.619 377.332 C 130.517 377.677,137.870 377.678,139.497 377.334 L 140.917 377.034 140.837 369.940 C 140.793 366.039,140.778 360.249,140.804 357.075 L 140.850 351.303 142.976 350.862 C 147.637 349.897,149.478 350.114,151.303 351.841 C 153.147 353.586,153.210 354.009,153.413 365.989 L 153.604 377.264 156.377 377.460 C 157.902 377.568,160.439 377.588,162.015 377.505 L 164.880 377.354 164.880 365.220 C 164.880 357.644,164.724 352.350,164.464 351.127 C 162.660 342.624,153.714 338.188,142.266 340.119 M183.179 340.005 C 179.472 340.514,172.959 343.281,172.050 344.732 C 171.336 345.872,172.283 348.060,174.413 350.190 L 176.223 352.000 178.407 351.083 C 185.928 347.926,192.846 348.937,194.078 353.373 C 194.728 355.711,194.895 355.633,189.741 355.410 C 176.807 354.852,170.001 359.223,170.484 367.776 C 171.065 378.045,184.952 381.730,202.632 376.305 L 206.188 375.214 206.126 363.855 C 206.047 349.245,205.390 346.930,200.206 343.013 C 196.756 340.404,189.540 339.130,183.179 340.005 M223.027 340.489 C 220.277 341.110,217.019 342.486,213.773 344.396 L 212.574 345.102 212.572 361.069 C 212.570 373.296,212.676 377.102,213.023 377.317 C 213.608 377.678,223.740 377.672,224.326 377.310 C 224.657 377.105,224.769 373.724,224.769 363.965 L 224.769 350.895 227.539 350.635 C 229.063 350.492,231.404 350.445,232.742 350.531 L 235.175 350.685 236.038 349.187 C 237.137 347.279,237.975 344.759,238.284 342.430 L 238.526 340.602 235.920 340.172 C 232.163 339.551,226.570 339.689,223.027 340.489 M243.715 340.009 L 242.514 340.158 242.514 358.594 C 242.514 376.889,242.520 377.031,243.276 377.272 C 244.237 377.576,253.111 377.569,253.607 377.263 C 254.302 376.833,254.089 340.234,253.389 339.966 C 252.768 339.727,245.733 339.758,243.715 340.009 M271.534 340.274 C 267.493 341.113,262.423 343.663,261.855 345.143 C 261.561 345.910,262.418 347.831,263.858 349.631 C 265.666 351.891,266.060 352.019,268.215 351.042 C 274.886 348.016,281.540 348.929,283.001 353.069 C 283.893 355.597,284.127 355.490,277.726 355.470 C 265.916 355.435,260.301 359.337,260.706 367.298 C 261.256 378.098,274.056 381.834,291.714 376.348 L 295.274 375.242 295.286 366.641 C 295.307 351.422,294.714 348.370,290.998 344.575 C 286.970 340.463,279.053 338.713,271.534 340.274 M108.595 362.882 L 109.797 363.124 109.797 366.568 C 109.797 370.596,110.019 370.366,105.855 370.656 C 100.398 371.035,97.597 369.678,97.597 366.654 C 97.597 362.869,101.643 361.482,108.595 362.882 M193.402 362.913 L 194.455 363.124 194.455 366.568 C 194.455 370.596,194.677 370.366,190.513 370.656 C 184.938 371.044,182.255 369.716,182.255 366.572 C 182.255 362.915,186.479 361.529,193.402 362.913 M282.496 362.913 L 283.549 363.124 283.549 366.568 C 283.549 370.625,283.786 370.402,279.217 370.656 C 274.676 370.908,272.583 370.079,271.815 367.725 C 270.427 363.474,275.000 361.414,282.496 362.913 " stroke="none" fill="#181517" fill-rule="evenodd"></path><path id="path5" d="" stroke="none" fill="#302f2f" fill-rule="evenodd"></path><path id="path6" d="" stroke="none" fill="#334c7f" fill-rule="evenodd"></path><path id="path7" d="" stroke="none" fill="#0055aa" fill-rule="evenodd"></path><path id="path8" d="M149.829 137.807 C 146.187 143.909,145.647 147.246,147.644 151.326 C 153.350 162.988,169.845 158.943,169.254 146.026 C 168.921 138.771,163.436 134.550,154.368 134.572 L 151.756 134.578 149.829 137.807 " stroke="none" fill="#486ca1" fill-rule="evenodd"></path><path id="path9" d="" stroke="none" fill="#007f7f" fill-rule="evenodd"></path><path id="path10" d="" stroke="none" fill="#489100" fill-rule="evenodd"></path><path id="path11" d="" stroke="none" fill="#7f7f00" fill-rule="evenodd"></path><path id="path12" d="" stroke="none" fill="#7088ad" fill-rule="evenodd"></path><path id="path13" d="M247.591 0.387 C 243.724 1.341,241.555 3.470,235.932 11.830 C 232.139 17.468,223.131 30.755,216.758 40.111 C 214.681 43.161,211.238 48.235,209.109 51.386 C 206.979 54.538,203.593 59.529,201.584 62.477 C 199.576 65.425,195.452 71.497,192.420 75.970 C 189.388 80.444,185.206 86.599,183.125 89.649 C 181.045 92.699,177.100 98.521,174.360 102.588 C 171.619 106.654,167.678 112.477,165.601 115.527 C 163.525 118.577,159.762 124.108,157.240 127.819 L 152.655 134.566 155.237 134.566 C 164.117 134.566,169.525 139.007,170.036 146.717 L 170.240 149.811 175.951 141.542 C 185.080 128.322,185.901 127.118,206.658 96.488 C 219.828 77.052,227.902 65.209,231.608 59.889 C 236.061 53.496,237.053 52.126,237.225 52.126 C 237.332 52.126,237.314 55.661,237.185 59.982 C 237.055 64.302,236.784 73.993,236.582 81.516 C 236.381 89.039,236.056 100.684,235.861 107.394 C 235.666 114.104,235.407 124.750,235.285 131.054 L 235.064 142.514 236.159 140.826 C 239.348 135.913,241.922 134.876,251.479 134.656 L 258.410 134.496 258.439 133.145 C 258.454 132.401,258.514 131.543,258.571 131.238 C 258.628 130.933,258.788 125.360,258.926 118.854 C 259.064 112.348,259.415 98.373,259.705 87.800 C 259.995 77.227,260.325 64.667,260.437 59.889 C 260.550 55.111,260.719 49.787,260.813 48.059 C 261.070 43.341,261.553 21.342,261.548 14.603 C 261.544 8.890,261.509 8.616,260.517 6.587 C 258.286 2.025,252.398 -0.799,247.591 0.387 " stroke="none" fill="#02abd6" fill-rule="evenodd"></path><path id="path14" d="" stroke="none" fill="#56b576" fill-rule="evenodd"></path><path id="path15" d="M245.296 134.977 C 230.338 137.156,231.921 158.213,247.044 158.223 L 249.911 158.226 253.009 155.176 C 256.927 151.318,257.269 149.836,257.659 135.028 C 257.673 134.482,248.943 134.446,245.296 134.977 " stroke="none" fill="#8abc52" fill-rule="evenodd"></path><path id="path16" d="" stroke="none" fill="#d4aa2a" fill-rule="evenodd"></path><path id="path17" d="" stroke="none" fill="#da91da" fill-rule="evenodd"></path><path id="path18" d="M16.266 134.981 C 7.936 136.330,3.140 144.709,6.823 151.477 C 7.754 153.187,37.629 183.360,51.941 197.044 C 70.242 214.543,85.050 229.253,86.138 231.017 C 87.259 232.833,87.352 232.849,87.904 231.325 C 90.554 223.997,96.762 219.230,103.672 219.218 L 107.024 219.212 96.673 209.150 C 71.357 184.541,45.644 158.592,46.211 158.225 C 46.562 157.998,66.321 157.865,100.106 157.861 L 153.447 157.856 151.493 156.270 C 144.837 150.871,144.692 145.035,150.980 135.582 L 151.656 134.566 84.978 134.609 C 47.999 134.633,17.394 134.799,16.266 134.981 " stroke="none" fill="#d8d6d7" fill-rule="evenodd"></path><path id="path19" d="M257.875 135.023 C 257.795 135.280,257.558 138.567,257.349 142.329 C 256.854 151.234,256.778 151.467,253.194 155.002 C 251.590 156.585,250.277 157.925,250.277 157.982 C 250.277 158.038,264.293 158.012,281.423 157.923 C 298.554 157.834,319.525 157.885,328.026 158.037 L 343.483 158.313 341.683 159.525 C 340.693 160.192,331.658 165.524,321.605 171.375 C 304.575 181.286,291.177 189.087,253.050 211.292 C 244.210 216.441,237.187 220.777,236.200 221.696 C 227.029 230.239,235.201 244.785,247.175 241.229 C 248.186 240.929,259.237 234.718,271.734 227.426 C 284.230 220.135,316.824 201.134,344.163 185.202 C 371.503 169.269,394.497 155.669,395.261 154.978 C 401.413 149.421,399.394 138.760,391.594 135.610 L 389.464 134.750 323.743 134.653 C 271.046 134.575,257.992 134.648,257.875 135.023 " stroke="none" fill="#ffd74f" fill-rule="evenodd"></path><path id="path20" d="M13.863 159.704 C 14.657 160.518,15.390 161.183,15.492 161.183 C 15.594 161.183,15.027 160.518,14.233 159.704 C 13.439 158.891,12.706 158.226,12.604 158.226 C 12.502 158.226,13.069 158.891,13.863 159.704 M56.916 169.778 C 57.823 170.744,58.613 171.534,58.672 171.534 C 58.950 171.534,58.656 171.202,57.024 169.670 L 55.268 168.022 56.916 169.778 M84.497 236.137 C 83.155 238.119,80.488 242.070,78.570 244.917 C 76.652 247.763,74.746 250.508,74.333 251.017 C 73.921 251.525,73.580 252.135,73.576 252.372 C 73.571 252.609,73.440 252.859,73.285 252.927 C 73.130 252.994,71.521 255.296,69.710 258.041 C 67.899 260.786,66.279 263.087,66.111 263.155 C 65.942 263.222,65.804 263.500,65.804 263.771 C 65.804 264.042,65.667 264.319,65.499 264.387 C 65.263 264.483,58.690 274.127,56.747 277.229 C 56.543 277.553,56.281 277.902,56.163 278.004 C 56.045 278.105,54.149 280.933,51.949 284.288 C 49.749 287.643,47.807 290.444,47.634 290.511 C 47.461 290.579,47.320 290.856,47.320 291.128 C 47.320 291.399,47.183 291.676,47.015 291.744 C 46.848 291.811,44.916 294.598,42.722 297.935 C 40.528 301.273,38.445 304.311,38.095 304.688 C 37.744 305.065,37.222 305.828,36.936 306.383 C 36.650 306.939,36.322 307.477,36.207 307.579 C 36.093 307.680,35.033 309.261,33.853 311.091 C 32.673 312.921,30.894 315.519,29.901 316.866 C 28.909 318.212,28.096 319.488,28.096 319.700 C 28.096 319.913,27.964 320.142,27.804 320.209 C 27.643 320.277,26.374 322.079,24.984 324.214 C 23.593 326.349,22.341 328.179,22.201 328.281 C 22.003 328.425,16.170 337.019,14.233 340.022 C 14.030 340.337,11.659 343.917,8.965 347.976 C 6.271 352.036,4.067 355.446,4.067 355.555 C 4.067 355.664,3.651 356.298,3.142 356.964 C 2.634 357.631,2.218 358.340,2.218 358.540 C 2.218 358.740,2.088 358.959,1.929 359.026 C 0.133 359.791,-0.796 367.318,0.622 369.606 C 3.040 373.504,7.319 376.167,11.091 376.121 C 15.819 376.064,18.417 374.125,22.717 367.444 C 23.690 365.932,25.298 363.593,26.291 362.247 C 27.284 360.900,28.096 359.625,28.096 359.413 C 28.096 359.200,28.234 358.971,28.403 358.903 C 28.572 358.835,30.004 356.784,31.587 354.344 C 33.169 351.904,35.276 348.806,36.270 347.459 C 37.264 346.113,38.078 344.824,38.078 344.594 C 38.078 344.365,38.244 344.177,38.447 344.177 C 38.651 344.177,38.817 344.013,38.817 343.812 C 38.817 343.611,39.057 343.154,39.350 342.795 C 39.942 342.071,44.373 335.499,50.879 325.693 C 53.240 322.135,55.983 318.122,56.976 316.775 C 57.968 315.429,58.780 314.140,58.780 313.910 C 58.780 313.681,58.946 313.494,59.150 313.494 C 59.353 313.494,59.519 313.329,59.519 313.128 C 59.519 312.927,59.757 312.470,60.047 312.111 C 60.338 311.753,62.029 309.298,63.806 306.654 C 65.583 304.011,68.994 298.937,71.386 295.379 C 73.778 291.821,76.075 288.494,76.491 287.985 C 76.907 287.477,77.252 286.867,77.256 286.630 C 77.261 286.392,77.396 286.143,77.557 286.075 C 77.718 286.007,78.983 284.205,80.369 282.070 C 81.756 279.935,83.537 277.341,84.328 276.306 C 85.120 275.271,85.767 274.245,85.767 274.026 C 85.767 273.808,85.899 273.574,86.060 273.506 C 86.221 273.438,87.486 271.636,88.872 269.501 C 90.258 267.366,92.040 264.772,92.831 263.737 C 93.622 262.701,94.270 261.675,94.270 261.457 C 94.270 261.238,94.410 261.004,94.581 260.937 C 94.752 260.869,96.017 259.067,97.392 256.932 C 98.767 254.797,100.540 252.203,101.332 251.167 C 102.124 250.132,102.773 249.106,102.773 248.888 C 102.773 248.669,102.916 248.435,103.092 248.367 C 103.416 248.242,107.948 241.316,107.948 240.946 C 107.948 240.835,107.241 240.905,106.377 241.102 C 100.378 242.470,96.914 241.298,91.368 236.025 C 86.906 231.782,87.452 231.773,84.497 236.137 M200.825 302.773 C 200.825 303.484,200.901 303.775,200.994 303.420 C 201.087 303.064,201.087 302.482,200.994 302.126 C 200.901 301.770,200.825 302.061,200.825 302.773 M283.265 365.989 C 283.265 366.701,283.341 366.992,283.434 366.636 C 283.527 366.280,283.527 365.698,283.434 365.342 C 283.341 364.986,283.265 365.277,283.265 365.989 M194.171 366.728 C 194.171 367.440,194.247 367.731,194.340 367.375 C 194.433 367.019,194.433 366.437,194.340 366.081 C 194.247 365.726,194.171 366.017,194.171 366.728 " stroke="none" fill="#eeeced" fill-rule="evenodd"></path></g></svg>