<?xml version="1.0" encoding="utf-8"?>
<svg version="1.1" id="symbol_logo" xmlns="http://www.w3.org/2000/svg" xmlns:xlink="http://www.w3.org/1999/xlink" x="0px"
	 y="0px" viewBox="0 0 525.8 91.3" enable-background="new 0 0 525.8 91.3" xml:space="preserve">
<g id="isotype">
	<path fill="#FFFFFF" d="M91.2,0H4.5C2,0,0,1.9,0,4.3V87c0,2.3,2,4.3,4.5,4.3h86.7c2.5,0,4.5-1.9,4.5-4.3V4.3
		C95.6,1.9,93.6,0,91.2,0z"/>
	<linearGradient id="taronja" gradientUnits="userSpaceOnUse" x1="47.8172" y1="-0.4721" x2="47.8172" y2="91.8231">
		<stop  offset="0" style="stop-color:#E28226"/>
		<stop  offset="1" style="stop-color:#D44127"/>
	</linearGradient>
	<path fill="url(#taronja)" d="M91.2,0H4.5C2,0,0,1.9,0,4.3V87c0,2.3,2,4.3,4.5,4.3h86.7c2.5,0,4.5-1.9,4.5-4.3V4.3
		C95.6,1.9,93.6,0,91.2,0z M55.4,24.9h10v9.5h-10V24.9z M23.6,25.3c1.7,3.5,3.8,4.4,7.3,4.4v-4.7h10v9.5h-9.2c-5.8,0-9.5-1.4-12-7
		L23.6,25.3z M48.4,69.1c-12.6,0-23-3.9-32.1-11.5l3.5-4.5c9.1,6.4,16.5,9.4,28.6,9.4c12.1,0,19.5-3,28.6-9.4l3.5,4.5
		C71.3,65.1,61,69.1,48.4,69.1z"/>
</g>
<g id="logotype">
	<path fill="#2F2E30" d="M156.3,53.3c-0.1,1.8-0.5,3.5-1,5.2c-0.6,1.7-1.4,3.2-2.4,4.6c-1.6,2-3.7,3.6-6.3,5
		c-2.6,1.4-5.7,2.1-9.1,2.1c-3.5,0-6.6-0.7-9.3-2.1c-2.7-1.4-4.9-3.1-6.4-5c-1.7-2.1-2.9-4.6-3.7-7.4c-0.8-2.8-1.2-5.8-1.2-9.1
		c0-3.3,0.4-6.3,1.2-9.1c0.8-2.8,2.1-5.2,3.7-7.4c1.6-1.9,3.7-3.6,6.4-5c2.7-1.4,5.8-2.1,9.3-2.1c3.5,0,6.5,0.7,9.1,2.1
		c2.6,1.4,4.7,3.1,6.3,5c1,1.3,1.8,2.9,2.4,4.5c0.6,1.7,0.9,3.5,1,5.2h-10.7c-0.1-0.8-0.2-1.5-0.4-2.2c-0.2-0.7-0.5-1.3-0.9-1.9
		c-0.6-1-1.5-1.8-2.7-2.4c-1.2-0.6-2.6-0.9-4.2-0.9c-1.5,0-2.8,0.3-3.9,0.8c-1.1,0.5-2,1.2-2.7,2c-1.3,1.4-2.2,3.2-2.5,5.2
		c-0.3,2-0.5,4.1-0.5,6.2c0,2.1,0.2,4.2,0.5,6.2c0.4,2,1.2,3.7,2.5,5.1c0.7,0.8,1.7,1.5,2.7,2c1.1,0.5,2.4,0.8,3.9,0.8
		c1.7,0,3.1-0.3,4.2-0.9c1.2-0.6,2-1.4,2.7-2.4c0.3-0.6,0.6-1.2,0.9-1.9c0.2-0.7,0.4-1.4,0.4-2.2H156.3z"/>
	<path fill="#2F2E30" d="M200.3,46.7c0,3.8-0.5,7-1.4,9.6c-0.9,2.6-2.2,4.9-3.9,7.1c-1.6,1.9-3.7,3.6-6.4,4.9
		c-2.8,1.4-5.9,2.1-9.3,2.1c-3.5,0-6.6-0.7-9.3-2.1c-2.7-1.4-4.9-3-6.4-4.9c-1.7-2.1-3-4.5-3.9-7.1c-0.9-2.6-1.4-5.8-1.4-9.6
		c0-3.8,0.5-7,1.4-9.6c0.9-2.6,2.2-4.9,3.9-7.1c1.6-1.9,3.7-3.5,6.4-4.9c2.7-1.4,5.8-2.1,9.3-2.1c3.5,0,6.6,0.7,9.3,2.1
		c2.7,1.4,4.9,3,6.4,4.9c1.7,2.1,3,4.5,3.9,7.1C199.9,39.7,200.3,42.9,200.3,46.7z M189.3,46.7c0-2.1-0.2-4.2-0.6-6.2
		c-0.4-2-1.3-3.7-2.6-5.2c-0.8-0.8-1.7-1.5-2.9-2c-1.2-0.5-2.5-0.8-4-0.8c-1.5,0-2.8,0.3-4,0.8c-1.2,0.6-2.1,1.2-2.9,2
		c-1.3,1.4-2.2,3.2-2.6,5.2c-0.4,2-0.6,4.1-0.6,6.2c0,2.1,0.2,4.2,0.6,6.2c0.4,2,1.3,3.7,2.6,5.1c0.8,0.8,1.7,1.5,2.9,2
		c1.2,0.5,2.5,0.8,4,0.8c1.5,0,2.8-0.3,4-0.8c1.2-0.5,2.1-1.2,2.9-2c1.3-1.4,2.2-3.2,2.6-5.1C189.1,50.9,189.3,48.9,189.3,46.7z"/>
	<path fill="#2F2E30" d="M259.3,69.2v-28c0-2.8-0.5-4.9-1.4-6.5c-0.9-1.5-2.8-2.3-5.5-2.3c-1.6,0-2.9,0.4-4,1.1
		c-1.1,0.7-2,1.7-2.7,2.9c-0.7,1.2-1.3,2.5-1.6,3.9c-0.3,1.5-0.5,2.9-0.5,4.2v24.6h-10.7v-28c0-2.8-0.5-4.9-1.4-6.5
		c-0.9-1.5-2.8-2.3-5.5-2.3c-1.6,0-2.9,0.4-4,1.1c-1.1,0.7-2,1.7-2.8,2.9c-0.8,1.2-1.3,2.5-1.6,3.9c-0.4,1.5-0.5,2.9-0.5,4.2v24.6
		h-10.7V24.2h9l0.9,6c1.3-2.1,3-3.8,5.1-5.1c2.1-1.3,4.7-2,7.7-2c3.2,0,5.8,0.6,8,2c2.1,1.3,3.8,3.1,4.9,5.4
		c1.3-2.4,3.2-4.2,5.5-5.4c2.3-1.3,5-1.9,8.1-1.9c4.9,0,8.5,1.5,11,4.4c2.5,2.9,3.7,6.7,3.7,11.4v30.4H259.3z"/>
	<path fill="#2F2E30" d="M319.9,46.6c0,9-2.7,15.7-8.1,20.1c-1.4,1.2-3,2-4.8,2.7c-1.8,0.6-3.9,0.9-6.2,0.9c-2.7,0-5.1-0.4-7.2-1.2
		c-2-0.8-3.6-1.9-4.6-3.2v20.5h-10.8V24.2h9.4l0.7,4.9c1.3-2.1,3.2-3.6,5.5-4.6c2.3-1,4.7-1.4,7.2-1.4c2.3,0,4.3,0.3,6.1,1
		c1.8,0.7,3.4,1.6,4.8,2.8c2.7,2.2,4.7,4.9,6.1,8.3C319.2,38.6,319.9,42.4,319.9,46.6z M308.9,46.8c0-2-0.2-3.9-0.6-5.8
		c-0.4-1.9-1.1-3.7-2.3-5.2c-0.8-1-1.8-1.8-3-2.5c-1.2-0.7-2.6-1-4.3-1c-2.1,0-3.9,0.4-5.2,1.3c-1.3,0.9-2.4,2.1-3.1,3.5
		c-0.7,1.4-1.3,3-1.5,4.7c-0.3,1.7-0.4,3.4-0.4,5c0,1.6,0.1,3.3,0.4,5c0.3,1.7,0.8,3.3,1.5,4.7c0.8,1.4,1.8,2.6,3.1,3.5
		c1.3,0.9,3.1,1.3,5.2,1.3c1.7,0,3.1-0.4,4.3-1c1.2-0.7,2.2-1.5,3-2.5c1.2-1.5,1.9-3.2,2.3-5.1C308.7,50.7,308.9,48.8,308.9,46.8z"
		/>
	<path fill="#2F2E30" d="M352,34.2c-1.3-0.3-2.6-0.4-3.7-0.4c-3.8,0-6.7,1.2-8.7,3.6c-2,2.4-2.9,5.5-2.9,9.1v22.8h-11V24.2h9.3
		l1,6.7c1-2.6,2.8-4.4,5.2-5.6c2.4-1.1,4.9-1.7,7.6-1.7c1.1,0,2.3,0.1,3.4,0.3V34.2z"/>
	<path fill="#2F2E30" d="M392.8,46.7c0,3.8-0.5,7-1.4,9.6c-0.9,2.6-2.2,4.9-3.9,7.1c-1.6,1.9-3.7,3.6-6.4,4.9
		c-2.7,1.4-5.9,2.1-9.3,2.1c-3.5,0-6.6-0.7-9.3-2.1c-2.7-1.4-4.9-3-6.5-4.9c-1.7-2.1-3-4.5-3.9-7.1c-0.9-2.6-1.4-5.8-1.4-9.6
		c0-3.8,0.5-7,1.4-9.6c0.9-2.6,2.2-4.9,3.9-7.1c1.6-1.9,3.7-3.5,6.5-4.9c2.7-1.4,5.8-2.1,9.3-2.1c3.5,0,6.6,0.7,9.3,2.1
		c2.7,1.4,4.9,3,6.4,4.9c1.7,2.1,3,4.5,3.9,7.1C392.3,39.7,392.8,42.9,392.8,46.7z M381.8,46.7c0-2.1-0.2-4.2-0.6-6.2
		c-0.4-2-1.3-3.7-2.6-5.2c-0.7-0.8-1.7-1.5-2.9-2c-1.2-0.5-2.5-0.8-4-0.8c-1.5,0-2.8,0.3-4,0.8c-1.2,0.6-2.1,1.2-2.9,2
		c-1.3,1.4-2.2,3.2-2.6,5.2c-0.4,2-0.6,4.1-0.6,6.2c0,2.1,0.2,4.2,0.6,6.2c0.4,2,1.3,3.7,2.6,5.1c0.8,0.8,1.7,1.5,2.9,2
		c1.2,0.5,2.5,0.8,4,0.8c1.5,0,2.8-0.3,4-0.8c1.2-0.5,2.1-1.2,2.9-2c1.3-1.4,2.2-3.2,2.6-5.1C381.6,50.9,381.8,48.9,381.8,46.7z"/>
	<path fill="#2F2E30" d="M451.7,69.2v-28c0-2.8-0.5-4.9-1.4-6.5c-1-1.5-2.8-2.3-5.5-2.3c-1.6,0-2.9,0.4-4,1.1
		c-1.1,0.7-2,1.7-2.7,2.9c-0.7,1.2-1.3,2.5-1.6,3.9c-0.3,1.5-0.5,2.9-0.5,4.2v24.6h-10.7v-28c0-2.8-0.5-4.9-1.4-6.5
		c-1-1.5-2.8-2.3-5.5-2.3c-1.6,0-2.9,0.4-4,1.1c-1.1,0.7-2,1.7-2.8,2.9c-0.7,1.2-1.3,2.5-1.6,3.9c-0.4,1.5-0.5,2.9-0.5,4.2v24.6
		h-10.7V24.2h9l0.9,6c1.3-2.1,3-3.8,5.1-5.1c2.1-1.3,4.7-2,7.7-2c3.2,0,5.8,0.6,8,2c2.1,1.3,3.8,3.1,4.9,5.4
		c1.3-2.4,3.2-4.2,5.5-5.4c2.3-1.3,5-1.9,8.1-1.9c4.9,0,8.5,1.5,11,4.4c2.5,2.9,3.7,6.7,3.7,11.4v30.4H451.7z"/>
	<path fill="#2F2E30" d="M469.1,20l-3.1-5.2l14.2-11l4.3,7.3L469.1,20z M470.8,69.2V24.2h11v45.1H470.8z"/>
	<path fill="#2F2E30" d="M525.8,55.3c0,2.2-0.4,4.1-1.1,5.7c-0.7,1.6-1.7,3-2.8,4.2c-1.9,1.9-4.1,3.2-6.8,4
		c-2.7,0.8-5.5,1.2-8.7,1.2c-2.9,0-5.6-0.4-8.1-1.2c-2.5-0.8-4.7-2.1-6.5-3.9c-1.3-1.3-2.5-2.8-3.4-4.6c-0.9-1.8-1.4-3.7-1.4-5.9
		h10.1c0,1,0.2,2,0.7,2.9c0.5,1,1,1.8,1.7,2.3c0.9,0.7,1.8,1.2,2.9,1.5c1.1,0.3,2.4,0.5,3.9,0.5c0.9,0,1.9-0.1,3-0.2
		c1.1-0.1,2.1-0.4,3-0.8c0.9-0.4,1.7-1,2.3-1.7c0.6-0.8,0.9-1.7,0.9-2.9c0-1.3-0.4-2.4-1.2-3.2c-0.8-0.8-1.9-1.3-3.3-1.6
		c-2-0.3-4.1-0.5-6.2-0.7c-2.1-0.2-4.2-0.5-6.2-1c-1.6-0.3-3-0.9-4.2-1.7c-1.2-0.7-2.3-1.7-3.3-2.7c-0.9-1.1-1.6-2.2-2.1-3.6
		c-0.5-1.3-0.7-2.7-0.7-4.1c0-2.3,0.4-4.3,1.3-5.9c0.9-1.6,2-3.1,3.3-4.2c1.7-1.4,3.7-2.6,6-3.3c2.3-0.8,4.9-1.2,7.7-1.2
		c2.7,0,5.3,0.4,7.8,1.3c2.5,0.9,4.6,2.2,6.3,4c1.2,1.3,2.2,2.8,2.9,4.4c0.7,1.6,1.1,3.2,1.1,4.9h-10.3c0-0.9-0.2-1.6-0.5-2.3
		c-0.3-0.7-0.8-1.3-1.3-1.9c-0.6-0.6-1.5-1.1-2.6-1.5c-1.1-0.4-2.2-0.6-3.3-0.6c-0.8,0-1.6,0-2.3,0.1c-0.8,0-1.5,0.3-2.3,0.6
		c-1,0.4-1.8,1-2.5,1.8c-0.7,0.8-1,1.8-1,2.9c0,1.6,0.6,2.7,1.7,3.3c1.1,0.6,2.3,1,3.5,1.2c1,0.1,1.9,0.2,2.6,0.3
		c0.7,0.1,1.4,0.2,2.1,0.3c0.7,0.1,1.4,0.2,2.2,0.3c0.8,0.1,1.7,0.3,2.8,0.4c3.6,0.6,6.5,1.9,8.8,4.1
		C524.7,48.8,525.8,51.7,525.8,55.3z"/>
</g>
</svg>
