<?xml version="1.0" encoding="UTF-8"?>
<svg xmlns="http://www.w3.org/2000/svg" xmlns:xlink="http://www.w3.org/1999/xlink" width="2000pt" height="2004pt" viewBox="0 0 2000 2004" version="1.1">
<g id="surface1">
<path style=" stroke:none;fill-rule:nonzero;fill:rgb(100%,98.823529%,79.215686%);fill-opacity:1;" d="M 0 0 L 1997.972656 0 L 1997.972656 5.070312 L 1992.953125 5.070312 C 1328.652344 5.121094 664.300781 4.917969 0 5.171875 Z M 0 0 "/>
<path style=" stroke:none;fill-rule:nonzero;fill:rgb(100%,94.901961%,0%);fill-opacity:1;" d="M 0 5.171875 C 664.300781 4.917969 1328.652344 5.121094 1992.953125 5.070312 C 1992.75 660.933594 1993.054688 1316.796875 1992.800781 1972.664062 C 1992.953125 1980.875 1993.609375 1989.140625 1995.132812 1997.253906 C 1707.046875 1998.777344 1418.964844 1997.507812 1130.882812 1997.914062 C 753.90625 1997.710938 376.976562 1998.320312 0 1997.609375 L 0 5.171875 M 672.515625 1048.195312 C 622.464844 1097.585938 599.441406 1168.578125 595.992188 1237.589844 C 593.40625 1285.054688 599.644531 1335.511719 626.976562 1375.621094 C 650.761719 1411.523438 690.820312 1434.644531 732.910156 1441.542969 C 790.667969 1451.53125 855.222656 1442.351562 900.964844 1403.359375 C 941.125 1369.636719 961.257812 1318.675781 970.941406 1268.371094 C 931.289062 1268.371094 891.632812 1268.371094 852.027344 1268.421875 C 845.890625 1289.921875 838.4375 1312.84375 820.4375 1327.496094 C 796.90625 1347.019531 756.136719 1347.121094 737.476562 1320.804688 C 718.660156 1293.777344 717.445312 1259.042969 718.660156 1227.246094 C 721.09375 1189.164062 728.601562 1148.699219 753.753906 1118.578125 C 774.238281 1093.578125 812.828125 1085.71875 841.328125 1100.933594 C 861.359375 1112.542969 867.191406 1137.035156 868.253906 1158.585938 C 907.808594 1158.4375 947.414062 1158.585938 986.96875 1158.488281 C 985.75 1120.101562 977.941406 1080.140625 954.007812 1049.058594 C 929.058594 1014.929688 887.929688 996.117188 846.753906 991.199219 C 784.179688 983.085938 717.140625 1002.710938 672.515625 1048.195312 M 1619.320312 996.269531 C 1589.65625 1005.804688 1567.800781 1029.382812 1550.050781 1053.925781 C 1552.789062 1036.480469 1555.933594 1019.089844 1558.824219 1001.695312 C 1519.117188 1001.644531 1479.460938 1001.644531 1439.757812 1001.695312 C 1403.753906 1200.523438 1367.800781 1399.453125 1331.847656 1598.332031 C 1372.769531 1598.332031 1413.691406 1598.332031 1454.613281 1598.332031 C 1467.75 1524.09375 1480.882812 1449.859375 1494.117188 1375.621094 C 1508.0625 1405.792969 1532.605469 1433.175781 1566.175781 1440.628906 C 1622.3125 1455.636719 1684.128906 1434.898438 1722.515625 1392.050781 C 1775.304688 1334.089844 1796.09375 1253.464844 1797.007812 1176.640625 C 1796.703125 1123.144531 1786.816406 1064.980469 1749.035156 1024.464844 C 1716.632812 989.628906 1663.234375 981.664062 1619.320312 996.269531 M 202.433594 1001.289062 C 232.351562 1031.511719 262.476562 1061.582031 292.34375 1091.855469 C 297.261719 1095.8125 301.722656 1102.503906 309.027344 1101.289062 C 401.875 1101.539062 494.777344 1101.339844 587.675781 1101.339844 C 605.984375 1062.648438 631.644531 1027.050781 666.125 1001.136719 C 511.5625 1001.542969 356.996094 1001.238281 202.433594 1001.289062 M 1034.9375 1001.695312 C 1019.21875 1087.191406 1003.347656 1172.632812 987.574219 1258.128906 C 981.996094 1289.71875 976.21875 1322.222656 981.59375 1354.324219 C 986.714844 1385.457031 1003.753906 1416.035156 1032.148438 1431.449219 C 1066.683594 1449.605469 1109.332031 1449.148438 1145.234375 1435.050781 C 1175.914062 1423.945312 1198.429688 1398.996094 1215.769531 1372.324219 C 1212.121094 1392.40625 1208.417969 1412.535156 1204.714844 1432.667969 C 1243.914062 1432.71875 1283.164062 1432.667969 1322.414062 1432.71875 C 1348.882812 1289.011719 1375.355469 1145.351562 1401.824219 1001.644531 C 1360.902344 1001.695312 1319.980469 1001.59375 1279.058594 1001.695312 C 1264.453125 1080.394531 1249.796875 1159.042969 1235.191406 1237.742188 C 1230.273438 1262.84375 1223.882812 1288.859375 1208.214844 1309.597656 C 1192.445312 1330.894531 1163.894531 1341.746094 1138.03125 1335.761719 C 1121.296875 1331.859375 1110.953125 1314.972656 1110.496094 1298.542969 C 1109.128906 1272.933594 1114.046875 1247.582031 1118.40625 1222.480469 C 1131.542969 1148.902344 1144.625 1075.273438 1157.757812 1001.644531 C 1116.835938 1001.695312 1075.863281 1001.59375 1034.9375 1001.695312 M 281.339844 1153.667969 C 270.992188 1185.363281 261.003906 1217.207031 250.558594 1248.847656 C 217.800781 1248.695312 184.988281 1248.898438 152.230469 1248.695312 C 178.90625 1268.320312 205.527344 1288.046875 231.898438 1308.027344 C 221.804688 1339.921875 211.410156 1371.714844 201.320312 1403.5625 C 228.09375 1383.9375 254.410156 1363.652344 281.644531 1344.585938 C 308.113281 1364.3125 334.9375 1383.683594 361.257812 1403.710938 C 351.21875 1371.714844 340.769531 1339.921875 330.679688 1307.976562 C 357.097656 1288.046875 383.773438 1268.320312 410.445312 1248.746094 C 377.636719 1248.847656 344.878906 1248.695312 312.070312 1248.847656 C 301.519531 1217.207031 291.785156 1185.3125 281.339844 1153.667969 M 369.015625 1167.257812 C 401.875 1200.675781 434.988281 1233.839844 467.699219 1267.359375 C 497.058594 1267.410156 526.371094 1267.359375 555.730469 1267.359375 C 555.476562 1233.789062 557.808594 1200.167969 565.0625 1167.359375 C 499.695312 1167.207031 434.382812 1167.410156 369.015625 1167.257812 M 468.660156 1334.648438 C 435.851562 1368.21875 402.078125 1400.824219 369.269531 1434.339844 C 454.96875 1434.542969 540.667969 1434.136719 626.371094 1434.542969 C 595.742188 1408.683594 575.558594 1372.78125 565.011719 1334.394531 C 532.910156 1334.292969 500.761719 1333.988281 468.660156 1334.648438 M 295.4375 1507.410156 C 264.453125 1538.546875 233.46875 1569.683594 202.636719 1600.917969 C 565.3125 1601.121094 927.992188 1601.019531 1290.667969 1601.019531 C 1296.855469 1567.652344 1303.144531 1534.335938 1309.332031 1501.023438 C 977.585938 1500.871094 645.792969 1501.074219 313.996094 1500.921875 C 307.148438 1500.667969 299.847656 1501.429688 295.4375 1507.410156 Z M 295.4375 1507.410156 "/>
<path style=" stroke:none;fill-rule:nonzero;fill:rgb(100%,94.901961%,0%);fill-opacity:1;" d="M 1584.230469 1103.011719 C 1608.011719 1092.972656 1639.808594 1095.914062 1656.796875 1117.058594 C 1671.042969 1135.210938 1673.882812 1159.347656 1674.238281 1181.660156 C 1673.882812 1220.148438 1667.292969 1259.597656 1648.328125 1293.523438 C 1636.664062 1314.3125 1617.191406 1332.773438 1592.75 1336.21875 C 1570.386719 1340.582031 1544.625 1332.316406 1532.808594 1311.929688 C 1512.625 1278.058594 1517.597656 1236.222656 1524.390625 1199.257812 C 1532.65625 1162.289062 1547.769531 1120.605469 1584.230469 1103.011719 Z M 1584.230469 1103.011719 "/>
<path style=" stroke:none;fill-rule:nonzero;fill:rgb(100%,96.078431%,23.137255%);fill-opacity:1;" d="M 1992.953125 5.070312 L 1997.972656 5.070312 L 1997.972656 2002.984375 L 1995.132812 1997.253906 C 1993.609375 1989.140625 1992.953125 1980.875 1992.800781 1972.664062 C 1993.054688 1316.796875 1992.75 660.933594 1992.953125 5.070312 Z M 1992.953125 5.070312 "/>
<path style=" stroke:none;fill-rule:nonzero;fill:rgb(0%,0%,0%);fill-opacity:1;" d="M 672.515625 1048.195312 C 717.140625 1002.710938 784.179688 983.085938 846.753906 991.199219 C 887.929688 996.117188 929.058594 1014.929688 954.007812 1049.058594 C 977.941406 1080.140625 985.75 1120.101562 986.96875 1158.488281 C 947.414062 1158.585938 907.808594 1158.4375 868.253906 1158.585938 C 867.191406 1137.035156 861.359375 1112.542969 841.328125 1100.933594 C 812.828125 1085.71875 774.238281 1093.578125 753.753906 1118.578125 C 728.601562 1148.699219 721.09375 1189.164062 718.660156 1227.246094 C 717.445312 1259.042969 718.660156 1293.777344 737.476562 1320.804688 C 756.136719 1347.121094 796.90625 1347.019531 820.4375 1327.496094 C 838.4375 1312.84375 845.890625 1289.921875 852.027344 1268.421875 C 891.632812 1268.371094 931.289062 1268.371094 970.941406 1268.371094 C 961.257812 1318.675781 941.125 1369.636719 900.964844 1403.359375 C 855.222656 1442.351562 790.667969 1451.53125 732.910156 1441.542969 C 690.820312 1434.644531 650.761719 1411.523438 626.976562 1375.621094 C 599.644531 1335.511719 593.40625 1285.054688 595.992188 1237.589844 C 599.441406 1168.578125 622.464844 1097.585938 672.515625 1048.195312 Z M 672.515625 1048.195312 "/>
<path style=" stroke:none;fill-rule:nonzero;fill:rgb(0%,0%,0%);fill-opacity:1;" d="M 1619.320312 996.269531 C 1663.234375 981.664062 1716.632812 989.628906 1749.035156 1024.464844 C 1786.816406 1064.980469 1796.703125 1123.144531 1797.007812 1176.640625 C 1796.09375 1253.464844 1775.304688 1334.089844 1722.515625 1392.050781 C 1684.128906 1434.898438 1622.3125 1455.636719 1566.175781 1440.628906 C 1532.605469 1433.175781 1508.0625 1405.792969 1494.117188 1375.621094 C 1480.882812 1449.859375 1467.75 1524.09375 1454.613281 1598.332031 C 1413.691406 1598.332031 1372.769531 1598.332031 1331.847656 1598.332031 C 1367.800781 1399.453125 1403.753906 1200.523438 1439.757812 1001.695312 C 1479.460938 1001.644531 1519.117188 1001.644531 1558.824219 1001.695312 C 1555.933594 1019.089844 1552.789062 1036.480469 1550.050781 1053.925781 C 1567.800781 1029.382812 1589.65625 1005.804688 1619.320312 996.269531 M 1584.230469 1103.011719 C 1547.769531 1120.605469 1532.65625 1162.289062 1524.390625 1199.257812 C 1517.597656 1236.222656 1512.625 1278.058594 1532.808594 1311.929688 C 1544.625 1332.316406 1570.386719 1340.582031 1592.75 1336.21875 C 1617.191406 1332.773438 1636.664062 1314.3125 1648.328125 1293.523438 C 1667.292969 1259.597656 1673.882812 1220.148438 1674.238281 1181.660156 C 1673.882812 1159.347656 1671.042969 1135.210938 1656.796875 1117.058594 C 1639.808594 1095.914062 1608.011719 1092.972656 1584.230469 1103.011719 Z M 1584.230469 1103.011719 "/>
<path style=" stroke:none;fill-rule:nonzero;fill:rgb(0%,0%,0%);fill-opacity:1;" d="M 1034.9375 1001.695312 C 1075.863281 1001.59375 1116.835938 1001.695312 1157.757812 1001.644531 C 1144.625 1075.273438 1131.542969 1148.902344 1118.40625 1222.480469 C 1114.046875 1247.582031 1109.128906 1272.933594 1110.496094 1298.542969 C 1110.953125 1314.972656 1121.296875 1331.859375 1138.03125 1335.761719 C 1163.894531 1341.746094 1192.445312 1330.894531 1208.214844 1309.597656 C 1223.882812 1288.859375 1230.273438 1262.84375 1235.191406 1237.742188 C 1249.796875 1159.042969 1264.453125 1080.394531 1279.058594 1001.695312 C 1319.980469 1001.59375 1360.902344 1001.695312 1401.824219 1001.644531 C 1375.355469 1145.351562 1348.882812 1289.011719 1322.414062 1432.71875 C 1283.164062 1432.667969 1243.914062 1432.71875 1204.714844 1432.667969 C 1208.417969 1412.535156 1212.121094 1392.40625 1215.769531 1372.324219 C 1198.429688 1398.996094 1175.914062 1423.945312 1145.234375 1435.050781 C 1109.332031 1449.148438 1066.683594 1449.605469 1032.148438 1431.449219 C 1003.753906 1416.035156 986.714844 1385.457031 981.59375 1354.324219 C 976.21875 1322.222656 981.996094 1289.71875 987.574219 1258.128906 C 1003.347656 1172.632812 1019.21875 1087.191406 1034.9375 1001.695312 Z M 1034.9375 1001.695312 "/>
<path style=" stroke:none;fill-rule:nonzero;fill:rgb(70.588235%,7.45098%,11.372549%);fill-opacity:1;" d="M 202.433594 1001.289062 C 356.996094 1001.238281 511.5625 1001.542969 666.125 1001.136719 C 631.644531 1027.050781 605.984375 1062.648438 587.675781 1101.339844 C 494.777344 1101.339844 401.875 1101.539062 309.027344 1101.289062 C 301.722656 1102.503906 297.261719 1095.8125 292.34375 1091.855469 C 262.476562 1061.582031 232.351562 1031.511719 202.433594 1001.289062 Z M 202.433594 1001.289062 "/>
<path style=" stroke:none;fill-rule:nonzero;fill:rgb(70.588235%,7.45098%,11.372549%);fill-opacity:1;" d="M 281.339844 1153.667969 C 291.785156 1185.3125 301.519531 1217.207031 312.070312 1248.847656 C 344.878906 1248.695312 377.636719 1248.847656 410.445312 1248.746094 C 383.773438 1268.320312 357.097656 1288.046875 330.679688 1307.976562 C 340.769531 1339.921875 351.21875 1371.714844 361.257812 1403.710938 C 334.9375 1383.683594 308.113281 1364.3125 281.644531 1344.585938 C 254.410156 1363.652344 228.09375 1383.9375 201.320312 1403.5625 C 211.410156 1371.714844 221.804688 1339.921875 231.898438 1308.027344 C 205.527344 1288.046875 178.90625 1268.320312 152.230469 1248.695312 C 184.988281 1248.898438 217.800781 1248.695312 250.558594 1248.847656 C 261.003906 1217.207031 270.992188 1185.363281 281.339844 1153.667969 Z M 281.339844 1153.667969 "/>
<path style=" stroke:none;fill-rule:nonzero;fill:rgb(70.588235%,7.45098%,11.372549%);fill-opacity:1;" d="M 369.015625 1167.257812 C 434.382812 1167.410156 499.695312 1167.207031 565.0625 1167.359375 C 557.808594 1200.167969 555.476562 1233.789062 555.730469 1267.359375 C 526.371094 1267.359375 497.058594 1267.410156 467.699219 1267.359375 C 434.988281 1233.839844 401.875 1200.675781 369.015625 1167.257812 Z M 369.015625 1167.257812 "/>
<path style=" stroke:none;fill-rule:nonzero;fill:rgb(70.588235%,7.45098%,11.372549%);fill-opacity:1;" d="M 468.660156 1334.648438 C 500.761719 1333.988281 532.910156 1334.292969 565.011719 1334.394531 C 575.558594 1372.78125 595.742188 1408.683594 626.371094 1434.542969 C 540.667969 1434.136719 454.96875 1434.542969 369.269531 1434.339844 C 402.078125 1400.824219 435.851562 1368.21875 468.660156 1334.648438 Z M 468.660156 1334.648438 "/>
<path style=" stroke:none;fill-rule:nonzero;fill:rgb(70.588235%,7.45098%,11.372549%);fill-opacity:1;" d="M 295.4375 1507.410156 C 299.847656 1501.429688 307.148438 1500.667969 313.996094 1500.921875 C 645.792969 1501.074219 977.585938 1500.871094 1309.332031 1501.023438 C 1303.144531 1534.335938 1296.855469 1567.652344 1290.667969 1601.019531 C 927.992188 1601.019531 565.3125 1601.121094 202.636719 1600.917969 C 233.46875 1569.683594 264.453125 1538.546875 295.4375 1507.410156 Z M 295.4375 1507.410156 "/>
<path style=" stroke:none;fill-rule:nonzero;fill:rgb(100%,97.647059%,50.196078%);fill-opacity:1;" d="M 0 1997.609375 C 376.976562 1998.320312 753.90625 1997.710938 1130.882812 1997.914062 C 1418.964844 1997.507812 1707.046875 1998.777344 1995.132812 1997.253906 L 1997.972656 2002.984375 L 0 2002.984375 Z M 0 1997.609375 "/>
</g>
</svg>
