<svg width="16" height="16" viewBox="0 0 16 16" fill="none" xmlns="http://www.w3.org/2000/svg">
<mask id="mask0_20_2671" style="mask-type:luminance" maskUnits="userSpaceOnUse" x="1" y="2" width="14" height="13">
<path d="M14.479 14.321L1.58024 14.321L1.58024 2.08888L14.479 2.08889L14.479 14.321Z" fill="white"/>
</mask>
<g mask="url(#mask0_20_2671)">
<path d="M1.6079 8.55069L2.59294 3.39582C2.73746 2.6395 3.40096 2.09058 4.17048 2.09058L9.6363 2.09058C9.91045 2.09058 10.1736 2.16133 10.4053 2.29413C10.5616 2.38371 10.6575 2.55069 10.6575 2.73093L10.6575 9.03502C10.6575 9.22846 10.5473 9.40562 10.3727 9.48865C10.2034 9.5692 10.042 9.66357 9.88931 9.77167C9.65466 9.9378 9.21794 10.2469 8.95397 10.8026C8.85852 11.0035 8.76207 11.3147 8.72311 12.6886C8.71006 13.1485 8.70706 13.6122 8.714 14.0667C8.71554 14.1643 8.6461 14.2485 8.55011 14.2656C8.54718 14.2662 8.54263 14.2671 8.53676 14.2684C8.14417 14.3509 7.39934 14.4012 6.82287 13.8109C6.3174 13.2931 6.27295 12.5718 6.26917 12.4323C6.26909 12.4305 6.26909 12.4288 6.26909 12.427L6.26909 10.2687L3.02758 10.2687C2.59517 10.2687 2.18915 10.0775 1.91361 9.74405C1.63815 9.41064 1.52665 8.97569 1.6079 8.55069ZM12.0268 9.59096C12.0572 9.59474 12.0881 9.59683 12.1193 9.59683L13.6869 9.59683C14.1209 9.59683 14.4739 9.22692 14.4739 8.77221L14.4739 3.27067C14.4739 2.8378 14.1539 2.48201 13.7488 2.44883C13.7183 2.44505 13.6875 2.44297 13.6562 2.44297L12.0886 2.44297C11.6547 2.44297 11.3017 2.81288 11.3017 3.26758L11.3017 8.76913C11.3017 9.202 11.6217 9.55779 12.0268 9.59096Z" fill="#3E979E"/>
</g>
</svg>
