<svg width="25" height="14" viewBox="0 0 25 14" fill="none" xmlns="http://www.w3.org/2000/svg">
<path d="M3.30158 0.481487C2.46293 -0.237358 1.20033 -0.140234 0.481487 0.698417C-0.237358 1.53707 -0.140234 2.79967 0.698417 3.51851L3.30158 0.481487ZM24.3016 3.51851C25.1402 2.79967 25.2374 1.53707 24.5185 0.698417C23.7997 -0.140234 22.5371 -0.237358 21.6984 0.481487L24.3016 3.51851ZM12.5 11L11.1984 12.5185L12.5 13.6342L13.8016 12.5185L12.5 11ZM0.698417 3.51851L11.1984 12.5185L13.8016 9.48149L3.30158 0.481487L0.698417 3.51851ZM13.8016 12.5185L24.3016 3.51851L21.6984 0.481487L11.1984 9.48149L13.8016 12.5185Z" fill="#3E979E"/>
</svg>
