<svg width="21" height="11" viewBox="0 0 21 11" fill="none" xmlns="http://www.w3.org/2000/svg">
<path d="M2.95356 0.842105C2.31407 0.315467 1.36874 0.406951 0.842105 1.04644C0.315467 1.68593 0.406951 2.63126 1.04644 3.1579L2.95356 0.842105ZM19.9536 3.1579C20.593 2.63126 20.6845 1.68593 20.1579 1.04644C19.6313 0.406951 18.6859 0.315467 18.0464 0.842105L19.9536 3.1579ZM10.5 9L9.54644 10.1579L10.5 10.9432L11.4536 10.1579L10.5 9ZM1.04644 3.1579L9.54644 10.1579L11.4536 7.8421L2.95356 0.842105L1.04644 3.1579ZM11.4536 10.1579L19.9536 3.1579L18.0464 0.842105L9.54644 7.8421L11.4536 10.1579Z" fill="white"/>
</svg>
