<?xml version="1.0" encoding="UTF-8"?>
<svg xmlns="http://www.w3.org/2000/svg" xmlns:xlink="http://www.w3.org/1999/xlink" width="1965pt" height="393pt" viewBox="0 0 1965 393" version="1.1">
<g id="surface1">
<path style=" stroke:none;fill-rule:nonzero;fill:rgb(75.686275%,5.882353%,9.803922%);fill-opacity:1;" d="M 0 389.277344 L 0 292.027344 L 95.179688 195.464844 L 95.179688 389.964844 L 0 389.964844 Z M 189.671875 389.277344 L 189.671875 98.214844 L 284.851562 1.65625 L 284.851562 389.277344 Z M 380.035156 389.277344 L 380.035156 1.65625 L 475.214844 98.214844 L 475.214844 389.277344 Z M 569.707031 389.277344 L 569.707031 194.777344 L 664.886719 291.335938 L 664.886719 388.585938 L 569.707031 388.585938 Z M 569.707031 389.277344 "/>
<path style=" stroke:none;fill-rule:nonzero;fill:rgb(0%,0%,0%);fill-opacity:1;" d="M 933.875 185.808594 L 881.457031 185.808594 L 881.457031 166.496094 L 929.046875 166.496094 L 929.046875 141.667969 L 881.457031 141.667969 L 881.457031 123.734375 L 933.875 123.734375 L 933.875 98.214844 L 852.488281 98.214844 L 852.488281 212.019531 L 933.875 212.019531 Z M 973.1875 164.429688 L 990.433594 169.257812 C 996.640625 171.324219 1000.085938 173.394531 1000.085938 178.914062 C 1000.085938 185.808594 991.8125 187.878906 982.15625 187.878906 C 969.050781 187.878906 955.257812 182.359375 945.601562 176.152344 L 945.601562 203.742188 C 953.875 208.570312 967.671875 212.707031 982.84375 212.707031 C 1008.363281 212.707031 1029.746094 201.671875 1029.746094 176.84375 C 1029.746094 159.601562 1020.089844 148.566406 999.398438 142.355469 L 982.15625 136.839844 C 975.949219 134.769531 972.5 132.703125 972.5 127.875 C 972.5 122.355469 978.707031 119.597656 987.671875 119.597656 C 1000.777344 119.597656 1011.8125 123.734375 1022.160156 130.632812 L 1022.160156 103.042969 C 1012.503906 97.527344 1001.46875 94.765625 986.292969 94.765625 C 962.152344 94.765625 943.53125 107.183594 943.53125 129.941406 C 943.53125 149.945312 953.875 158.910156 973.1875 164.429688 Z M 1093.890625 96.144531 C 1060.78125 96.144531 1038.023438 120.976562 1038.023438 154.773438 C 1038.023438 188.566406 1060.78125 213.398438 1093.890625 213.398438 C 1101.476562 213.398438 1109.0625 212.019531 1115.960938 208.570312 L 1124.925781 219.605469 L 1142.859375 205.121094 L 1134.582031 194.777344 C 1143.546875 184.429688 1149.757812 170.636719 1149.757812 154.082031 C 1149.757812 120.285156 1126.996094 96.144531 1093.890625 96.144531 Z M 1116.648438 173.394531 L 1108.375 163.046875 L 1090.441406 176.84375 L 1099.40625 187.878906 C 1098.027344 188.566406 1095.957031 188.566406 1093.890625 188.566406 C 1078.714844 188.566406 1068.371094 174.085938 1068.371094 154.773438 C 1068.371094 135.460938 1078.714844 122.355469 1093.890625 122.355469 C 1109.0625 122.355469 1119.410156 135.460938 1119.410156 154.773438 C 1119.410156 161.667969 1118.027344 167.875 1116.648438 173.394531 Z M 1230.453125 162.359375 C 1230.453125 178.222656 1222.867188 186.5 1210.449219 186.5 C 1198.035156 186.5 1190.449219 178.222656 1190.449219 162.359375 L 1190.449219 97.527344 L 1160.792969 97.527344 L 1160.792969 164.429688 C 1160.792969 195.464844 1180.792969 212.707031 1210.449219 212.707031 C 1240.796875 212.707031 1260.109375 195.464844 1260.109375 164.429688 L 1260.109375 96.835938 L 1230.453125 96.835938 Z M 1357.359375 185.808594 L 1304.941406 185.808594 L 1304.941406 166.496094 L 1352.53125 166.496094 L 1352.53125 141.667969 L 1304.941406 141.667969 L 1304.941406 123.734375 L 1357.359375 123.734375 L 1357.359375 98.214844 L 1275.972656 98.214844 L 1275.972656 212.019531 L 1357.359375 212.019531 Z M 1464.957031 136.148438 C 1464.957031 111.320312 1447.714844 97.527344 1423.574219 97.527344 L 1372.535156 97.527344 L 1372.535156 211.328125 L 1402.191406 211.328125 L 1402.191406 174.085938 L 1412.539062 174.085938 L 1435.988281 211.328125 L 1469.09375 211.328125 L 1442.195312 170.636719 C 1455.988281 165.117188 1464.957031 153.394531 1464.957031 136.148438 Z M 1420.125 149.945312 L 1401.503906 149.945312 L 1401.503906 122.355469 L 1420.125 122.355469 C 1430.46875 122.355469 1435.296875 127.875 1435.296875 136.148438 C 1435.296875 144.425781 1431.160156 149.945312 1420.125 149.945312 Z M 1542.894531 211.328125 L 1576 211.328125 L 1549.101562 170.636719 C 1562.894531 165.117188 1571.863281 153.394531 1571.863281 136.148438 C 1571.863281 111.320312 1554.621094 97.527344 1530.480469 97.527344 L 1479.441406 97.527344 L 1479.441406 211.328125 L 1509.097656 211.328125 L 1509.097656 174.085938 L 1519.445312 174.085938 Z M 1508.410156 122.355469 L 1527.03125 122.355469 C 1537.375 122.355469 1542.203125 127.875 1542.203125 136.148438 C 1542.203125 144.425781 1537.375 149.945312 1527.03125 149.945312 L 1508.410156 149.945312 Z M 1657.386719 189.257812 L 1665.664062 211.328125 L 1696.011719 211.328125 L 1652.558594 97.527344 L 1622.210938 97.527344 L 1578.757812 211.328125 L 1608.417969 211.328125 L 1616.695312 189.257812 Z M 1636.695312 132.703125 L 1648.421875 164.429688 L 1624.96875 164.429688 Z M 944.910156 314.785156 C 944.910156 289.957031 927.667969 276.164062 903.527344 276.164062 L 852.488281 276.164062 L 852.488281 389.964844 L 882.144531 389.964844 L 882.144531 352.71875 L 892.492188 352.71875 L 915.941406 389.964844 L 949.046875 389.964844 L 922.148438 349.273438 C 935.945312 343.753906 944.910156 332.027344 944.910156 314.785156 Z M 900.078125 327.890625 L 881.457031 327.890625 L 881.457031 300.300781 L 900.078125 300.300781 C 910.425781 300.300781 915.253906 305.820312 915.253906 314.097656 C 915.941406 323.0625 911.113281 327.890625 900.078125 327.890625 Z M 958.703125 389.277344 L 1040.089844 389.277344 L 1040.089844 363.757812 L 987.671875 363.757812 L 987.671875 344.445312 L 1035.261719 344.445312 L 1035.261719 318.925781 L 987.671875 318.925781 L 987.671875 300.992188 L 1040.089844 300.992188 L 1040.089844 275.472656 L 958.703125 275.472656 Z M 1105.613281 276.164062 L 1055.265625 276.164062 L 1055.265625 389.964844 L 1084.921875 389.964844 L 1084.921875 354.789062 L 1105.613281 354.789062 C 1130.445312 354.789062 1146.996094 340.996094 1146.996094 315.476562 C 1146.996094 289.957031 1129.753906 276.164062 1105.613281 276.164062 Z M 1102.164062 329.269531 L 1084.921875 329.269531 L 1084.921875 300.992188 L 1102.164062 300.992188 C 1113.199219 300.992188 1118.027344 306.507812 1118.027344 315.476562 C 1118.027344 323.753906 1113.199219 329.269531 1102.164062 329.269531 Z M 1227.695312 340.304688 C 1227.695312 356.167969 1220.105469 364.445312 1207.691406 364.445312 C 1195.277344 364.445312 1187.691406 356.167969 1187.691406 340.304688 L 1187.691406 275.472656 L 1158.03125 275.472656 L 1158.03125 342.375 C 1158.03125 373.410156 1178.035156 390.65625 1207.691406 390.65625 C 1238.039062 390.65625 1257.351562 373.410156 1257.351562 342.375 L 1257.351562 274.78125 L 1227.695312 274.78125 Z M 1344.945312 330.648438 C 1353.222656 327.890625 1360.121094 318.925781 1360.121094 306.507812 C 1360.121094 285.816406 1345.636719 275.472656 1322.183594 275.472656 L 1273.214844 275.472656 L 1273.214844 389.277344 L 1325.632812 389.277344 C 1349.082031 389.277344 1363.566406 378.238281 1363.566406 357.546875 C 1363.566406 345.132812 1355.980469 334.097656 1344.945312 330.648438 Z M 1302.183594 300.300781 L 1319.425781 300.300781 C 1328.390625 300.300781 1332.53125 303.75 1332.53125 310.648438 C 1332.53125 317.546875 1327.703125 320.992188 1319.425781 320.992188 L 1302.183594 320.992188 Z M 1322.183594 365.136719 L 1302.183594 365.136719 L 1302.183594 343.066406 L 1322.183594 343.066406 C 1330.460938 343.066406 1335.289062 347.203125 1335.289062 354.101562 C 1334.601562 360.308594 1330.460938 365.136719 1322.183594 365.136719 Z M 1407.019531 276.164062 L 1377.363281 276.164062 L 1377.363281 389.964844 L 1458.058594 389.964844 L 1458.058594 364.445312 L 1407.019531 364.445312 Z M 1471.851562 389.277344 L 1501.511719 389.277344 L 1501.511719 276.164062 L 1471.851562 276.164062 Z M 1513.925781 332.71875 C 1513.925781 367.894531 1537.375 391.34375 1572.550781 391.34375 C 1584.964844 391.34375 1594.621094 388.585938 1601.519531 383.757812 L 1601.519531 354.789062 C 1593.242188 360.996094 1584.277344 363.757812 1574.621094 363.757812 C 1556 363.757812 1543.582031 352.03125 1543.582031 332.71875 C 1543.582031 313.40625 1556 301.683594 1574.621094 301.683594 C 1584.277344 301.683594 1593.242188 304.441406 1601.519531 310.648438 L 1601.519531 281.679688 C 1593.933594 276.851562 1584.277344 274.09375 1572.550781 274.09375 C 1538.066406 274.09375 1513.925781 297.542969 1513.925781 332.71875 Z M 1653.25 276.164062 L 1609.796875 389.964844 L 1639.453125 389.964844 L 1647.730469 367.894531 L 1689.113281 367.894531 L 1697.390625 389.964844 L 1727.738281 389.964844 L 1684.285156 276.164062 Z M 1656.007812 343.066406 L 1667.734375 311.335938 L 1679.457031 343.066406 Z M 1808.433594 338.238281 L 1764.292969 275.472656 L 1736.703125 275.472656 L 1736.703125 389.277344 L 1765.671875 389.277344 L 1765.671875 323.0625 L 1813.261719 389.277344 L 1837.402344 389.277344 L 1837.402344 275.472656 L 1808.433594 275.472656 Z M 1920.859375 276.164062 L 1890.511719 276.164062 L 1847.058594 389.964844 L 1876.714844 389.964844 L 1884.992188 367.894531 L 1926.375 367.894531 L 1934.652344 389.964844 L 1965 389.964844 Z M 1893.960938 343.066406 L 1905.683594 311.335938 L 1917.410156 343.066406 Z M 1893.960938 343.066406 "/>
</g>
</svg>
