<svg width="11" height="20" viewBox="0 0 11 20" fill="none" xmlns="http://www.w3.org/2000/svg">
<path d="M0.842105 17.5464C0.315467 18.1859 0.406951 19.1313 1.04644 19.6579C1.68593 20.1845 2.63126 20.093 3.1579 19.4536L0.842105 17.5464ZM3.15789 0.54644C2.63126 -0.0930481 1.68593 -0.184532 1.04644 0.342104C0.40695 0.868742 0.315467 1.81407 0.842104 2.45356L3.15789 0.54644ZM9 10L10.1579 10.9536L10.9432 10L10.1579 9.04644L9 10ZM3.1579 19.4536L10.1579 10.9536L7.8421 9.04644L0.842105 17.5464L3.1579 19.4536ZM10.1579 9.04644L3.15789 0.54644L0.842104 2.45356L7.8421 10.9536L10.1579 9.04644Z" fill="white"/>
</svg>
