<svg width="70" height="58" viewBox="0 0 70 58" version="1.1" xmlns="http://www.w3.org/2000/svg" xmlns:xlink="http://www.w3.org/1999/xlink"><title>junts-cat-01</title><defs><path id="path-1" d="M0 0h70v65H0z"/></defs><g id="NEW" stroke="none" stroke-width="1" fill="none" fill-rule="evenodd"><g id="Artboard-Copy-18" transform="translate(-50 -8)"><g id="junts-cat-01" transform="translate(50 1)"><mask id="mask-2" fill="#fff"><use xlink:href="#path-1"/></mask><g mask="url(#mask-2)" id="Shape" fill-rule="nonzero"><path d="M26.154 69V48.754a.328.328 0 0 1 .247-.323l2.422-.622a.326.326 0 0 1 .408.323V69h-3.077zm4.616 0V47.598a.328.328 0 0 1 .246-.323l2.423-.622a.325.325 0 0 1 .283.06.33.33 0 0 1 .124.262V69H30.77zM35 69V46.808a.324.324 0 0 1 .244-.318l2.424-.607a.324.324 0 0 1 .409.318V69H35zm4.615 0V45.657a.325.325 0 0 1 .247-.318l2.423-.614a.33.33 0 0 1 .283.06.32.32 0 0 1 .124.258V69h-3.077z" fill="#C40048" transform="translate(0 7)"/><path d="M7.492 22.73a.621.621 0 0 1 .526.1c.15.112.24.285.245.47v2.624c0 .724.156 1.06.694.918h.105c.544-.142.671-.662.671-1.278V9.918c.006-.267.19-.5.452-.57l1.737-.462a.621.621 0 0 1 .526.101.6.6 0 0 1 .244.47V25c0 2.606-1.268 4.147-3.306 4.688l-.8.211c-1.887.502-3.201-.04-3.201-2.777v-3.377c.005-.268.19-.5.451-.57l1.656-.445zM14.313 8.3l1.707-.46a.604.604 0 0 1 .756.568v14.979c0 .858.28 1.34.916 1.17.638-.17.94-.79.94-1.67V7.601a.602.602 0 0 1 .443-.568l1.707-.46a.604.604 0 0 1 .756.568V21.91c0 2.806-1.07 4.862-3.607 5.538l-.506.137c-2.538.681-3.579-.727-3.579-3.613V8.879a.602.602 0 0 1 .467-.58zM25.84 6.016l1.944 7.915a.188.188 0 0 0 .37-.045V5.22a.602.602 0 0 1 .443-.568l1.416-.392a.603.603 0 0 1 .756.568v18.678a.602.602 0 0 1-.443.568l-1.302.352a.603.603 0 0 1-.74-.432l-2.25-8.676a.188.188 0 0 0-.37.045v9.5a.602.602 0 0 1-.444.569l-1.387.375a.603.603 0 0 1-.756-.568V6.579a.602.602 0 0 1 .443-.569l1.552-.415a.603.603 0 0 1 .768.42zm13.39-3.5v1.67a.61.61 0 0 1-.445.576l-1.833.495a.19.19 0 0 0-.137.184v16.642a.61.61 0 0 1-.445.576l-1.65.45a.601.601 0 0 1-.519-.103.612.612 0 0 1-.241-.474V6.328a.19.19 0 0 0-.074-.152.187.187 0 0 0-.166-.032l-1.422.386a.601.601 0 0 1-.518-.103.612.612 0 0 1-.242-.473V4.278a.61.61 0 0 1 .446-.576l6.493-1.756a.601.601 0 0 1 .512.103.617.617 0 0 1 .242.467zM43.805.201c2.333-.63 3.238.216 3.238 2.57V4.82a.6.6 0 0 1-.438.568l-1.563.43a.592.592 0 0 1-.51-.1.603.603 0 0 1-.238-.467V3.912c0-.67-.124-1.135-.804-.96-.68.177-.827.682-.827 1.612v.374c0 1.135.202 1.702 1.153 2.735L45.62 9.67c1.282 1.418 1.687 2.27 1.687 4.538v.641c0 2.91-1.153 4.959-3.667 5.64l-.562.147c-2.283.618-3.464-.369-3.464-2.836v-2.281a.6.6 0 0 1 .439-.567l1.625-.443a.592.592 0 0 1 .51.1.605.605 0 0 1 .238.467v1.492c0 .937.304 1.305.928 1.135.624-.17.928-.703.928-1.963v-.454c0-1.44-.124-1.86-1.153-3.024l-1.805-1.968C40.12 8.966 39.767 7.775 39.767 5.8v-.636c0-2.672 1.254-4.215 3.486-4.816L43.805.2zM51.24 13.37v4.412a.605.605 0 0 1-.432.574l-.458.127a.567.567 0 0 1-.501-.102.617.617 0 0 1-.234-.473V7.422a.605.605 0 0 1 .431-.574l2.143-.575c1.149-.321 1.657.07 1.657 1.477v2.78c0 1.391-.552 2.299-1.657 2.615l-.95.224zm0-1.69l.419-.115c.503-.138.552-.517.552-1.011V8.64c0-.46-.088-.78-.552-.649l-.42.115v3.574zm7.533-6.07v.43a.606.606 0 0 1-.438.573l-1.684.459v3.097l.904-.247a.585.585 0 0 1 .51.102.612.612 0 0 1 .237.472v.527a.606.606 0 0 1-.438.574l-1.213.333v3.389l1.448-.396a.585.585 0 0 1 .51.102.612.612 0 0 1 .237.472v.527a.606.606 0 0 1-.438.574l-2.661.728a.585.585 0 0 1-.51-.102.612.612 0 0 1-.237-.471V6.315a.606.606 0 0 1 .438-.574l2.572-.705a.585.585 0 0 1 .52.093c.15.113.24.29.243.48zm2.024 10.049l-.454.125a.56.56 0 0 1-.496-.101.616.616 0 0 1-.232-.47V4.756a.602.602 0 0 1 .427-.572l2.188-.612c1.094-.304 1.608.034 1.608 1.356v2.077a2.005 2.005 0 0 1-.7 1.717c.356.074.7.275.7 1.076v4.498a.71.71 0 0 1-.509.692l-.355.097a.554.554 0 0 1-.498-.099.61.61 0 0 1-.23-.473v-3.742c0-.521-.087-.716-.596-.573l-.416.115v4.755a.604.604 0 0 1-.437.59zm.427-7.005l.426-.12c.443-.126.585-.48.585-.996V5.896c0-.504-.087-.732-.585-.572l-.426.12v3.21zM5.268 45.788l1.636-.432a.617.617 0 0 1 .522.101.6.6 0 0 1 .243.467v1.704c0 2.141-.69 4.486-3.454 5.225l-.645.17C.616 53.807 0 51.78 0 49.77V37.65c0-2.032.846-4.207 3.455-4.9l.668-.176c3.19-.846 3.57 1.25 3.57 3.203v1.596a.604.604 0 0 1-.45.568l-1.658.465a.617.617 0 0 1-.522-.1.6.6 0 0 1-.244-.468v-1.255c0-.857-.259-1.243-.979-1.05-.72.193-.898.664-.898 1.55V48.9c0 .909.31 1.287.927 1.136.691-.182.95-.761.95-1.59v-2.09a.604.604 0 0 1 .45-.568zm7.56 1.01l-1.781.475a.189.189 0 0 0-.138.165l-.309 3.316a.606.606 0 0 1-.446.526l-1.318.354a.608.608 0 0 1-.756-.651l2.182-19.362a.606.606 0 0 1 .447-.514l2.36-.635a.608.608 0 0 1 .755.51L16.15 49.13a.606.606 0 0 1-.44.658l-1.593.429a.608.608 0 0 1-.756-.52l-.286-2.744a.189.189 0 0 0-.246-.155zm-1.334-2.63l1.088-.29a.189.189 0 0 0 .137-.2l-.573-5.197a.189.189 0 0 0-.378 0l-.532 5.488a.188.188 0 0 0 .252.2h.006zm11.198-15.437v1.67a.61.61 0 0 1-.443.577l-1.827.495a.19.19 0 0 0-.136.185v16.637a.61.61 0 0 1-.444.576l-1.644.45a.597.597 0 0 1-.517-.103.613.613 0 0 1-.24-.474v-16.2a.19.19 0 0 0-.082-.169.186.186 0 0 0-.186-.015l-1.416.386a.597.597 0 0 1-.517-.102.613.613 0 0 1-.24-.474V30.5a.61.61 0 0 1 .444-.576l6.469-1.758a.597.597 0 0 1 .527.088c.153.11.246.287.252.477zm4.367 14.211l-1.781.475a.189.189 0 0 0-.138.166l-.309 3.316a.606.606 0 0 1-.447.526l-1.317.354a.608.608 0 0 1-.756-.651l2.182-19.361a.606.606 0 0 1 .447-.515l2.36-.634a.608.608 0 0 1 .755.508l2.325 18.155a.606.606 0 0 1-.44.657l-1.593.43a.608.608 0 0 1-.756-.521l-.286-2.745a.189.189 0 0 0-.246-.16zm-1.335-2.63l1.088-.292a.189.189 0 0 0 .138-.2l-.573-5.197a.189.189 0 0 0-.378 0l-.532 5.489a.189.189 0 0 0 .257.2zm7.988-14.664v15.92c0 .06.027.115.075.151a.196.196 0 0 0 .17.032l2.574-.676a.629.629 0 0 1 .53.102.603.603 0 0 1 .247.47v1.85a.61.61 0 0 1-.456.572l-5.306 1.397a.629.629 0 0 1-.53-.102.603.603 0 0 1-.247-.47V26.1a.61.61 0 0 1 .456-.573l1.71-.452a.629.629 0 0 1 .53.102.603.603 0 0 1 .247.47zm4.404-1.948l1.717-.459a.61.61 0 0 1 .52.1.6.6 0 0 1 .242.468v14.994c0 .857.28 1.34.92 1.17.642-.171.945-.79.945-1.67V23.02a.603.603 0 0 1 .447-.568l1.716-.46a.61.61 0 0 1 .52.1.6.6 0 0 1 .242.468v14.766c0 2.805-1.07 4.855-3.629 5.536l-.463.142c-2.553.681-3.6-.727-3.6-3.611v-15.09a.602.602 0 0 1 .423-.602zm10.779-2.271l1.948 7.906a.188.188 0 0 0 .37-.045v-8.657a.603.603 0 0 1 .445-.568l1.413-.381a.605.605 0 0 1 .775.557v18.677a.603.603 0 0 1-.444.569l-1.305.352a.605.605 0 0 1-.74-.432l-2.24-8.674a.188.188 0 0 0-.37.046v9.503a.603.603 0 0 1-.445.569l-1.39.375a.605.605 0 0 1-.758-.569V21.986a.603.603 0 0 1 .444-.568l1.55-.427a.605.605 0 0 1 .747.438zm10.684 8.156v7.912a.61.61 0 0 1-.445.575l-1.67.455a.6.6 0 0 1-.518-.102.612.612 0 0 1-.241-.473v-7.613l-2.459-10.49a.61.61 0 0 1 .428-.726l1.608-.438a.6.6 0 0 1 .477.075.61.61 0 0 1 .27.403l1.01 5.459a.19.19 0 0 0 .185.157.19.19 0 0 0 .186-.157l1.038-6.42a.608.608 0 0 1 .439-.49l1.278-.345a.6.6 0 0 1 .567.145c.152.144.22.356.18.563l-2.333 11.51zm7.098 2.565l-1.782.475a.189.189 0 0 0-.137.165l-.31 3.316a.606.606 0 0 1-.447.526l-1.318.354a.609.609 0 0 1-.756-.651l2.183-19.362a.606.606 0 0 1 .447-.514l2.361-.635a.609.609 0 0 1 .757.509l2.32 18.155a.606.606 0 0 1-.44.658l-1.594.428a.609.609 0 0 1-.756-.52l-.287-2.744a.189.189 0 0 0-.24-.16zm-1.335-2.63l1.089-.29a.189.189 0 0 0 .138-.201l-.574-5.196a.189.189 0 0 0-.378 0l-.533 5.488a.188.188 0 0 0 .252.2h.006z" fill="#000" transform="translate(0 7)"/></g></g></g></g></svg>