<svg width="16" height="16" viewBox="0 0 16 16" fill="none" xmlns="http://www.w3.org/2000/svg">
<mask id="mask0_20_2663" style="mask-type:luminance" maskUnits="userSpaceOnUse" x="1" y="1" width="14" height="13">
<path d="M1.521 1.67901H14.4198V13.9111H1.521V1.67901Z" fill="white"/>
</mask>
<g mask="url(#mask0_20_2663)">
<path d="M14.3921 7.44931L13.4071 12.6042C13.2625 13.3605 12.599 13.9094 11.8295 13.9094H6.3637C6.08955 13.9094 5.82635 13.8387 5.59472 13.7059C5.43839 13.6163 5.34248 13.4493 5.34248 13.2691V6.96497C5.34248 6.77153 5.45274 6.59437 5.62728 6.51134C5.79657 6.43079 5.95799 6.33642 6.11069 6.22832C6.34534 6.06219 6.78206 5.75309 7.04603 5.19738C7.14148 4.99645 7.23793 4.68534 7.2769 3.31142C7.28994 2.85147 7.29294 2.38781 7.286 1.93326C7.28446 1.83573 7.3539 1.75147 7.44989 1.73441C7.45282 1.7338 7.45737 1.73287 7.46324 1.73164C7.85583 1.64907 8.60066 1.59877 9.17713 2.18912C9.6826 2.70687 9.72705 3.42824 9.73083 3.56767C9.73091 3.56944 9.73091 3.57122 9.73091 3.57299V5.73125H12.9724C13.4048 5.73125 13.8108 5.92245 14.0864 6.25594C14.3618 6.58935 14.4733 7.02431 14.3921 7.44931ZM3.97319 6.40903C3.94279 6.40525 3.91193 6.40316 3.88068 6.40316H2.31308C1.87913 6.40316 1.52612 6.77307 1.52612 7.22778V12.7293C1.52612 13.1622 1.84611 13.518 2.2512 13.5512C2.28168 13.5549 2.31254 13.557 2.34379 13.557H3.91139C4.34526 13.557 4.69827 13.1871 4.69827 12.7324V7.23086C4.69827 6.79799 4.37828 6.44221 3.97319 6.40903Z" fill="#3E979E"/>
</g>
</svg>
