<?xml version="1.0" encoding="UTF-8" standalone="no"?>
<!-- Created with Inkscape (http://www.inkscape.org/) -->

<svg
   xmlns:dc="http://purl.org/dc/elements/1.1/"
   xmlns:cc="http://creativecommons.org/ns#"
   xmlns:rdf="http://www.w3.org/1999/02/22-rdf-syntax-ns#"
   xmlns:svg="http://www.w3.org/2000/svg"
   xmlns="http://www.w3.org/2000/svg"
   xmlns:xlink="http://www.w3.org/1999/xlink"
   xmlns:sodipodi="http://sodipodi.sourceforge.net/DTD/sodipodi-0.dtd"
   xmlns:inkscape="http://www.inkscape.org/namespaces/inkscape"
   width="470.15399"
   height="374.49969"
   viewBox="0 0 470.15398 374.49973"
   id="svg2"
   version="1.1"
   inkscape:version="0.91 r13725"
   sodipodi:docname="EAJlogo.svg">
  <defs
     id="defs4">
    <linearGradient
       inkscape:collect="always"
       id="linearGradient4234">
      <stop
         style="stop-color:#ba1621;stop-opacity:1;"
         offset="0"
         id="stop4236" />
      <stop
         style="stop-color:#1d813d;stop-opacity:1"
         offset="1"
         id="stop4238" />
    </linearGradient>
    <linearGradient
       inkscape:collect="always"
       xlink:href="#linearGradient4234"
       id="linearGradient4240"
       x1="-129.67294"
       y1="296.43011"
       x2="-58.237602"
       y2="367.86545"
       gradientUnits="userSpaceOnUse"
       gradientTransform="translate(-498.00792,40.357585)" />
  </defs>
  <sodipodi:namedview
     id="base"
     pagecolor="#ffffff"
     bordercolor="#666666"
     borderopacity="1.0"
     inkscape:pageopacity="0.0"
     inkscape:pageshadow="2"
     inkscape:zoom="0.98994949"
     inkscape:cx="233.50107"
     inkscape:cy="129.78989"
     inkscape:document-units="px"
     inkscape:current-layer="layer1"
     showgrid="false"
     fit-margin-top="10"
     fit-margin-left="10"
     fit-margin-right="10"
     fit-margin-bottom="10"
     units="px"
     inkscape:window-width="1366"
     inkscape:window-height="706"
     inkscape:window-x="0"
     inkscape:window-y="38"
     inkscape:window-maximized="1" />
  <metadata
     id="metadata7">
    <rdf:RDF>
      <cc:Work
         rdf:about="">
        <dc:format>image/svg+xml</dc:format>
        <dc:type
           rdf:resource="http://purl.org/dc/dcmitype/StillImage" />
        <dc:title></dc:title>
      </cc:Work>
    </rdf:RDF>
  </metadata>
  <g
     inkscape:label="Layer 1"
     inkscape:groupmode="layer"
     id="layer1"
     transform="translate(720.79125,-230.82662)">
    <circle
       style="color:#000000;clip-rule:nonzero;display:inline;overflow:visible;visibility:visible;opacity:1;isolation:auto;mix-blend-mode:normal;color-interpolation:sRGB;color-interpolation-filters:linearRGB;solid-color:#000000;solid-opacity:1;fill:#ffffff;fill-opacity:1;fill-rule:nonzero;stroke:none;stroke-width:1;stroke-linecap:round;stroke-linejoin:miter;stroke-miterlimit:4;stroke-dasharray:none;stroke-dashoffset:0;stroke-opacity:1;color-rendering:auto;image-rendering:auto;shape-rendering:auto;text-rendering:auto;enable-background:accumulate"
       id="path4272"
       cx="-589.31372"
       cy="362.24011"
       r="118.69292" />
    <path
       inkscape:connector-curvature="0"
       style="fill:url(#linearGradient4240);fill-opacity:1"
       d="m -598.73729,483.53434 c -8.16673,-0.7331 -15.53374,-2.0698 -20.4864,-3.71716 -15.85559,-5.27387 -24.70251,-16.23595 -26.00016,-32.21638 -0.92005,-11.33042 2.99384,-27.44414 8.73298,-35.95412 2.95977,-4.38876 8.15103,-8.67933 12.88657,-10.65074 9.26753,-3.85807 18.3154,-4.2999 35.81701,-1.74903 9.23734,1.34634 17.19545,1.30382 27.3,-0.14592 20.62991,-2.95983 41.9685,-12.17734 59.23572,-25.58775 3.85477,-2.99376 10.73437,-9.60844 13.7654,-13.23533 2.51432,-3.00859 5.86288,-7.94683 7.09161,-10.45826 0.78024,-1.59475 0.79475,-1.71893 0.46671,-3.99383 -1.39675,-9.68603 -4.25128,-19.55651 -8.31389,-28.7479 -2.63799,-5.96829 -7.14536,-13.95516 -7.58783,-13.44529 -0.11707,0.13491 -0.45666,1.19029 -0.75464,2.34529 -1.53859,5.96377 -5.25861,15.38269 -8.11628,20.54999 -3.01057,5.44377 -6.9151,10.18388 -13.80945,16.76464 -13.86068,13.23023 -28.28318,20.82062 -44.22735,23.27634 -7.04733,1.08542 -15.74969,0.93834 -27.75,-0.46903 -6.65668,-0.78069 -16.32386,-1.05782 -21,-0.60203 -16.19038,1.57812 -31.59691,8.87588 -46.27863,21.92126 -13.09483,11.63534 -20.11124,28.61546 -20.68535,50.05976 l -0.17137,6.40092 -2.53626,-2.50092 c -4.07361,-4.01687 -7.94453,-9.164 -12.14635,-16.15092 -17.18883,-28.58215 -21.8837,-62.01343 -13.29203,-94.65001 6.54678,-24.86881 21.78554,-47.88606 42.30999,-63.90674 28.0931,-21.92851 63.80325,-30.41335 98.85,-23.48704 5.3392,1.05519 7.75859,1.85016 11.54444,3.79329 12.14025,6.23114 18.45556,17.98073 18.45556,34.33646 0,8.03382 -1.47422,16.1568 -4.19539,23.11668 -4.05903,10.38163 -11.54166,17.10829 -22.07555,19.84523 -4.23931,1.10146 -7.33246,1.44755 -13.02906,1.45781 -5.69301,0.0103 -9.6658,-0.35213 -16.65,-1.51878 -8.74249,-1.46034 -20.59087,-1.25724 -30.94991,0.53056 -16.78539,2.89686 -33.83024,9.83228 -49.00009,19.93774 -6.61978,4.4098 -10.54418,7.63661 -16.2,13.32036 -5.19766,5.22331 -8.28502,9.11414 -11.01199,13.87777 -1.84161,3.21705 -1.85835,3.36812 -0.96203,8.68406 2.17932,12.92513 7.80647,27.9241 14.23689,37.94794 1.07778,1.68006 1.14277,1.7287 1.35544,1.01467 2.23504,-7.50414 2.94052,-9.67885 4.08612,-12.59584 1.88291,-4.79441 4.8799,-10.71912 7.14241,-14.11974 4.1118,-6.18019 13.82027,-15.70125 22.35316,-21.92167 11.19793,-8.16321 23.1065,-12.92428 35.97683,-14.3836 4.41887,-0.50103 16.81976,-0.19259 23.17622,0.57646 13.52156,1.63594 21.62836,1.53168 30.84695,-0.3967 8.49346,-1.77669 17.7412,-5.83371 26.31473,-11.54437 13.81683,-9.20314 21.47932,-17.77801 26.58015,-29.74505 3.85829,-9.05195 5.74342,-18.53521 6.1128,-30.75099 l 0.18239,-6.03149 2.08888,2.28149 c 18.60386,20.31922 29.80145,47.56495 31.09032,75.64833 1.31756,28.70836 -7.26684,56.46744 -24.52993,79.3216 -5.2896,7.00275 -13.52921,15.47668 -20.43934,21.02057 -17.89818,14.35946 -38.28371,23.00888 -61.57211,26.1246 -3.5237,0.47144 -20.67679,0.84158 -24.22789,0.52281 z"
       id="path4205" />
    <g
       id="g4225"
       style="fill:#201e21;fill-opacity:1"
       transform="translate(-498.00792,40.357585)">
      <path
         inkscape:connector-curvature="0"
         id="path4221"
         d="m -26.929688,457.76953 0,48.60156 0,48.59766 9.300782,0 9.2988279,0 0,-12.89844 0,-12.90039 9.6757812,0 c 13.8766799,-0.001 19.1891869,-0.61963 24.2792969,-2.82031 3.55135,-1.53537 5.443939,-2.78174 8.011719,-5.2793 2.78613,-2.70996 4.623687,-5.23869 6.429687,-8.84961 3.14287,-6.28389 4.370237,-13.34512 3.779297,-21.74023 -1.05055,-14.92469 -7.936953,-25.4558 -19.595703,-29.97266 -6.55163,-2.53825 -8.891577,-2.73828 -32.3105469,-2.73828 l -18.8691411,0 z m 18.5996099,15.55078 9.8261719,0.125 c 8.11918,0.10234 10.1375202,0.21297 11.6250002,0.63867 6.07265,1.73791 9.153867,5.08557 10.523437,11.43555 0.71135,3.29851 0.71112,11.63031 0,15 -1.6696,7.91148 -6.339598,11.9534 -15.0488279,13.02149 -1.47149,0.18048 -5.8820312,0.33007 -9.8007812,0.33007 l -7.125,0 0,-20.27539 0,-20.27539 z"
         style="fill:#201e21;fill-opacity:1" />
      <path
         inkscape:connector-curvature="0"
         id="path4217"
         d="m 48.67064,493.44904 0,-35.72134 21.225,0.11973 c 18.06069,0.10187 21.62754,0.19345 23.925,0.61427 4.30086,0.78776 6.11538,1.34229 9.05556,2.76747 4.48728,2.17507 7.61829,5.78096 9.28281,10.69073 1.5396,4.54128 1.60794,5.92466 1.60986,32.57548 l 0.003,24.675 -9.3,0 -9.3,0 -0.005,-21.375 c -0.003,-11.75625 -0.13035,-22.89144 -0.28368,-24.74487 -0.49158,-5.94156 -2.04687,-8.08845 -6.55119,-9.04317 -0.98775,-0.20908 -5.22881,-0.33696 -11.17633,-0.33696 l -9.58523,0 0,27.75 0,27.75 -9.45,0 -9.45,0 0,-35.72134 z"
         style="fill:#201e21;fill-opacity:1" />
      <path
         inkscape:connector-curvature="0"
         id="path4215"
         d="m 138.989,523.99925 c -1.20105,-2.84838 -3.84459,-9.09387 -5.87457,-13.87887 -15.13767,-35.682 -22.04379,-52.05533 -22.04379,-52.26238 0,-0.0524 4.74243,-0.0598 10.53876,-0.0165 l 10.53876,0.0788 1.17252,3 c 3.86874,9.89847 8.59395,21.99791 9.54846,24.45 0.6102,1.5675 2.13588,5.4825 3.39045,8.7 3.58911,9.20475 5.25603,13.48833 5.40291,13.88418 0.0747,0.20121 0.43536,-0.30918 0.80154,-1.13418 0.65985,-1.48665 11.79765,-28.2855 17.39316,-41.85 l 2.9082,-7.05 10.10262,-0.079 c 5.55645,-0.0435 10.10262,0.0338 10.10262,0.17166 0,0.13786 -7.07835,16.1709 -15.72966,35.62899 l -15.72969,35.37834 -10.16928,0.0789 -10.16928,0.0789 -2.18373,-5.1789 z"
         style="fill:#201e21;fill-opacity:1" />
      <path
         inkscape:connector-curvature="0"
         id="path4213"
         d="m 200.17064,465.32274 0,-7.50561 5.625,-0.0985 c 5.08296,-0.089 5.74065,-0.16083 6.825,-0.74589 1.61091,-0.86918 2.68533,-2.05276 3.46602,-3.81823 1.44876,-3.27632 1.46235,-3.66043 1.47351,-41.65918 l 0.0105,-35.62501 9.9,0 9.9,0 0,35.56183 c 0,22.4524 -0.11454,36.63573 -0.31074,38.475 -0.44757,4.19603 -1.6605,8.82726 -3.08079,11.76318 -1.67655,3.46567 -5.07786,6.93572 -8.32047,8.48865 -4.5279,2.16849 -5.9382,2.38848 -16.263,2.5368 l -9.225,0.13252 0,-7.50561 z"
         style="fill:#201e21;fill-opacity:1" />
      <path
         inkscape:connector-curvature="0"
         id="path4211"
         d="m 93.3101,446.51163 c -15.1152,-2.06134 -24.099,-10.31818 -27.12458,-24.9297 -0.76495,-3.6942 -0.91847,-14.13781 -0.26873,-18.28129 2.47391,-15.77653 11.3395,-24.64744 26.94907,-26.96524 2.53314,-0.37614 6.26409,-0.46503 19.51827,-0.46503 l 16.38651,0 0,7.32884 0,7.32884 -15.825,0.12291 c -13.10037,0.10175 -16.16817,0.20486 -17.8182,0.59884 -3.62811,0.86631 -5.84622,2.3902 -7.26003,4.98782 -0.79329,1.45756 -1.69677,5.16307 -1.69677,6.95915 l 0,0.87361 21.3,0 21.3,0 0,7.35 0,7.35 -21.33876,0 -21.33876,0 0.21087,2.13996 c 0.465,4.71916 2.03352,7.72807 4.85439,9.31227 2.94243,1.65245 4.4391,1.78699 21.78726,1.95854 l 15.825,0.15649 0,7.31637 0,7.31637 -16.275,-0.0309 c -11.6778,-0.0222 -17.09715,-0.14303 -19.18554,-0.42783 z"
         style="fill:#201e21;fill-opacity:1" />
      <path
         inkscape:connector-curvature="0"
         id="path4209"
         d="m 139.27148,375.87109 0,7.34961 0,7.34961 18.10938,0 c 14.88456,0 18.57791,0.081 20.73437,0.45703 6.38127,1.1128 9.07815,3.96746 9.39063,9.94141 l 0.14648,2.80078 -14.57812,0 c -15.49614,0 -18.88776,0.19901 -23.60352,1.37891 -10.74129,2.68753 -15.49345,9.9425 -14.91601,22.77148 0.46512,10.33274 5.96671,16.74374 15.96679,18.60547 1.62012,0.30161 8.32256,0.39707 29.33594,0.41797 l 27.23828,0.0273 -0.10156,-25.27539 c -0.10047,-25.05314 -0.10566,-25.2966 -0.77148,-27.82422 -2.14446,-8.14123 -7.18216,-13.60619 -14.91016,-16.17578 -5.31312,-1.76663 -6.23222,-1.82322 -30.2168,-1.82422 l -21.82422,0 z m 48.59961,41.95508 0,7.37305 0,7.37109 -14.17578,-0.0273 c -14.8065,-0.028 -16.05617,-0.12295 -17.71484,-1.35742 -1.29657,-0.965 -1.80584,-2.17074 -1.94531,-4.60157 -0.25038,-4.36449 1.13473,-6.68968 4.69336,-7.87304 1.91337,-0.63626 2.52528,-0.66671 15.5664,-0.77344 l 13.57617,-0.11133 z"
         style="fill:#201e21;fill-opacity:1" />
      <path
         inkscape:connector-curvature="0"
         id="path4201"
         d="m 217.57064,358.62033 0,-8.85 9.9,0 9.9,0 0,8.85 0,8.85 -9.9,0 -9.9,0 0,-8.85 z"
         style="fill:#201e21;fill-opacity:1" />
    </g>
  </g>
</svg>
