<?xml version="1.0" encoding="UTF-8" standalone="no"?>
<svg
   xmlns:ns="http://creativecommons.org/ns#"
   xmlns:dc="http://purl.org/dc/elements/1.1/"
   xmlns:cc="http://web.resource.org/cc/"
   xmlns:rdf="http://www.w3.org/1999/02/22-rdf-syntax-ns#"
   xmlns:svg="http://www.w3.org/2000/svg"
   xmlns="http://www.w3.org/2000/svg"
   xmlns:sodipodi="http://sodipodi.sourceforge.net/DTD/sodipodi-0.dtd"
   xmlns:inkscape="http://www.inkscape.org/namespaces/inkscape"
   width="278.95624"
   height="278.87155"
   viewBox="0 0 151.04 73.759998"
   version="1.0"
   id="svg2"
   inkscape:version="0.45.1"
   sodipodi:docname="PSOE_logo.svg"
   sodipodi:version="0.32"
   inkscape:output_extension="org.inkscape.output.svg.inkscape"
   sodipodi:docbase="C:\Documents and Settings\HP_Administrator\Desktop">
  <metadata
     id="metadata62">
    <rdf:RDF>
      <ns:Work
         rdf:about="">
        <dc:format>image/svg+xml</dc:format>
        <dc:type
           rdf:resource="http://purl.org/dc/dcmitype/StillImage" />
      </ns:Work>
      <cc:Work
         rdf:about="">
        <dc:format>image/svg+xml</dc:format>
        <dc:type
           rdf:resource="http://purl.org/dc/dcmitype/StillImage" />
      </cc:Work>
    </rdf:RDF>
  </metadata>
  <defs
     id="defs60" />
  <sodipodi:namedview
     pagecolor="#ffffff"
     bordercolor="#666666"
     borderopacity="1"
     objecttolerance="10"
     gridtolerance="10"
     guidetolerance="10"
     inkscape:pageopacity="0"
     inkscape:pageshadow="2"
     inkscape:window-width="1024"
     inkscape:window-height="746"
     id="namedview58"
     showgrid="false"
     inkscape:zoom="1.3945801"
     inkscape:cx="139.47812"
     inkscape:cy="139.43578"
     inkscape:window-x="0"
     inkscape:window-y="0"
     inkscape:window-maximized="1"
     inkscape:current-layer="svg2" />
  <g
     id="g2185"
     transform="matrix(2.0466436,0,0,2.0471117,2.1150271e-3,-38.616376)">
    <g
       transform="scale(0.16,0.16)"
       id="#ee1c25ff">
      <path
         style="fill:#ee1c25"
         id="path5"
         d="M 0,0 L 460.18,0 C 461.64,1.18 460.87,3.38 461.14,5 C 461.04,150.02 461.13,295.05 461.1,440.07 C 461.09,447.05 461.22,454.03 460.76,461 L 0,461 L 0,0 M 276.4,217.67 C 268,218.54 259.63,221.58 253.25,227.22 C 245.21,234.05 240.28,243.85 237.49,253.87 C 233.42,268.53 233.06,283.89 233.74,298.99 C 234.71,312.85 237.22,327.16 244.72,339.12 C 250.46,348.54 260.21,355.26 271.03,357.35 C 283.76,359.71 297.84,358.36 308.67,350.78 C 318.92,343.55 324.82,331.75 327.81,319.85 C 332.09,302.09 332.23,283.52 329.82,265.48 C 327.65,251.21 322.69,236.29 311.23,226.76 C 301.7,218.61 288.55,216.57 276.4,217.67 M 147.56,229.52 C 138.51,238.73 135.18,252.55 137.35,265.09 C 138.29,273.7 142.85,281.82 149.62,287.22 C 156.58,292.96 164.75,296.94 172.91,300.66 C 177.92,302.84 182.98,305.21 187.04,308.93 C 191.67,313.06 192.64,320.45 189.95,325.9 C 187.07,330.9 180.25,331.57 175.22,329.98 C 167.58,326.78 161.99,320.32 156.68,314.2 C 149.07,320.9 141.52,327.67 134.15,334.63 C 140.89,343.32 149.04,351.5 159.62,355.26 C 171.23,359.2 184.1,359.47 195.86,356.05 C 206.7,352.9 216.39,345.1 220.58,334.46 C 224.62,324.09 224.49,312.27 221.21,301.71 C 217.19,289.68 206.31,281.86 195.51,276.27 C 187.85,271.98 178.82,269.85 172.34,263.67 C 167.64,259.54 167.15,251.18 172.07,247.03 C 175.67,244.25 180.72,244.67 184.8,246.03 C 191.04,248.46 194.44,254.55 199.11,258.91 C 200.91,258.9 202.02,257.28 203.33,256.28 C 209.55,250.44 216.15,245.02 222.26,239.06 C 217.95,233.67 213.17,228.56 207.4,224.72 C 199.34,219.4 189.55,217.23 179.98,217.5 C 168.19,217.04 155.84,220.87 147.56,229.52 M 38.13,219.48 C 37.72,224.97 38.11,230.47 38.04,235.97 C 38.14,276.08 38,316.2 38.11,356.31 C 48.84,356.25 59.58,356.33 70.31,356.27 C 70.29,339.74 70.27,323.2 70.32,306.67 C 79.19,306.53 88.23,307.3 96.93,305.13 C 105.37,303.2 113.49,298.72 118.58,291.56 C 124.9,282.78 126.73,271.6 126.5,260.99 C 126.5,250.22 123.96,238.74 116.35,230.7 C 108.58,222.55 96.9,219.71 85.99,219.53 C 70.04,219.47 54.08,219.58 38.13,219.48 M 347.13,219.5 C 346.9,265.1 346.95,310.7 347.16,356.3 C 374.27,356.31 401.37,356.26 428.48,356.32 C 428.48,346.86 428.49,337.4 428.47,327.94 C 412.21,327.99 395.95,328.16 379.69,327.85 C 379.76,318.13 379.65,308.41 379.74,298.7 C 390.05,298.64 400.36,298.71 410.68,298.67 C 410.67,289.34 410.68,280.01 410.67,270.68 C 400.35,270.63 390.03,270.72 379.71,270.63 C 379.71,263 379.72,255.37 379.72,247.74 C 395.6,247.63 411.48,247.85 427.36,247.62 C 427.31,238.27 427.3,228.91 427.34,219.55 C 400.6,219.47 373.87,219.56 347.13,219.5 L 347.13,219.5 z " />
      <path
         style="fill:#ee1c25"
         id="path35"
         d="M 280.49,245.78 C 283.92,245.37 287.74,246.21 290.12,248.87 C 293.63,252.54 294.86,257.67 295.82,262.51 C 297.13,270.25 297.65,278.11 297.52,285.95 C 297.64,296.49 297.44,307.14 295.03,317.45 C 293.83,322 291.75,326.95 287.32,329.19 C 283.45,330.4 278.59,330.52 275.43,327.62 C 272.16,324.96 270.86,320.78 269.75,316.89 C 267.01,305.83 267.34,294.33 267.33,283.02 C 267.43,273.65 267.77,264.1 270.64,255.12 C 272.04,250.59 275.52,246.34 280.49,245.78 L 280.49,245.78 z " />
      <path
         style="fill:#ee1c25"
         id="path37"
         d="M 70.31,246.3 C 76.81,246.88 84.44,244.52 89.95,249.03 C 94.24,253.51 93.97,260.23 93.79,265.99 C 93.71,271.23 91.66,277.39 86.21,279.21 C 81,280.45 75.58,280.06 70.28,279.91 C 70.31,268.71 70.26,257.51 70.31,246.3 z " />
    </g>
    <g
       transform="matrix(0.16,0,0,0.16,0.3152275,0)"
       id="#fefefeff">
      <path
         style="fill:#ffffff"
         id="path50"
         d="M 276.4,217.67 C 288.55,216.57 301.7,218.61 311.23,226.76 C 322.69,236.29 327.65,251.21 329.82,265.48 C 332.23,283.52 332.09,302.09 327.81,319.85 C 324.82,331.75 318.92,343.55 308.67,350.78 C 297.84,358.36 283.76,359.71 271.03,357.35 C 260.21,355.26 250.46,348.54 244.72,339.12 C 237.22,327.16 234.71,312.85 233.74,298.99 C 233.06,283.89 233.42,268.53 237.49,253.87 C 240.28,243.85 245.21,234.05 253.25,227.22 C 259.63,221.58 268,218.54 276.4,217.67 M 280.49,245.78 C 275.52,246.34 272.04,250.59 270.64,255.12 C 267.77,264.1 267.43,273.65 267.33,283.02 C 267.34,294.33 267.01,305.83 269.75,316.89 C 270.86,320.78 272.16,324.96 275.43,327.62 C 278.59,330.52 283.45,330.4 287.32,329.19 C 291.75,326.95 293.83,322 295.03,317.45 C 297.44,307.14 297.64,296.49 297.52,285.95 C 297.65,278.11 297.13,270.25 295.82,262.51 C 294.86,257.67 293.63,252.54 290.12,248.87 C 287.74,246.21 283.92,245.37 280.49,245.78 L 280.49,245.78 z " />
      <path
         style="fill:#ffffff"
         id="path52"
         d="M 147.56,229.52 C 155.84,220.87 168.19,217.04 179.98,217.5 C 189.55,217.23 199.34,219.4 207.4,224.72 C 213.17,228.56 217.95,233.67 222.26,239.06 C 216.15,245.02 209.55,250.44 203.33,256.28 C 202.02,257.28 200.91,258.9 199.11,258.91 C 194.44,254.55 191.04,248.46 184.8,246.03 C 180.72,244.67 175.67,244.25 172.07,247.03 C 167.15,251.18 167.64,259.54 172.34,263.67 C 178.82,269.85 187.85,271.98 195.51,276.27 C 206.31,281.86 217.19,289.68 221.21,301.71 C 224.49,312.27 224.62,324.09 220.58,334.46 C 216.39,345.1 206.7,352.9 195.86,356.05 C 184.1,359.47 171.23,359.2 159.62,355.26 C 149.04,351.5 140.89,343.32 134.15,334.63 C 141.52,327.67 149.07,320.9 156.68,314.2 C 161.99,320.32 167.58,326.78 175.22,329.98 C 180.25,331.57 187.07,330.9 189.95,325.9 C 192.64,320.45 191.67,313.06 187.04,308.93 C 182.98,305.21 177.92,302.84 172.91,300.66 C 164.75,296.94 156.58,292.96 149.62,287.22 C 142.85,281.82 138.29,273.7 137.35,265.09 C 135.18,252.55 138.51,238.73 147.56,229.52 L 147.56,229.52 z " />
      <path
         style="fill:#ffffff"
         id="path54"
         d="M 38.13,219.48 C 54.08,219.58 70.04,219.47 85.99,219.53 C 96.9,219.71 108.58,222.55 116.35,230.7 C 123.96,238.74 126.5,250.22 126.5,260.99 C 126.73,271.6 124.9,282.78 118.58,291.56 C 113.49,298.72 105.37,303.2 96.93,305.13 C 88.23,307.3 79.19,306.53 70.32,306.67 C 70.27,323.2 70.29,339.74 70.31,356.27 C 59.58,356.33 48.84,356.25 38.11,356.31 C 38,316.2 38.14,276.08 38.04,235.97 C 38.11,230.47 37.72,224.97 38.13,219.48 M 70.31,246.3 C 70.26,257.51 70.31,268.71 70.28,279.91 C 75.58,280.06 81,280.45 86.21,279.21 C 91.66,277.39 93.71,271.23 93.79,265.99 C 93.97,260.23 94.24,253.51 89.95,249.03 C 84.44,244.52 76.81,246.88 70.31,246.3 L 70.31,246.3 z " />
      <path
         style="fill:#ffffff"
         id="path56"
         d="M 347.13,219.5 C 373.87,219.56 400.6,219.47 427.34,219.55 C 427.3,228.91 427.31,238.27 427.36,247.62 C 411.48,247.85 395.6,247.63 379.72,247.74 C 379.72,255.37 379.71,263 379.71,270.63 C 390.03,270.72 400.35,270.63 410.67,270.68 C 410.68,280.01 410.67,289.34 410.68,298.67 C 400.36,298.71 390.05,298.64 379.74,298.7 C 379.65,308.41 379.76,318.13 379.69,327.85 C 395.95,328.16 412.21,327.99 428.47,327.94 C 428.49,337.4 428.48,346.86 428.48,356.32 C 401.37,356.26 374.27,356.31 347.16,356.3 C 346.95,310.7 346.9,265.1 347.13,219.5 L 347.13,219.5 z " />
    </g>
  </g>
</svg>
