<svg width="25" height="14" viewBox="0 0 25 14" fill="none" xmlns="http://www.w3.org/2000/svg">
<path id="Line 4" d="M21.6984 13.5185C22.5371 14.2374 23.7997 14.1402 24.5185 13.3016C25.2374 12.4629 25.1402 11.2003 24.3016 10.4815L21.6984 13.5185ZM0.698418 10.4815C-0.140234 11.2003 -0.237358 12.4629 0.481487 13.3016C1.20033 14.1402 2.46293 14.2374 3.30158 13.5185L0.698418 10.4815ZM12.5 3L13.8016 1.48149L12.5 0.365844L11.1984 1.48149L12.5 3ZM24.3016 10.4815L13.8016 1.48149L11.1984 4.51851L21.6984 13.5185L24.3016 10.4815ZM11.1984 1.48149L0.698418 10.4815L3.30158 13.5185L13.8016 4.51851L11.1984 1.48149Z" fill="white"/>
</svg>
