<svg width="21" height="11" viewBox="0 0 21 11" fill="none" xmlns="http://www.w3.org/2000/svg">
<path d="M18.0464 10.1579C18.6859 10.6845 19.6313 10.593 20.1579 9.95356C20.6845 9.31407 20.593 8.36874 19.9536 7.8421L18.0464 10.1579ZM1.04644 7.8421C0.406952 8.36874 0.315468 9.31407 0.842104 9.95356C1.36874 10.593 2.31407 10.6845 2.95356 10.1579L1.04644 7.8421ZM10.5 2L11.4536 0.842105L10.5 0.0568201L9.54644 0.842105L10.5 2ZM19.9536 7.8421L11.4536 0.842105L9.54644 3.1579L18.0464 10.1579L19.9536 7.8421ZM9.54644 0.842105L1.04644 7.8421L2.95356 10.1579L11.4536 3.1579L9.54644 0.842105Z" fill="white"/>
</svg>
