<svg id="svg" version="1.1" width="400" height="165.59139784946237" viewBox="0 0 400 165.59139784946237" xmlns="http://www.w3.org/2000/svg" xmlns:xlink="http://www.w3.org/1999/xlink" ><g id="svgg"><path id="path0" d="M270.708 63.292 C 274.352 63.317,280.315 63.317,283.958 63.292 C 287.602 63.267,284.621 63.246,277.333 63.246 C 270.046 63.246,267.065 63.267,270.708 63.292 M248.914 90.167 C 248.914 101.671,248.934 106.377,248.958 100.625 C 248.983 94.873,248.983 85.460,248.958 79.708 C 248.934 73.956,248.914 78.662,248.914 90.167 " stroke="none" fill="#0000ff" fill-rule="evenodd"></path><path id="path1" d="M185.167 63.000 C 185.167 63.092,184.988 63.167,184.770 63.167 C 184.552 63.167,184.281 63.279,184.167 63.417 C 184.053 63.554,183.835 63.667,183.683 63.667 C 183.531 63.667,183.299 63.817,183.167 64.000 C 183.035 64.183,182.827 64.333,182.706 64.333 C 182.423 64.333,181.824 64.932,181.415 65.625 C 181.239 65.923,181.036 66.167,180.964 66.167 C 180.892 66.167,180.833 66.317,180.833 66.500 C 180.833 66.683,180.758 66.833,180.667 66.833 C 180.575 66.833,180.500 67.016,180.500 67.240 C 180.500 67.464,180.425 67.693,180.333 67.750 C 180.223 67.818,180.167 75.974,180.167 91.677 C 180.167 107.448,180.223 115.500,180.333 115.500 C 180.430 115.500,180.500 116.028,180.500 116.750 C 180.500 117.472,180.570 118.000,180.667 118.000 C 180.759 118.000,180.833 118.441,180.833 118.990 C 180.833 119.535,180.908 120.027,181.000 120.083 C 181.092 120.140,181.167 120.482,181.167 120.843 C 181.167 121.204,181.242 121.500,181.333 121.500 C 181.425 121.500,181.500 121.692,181.500 121.927 C 181.500 122.445,181.983 123.970,182.187 124.096 C 182.267 124.146,182.333 124.407,182.333 124.677 C 182.333 124.946,182.408 125.167,182.500 125.167 C 182.592 125.167,182.667 125.317,182.667 125.500 C 182.667 125.683,182.742 125.833,182.833 125.833 C 182.925 125.833,183.000 126.054,183.000 126.323 C 183.000 126.593,183.075 126.860,183.167 126.917 C 183.258 126.973,183.333 127.165,183.333 127.343 C 183.333 127.521,183.408 127.667,183.500 127.667 C 183.592 127.667,183.667 127.817,183.667 128.000 C 183.667 128.183,183.742 128.333,183.833 128.333 C 183.925 128.333,184.000 128.474,184.000 128.646 C 184.000 128.818,184.112 129.053,184.250 129.167 C 184.387 129.281,184.500 129.477,184.500 129.604 C 184.500 129.730,184.575 129.833,184.667 129.833 C 184.758 129.833,184.833 129.983,184.833 130.167 C 184.833 130.350,184.897 130.500,184.974 130.500 C 185.051 130.500,185.288 130.837,185.500 131.250 C 185.712 131.662,185.931 132.000,185.986 132.000 C 186.040 132.000,186.185 132.225,186.307 132.500 C 186.428 132.775,186.634 133.000,186.764 133.000 C 186.894 133.000,187.000 133.112,187.000 133.250 C 187.000 133.387,187.075 133.500,187.167 133.500 C 187.258 133.500,187.333 133.612,187.333 133.750 C 187.333 133.887,187.408 134.000,187.500 134.000 C 187.592 134.000,187.667 134.079,187.667 134.175 C 187.667 134.443,190.992 137.667,191.269 137.667 C 191.323 137.667,191.629 137.929,191.950 138.250 C 192.271 138.571,192.604 138.833,192.690 138.833 C 192.777 138.833,193.008 138.983,193.205 139.167 C 193.402 139.350,193.682 139.500,193.828 139.500 C 193.974 139.500,194.201 139.650,194.333 139.833 C 194.465 140.017,194.707 140.167,194.870 140.167 C 195.033 140.167,195.167 140.223,195.168 140.292 C 195.169 140.459,196.133 141.000,196.430 141.000 C 196.560 141.000,196.667 141.075,196.667 141.167 C 196.667 141.258,196.817 141.333,197.000 141.333 C 197.183 141.333,197.333 141.408,197.333 141.500 C 197.333 141.592,197.521 141.667,197.750 141.667 C 197.979 141.667,198.167 141.742,198.167 141.833 C 198.167 141.925,198.392 142.000,198.667 142.000 C 198.942 142.000,199.167 142.075,199.167 142.167 C 199.167 142.258,199.354 142.333,199.583 142.333 C 199.813 142.333,200.000 142.408,200.000 142.500 C 200.000 142.592,200.169 142.669,200.375 142.672 C 200.581 142.675,200.896 142.787,201.074 142.922 C 201.251 143.057,201.603 143.167,201.855 143.167 C 202.107 143.167,202.360 143.242,202.417 143.333 C 202.473 143.425,202.815 143.500,203.177 143.500 C 203.538 143.500,203.833 143.575,203.833 143.667 C 203.833 143.758,204.166 143.833,204.573 143.833 C 204.981 143.833,205.360 143.908,205.417 144.000 C 205.473 144.092,206.003 144.167,206.593 144.167 C 207.198 144.167,207.667 144.239,207.667 144.333 C 207.667 144.435,208.444 144.500,209.667 144.500 C 210.889 144.500,211.667 144.565,211.667 144.667 C 211.667 144.771,212.636 144.833,214.240 144.833 C 215.776 144.833,216.855 144.766,216.917 144.667 C 216.976 144.571,217.835 144.500,218.927 144.500 C 220.087 144.500,220.833 144.435,220.833 144.333 C 220.833 144.239,221.302 144.167,221.907 144.167 C 222.497 144.167,223.027 144.092,223.083 144.000 C 223.140 143.908,223.515 143.833,223.917 143.833 C 224.318 143.833,224.688 143.766,224.739 143.684 C 224.790 143.602,225.113 143.494,225.457 143.444 C 226.682 143.265,227.158 143.127,227.348 142.899 C 227.454 142.771,227.757 142.667,228.020 142.667 C 228.284 142.667,228.500 142.592,228.500 142.500 C 228.500 142.408,228.725 142.333,229.000 142.333 C 229.275 142.333,229.500 142.258,229.500 142.167 C 229.500 142.075,229.688 142.000,229.917 142.000 C 230.146 142.000,230.333 141.925,230.333 141.833 C 230.333 141.742,230.465 141.668,230.625 141.669 C 230.985 141.672,233.233 140.535,233.668 140.130 C 233.843 139.967,234.102 139.833,234.243 139.833 C 234.384 139.833,234.500 139.777,234.500 139.707 C 234.500 139.638,234.744 139.475,235.042 139.345 C 235.340 139.215,235.705 138.972,235.853 138.804 C 236.001 138.637,236.189 138.499,236.270 138.499 C 236.350 138.498,236.679 138.251,237.000 137.951 C 237.321 137.650,237.846 137.220,238.167 136.995 C 238.838 136.523,240.003 135.349,240.641 134.500 C 240.882 134.179,241.212 133.795,241.373 133.647 C 241.535 133.499,241.667 133.327,241.667 133.265 C 241.667 133.142,241.882 132.866,242.458 132.250 C 242.665 132.029,242.833 131.733,242.833 131.591 C 242.833 131.449,242.908 131.333,243.000 131.333 C 243.092 131.333,243.167 131.221,243.167 131.083 C 243.167 130.946,243.242 130.833,243.333 130.833 C 243.425 130.833,243.500 130.718,243.500 130.576 C 243.500 130.435,243.640 130.169,243.811 129.985 C 243.982 129.802,244.264 129.373,244.436 129.034 C 244.609 128.694,244.806 128.392,244.875 128.361 C 244.944 128.331,245.000 128.198,245.000 128.067 C 245.000 127.936,245.075 127.680,245.167 127.498 C 245.258 127.316,245.408 127.018,245.500 126.836 C 245.592 126.654,245.667 126.354,245.667 126.169 C 245.667 125.984,245.742 125.833,245.833 125.833 C 245.925 125.833,246.000 125.688,246.000 125.510 C 246.000 125.332,246.075 125.140,246.167 125.083 C 246.258 125.027,246.333 124.792,246.333 124.562 C 246.333 124.331,246.446 124.030,246.583 123.893 C 246.721 123.755,246.833 123.465,246.833 123.248 C 246.833 123.031,246.908 122.807,247.000 122.750 C 247.092 122.693,247.167 122.389,247.167 122.073 C 247.167 121.758,247.242 121.500,247.333 121.500 C 247.425 121.500,247.500 121.204,247.500 120.843 C 247.500 120.482,247.575 120.140,247.667 120.083 C 247.758 120.027,247.833 119.614,247.833 119.167 C 247.833 118.719,247.908 118.307,248.000 118.250 C 248.092 118.193,248.167 117.626,248.167 116.990 C 248.167 116.330,248.238 115.833,248.333 115.833 C 248.435 115.833,248.500 115.059,248.500 113.843 C 248.500 112.696,248.571 111.809,248.667 111.750 C 248.776 111.682,248.833 104.359,248.833 90.323 C 248.833 76.219,248.777 69.000,248.667 69.000 C 248.575 69.000,248.500 68.667,248.500 68.260 C 248.500 67.853,248.425 67.473,248.333 67.417 C 248.242 67.360,248.167 67.131,248.167 66.907 C 248.167 66.683,248.110 66.500,248.041 66.500 C 247.972 66.500,247.737 66.162,247.518 65.750 C 247.299 65.337,247.067 65.000,247.002 65.000 C 246.936 65.000,246.647 64.775,246.360 64.500 C 246.072 64.225,245.723 64.000,245.585 64.000 C 245.447 64.000,245.333 63.925,245.333 63.833 C 245.333 63.742,245.190 63.667,245.014 63.667 C 244.838 63.667,244.667 63.584,244.633 63.482 C 244.454 62.946,239.333 62.480,239.333 63.000 C 239.333 63.092,239.151 63.167,238.929 63.167 C 238.706 63.167,238.411 63.279,238.274 63.417 C 238.136 63.554,237.933 63.667,237.823 63.667 C 237.713 63.667,237.501 63.798,237.353 63.959 C 237.205 64.121,236.875 64.359,236.621 64.490 C 236.367 64.620,235.955 65.051,235.705 65.447 C 235.455 65.842,235.194 66.166,235.125 66.166 C 235.056 66.167,235.000 66.317,235.000 66.500 C 235.000 66.683,234.925 66.833,234.833 66.833 C 234.742 66.833,234.667 67.052,234.667 67.319 C 234.667 67.587,234.573 67.837,234.458 67.875 C 234.294 67.930,234.226 72.554,234.137 89.847 C 234.025 111.389,233.963 114.593,233.655 114.908 C 233.570 114.995,233.500 115.427,233.500 115.867 C 233.500 116.307,233.425 116.667,233.333 116.667 C 233.242 116.667,233.167 116.967,233.167 117.333 C 233.167 117.700,233.092 118.000,233.000 118.000 C 232.908 118.000,232.833 118.263,232.833 118.583 C 232.833 118.904,232.758 119.167,232.667 119.167 C 232.575 119.167,232.500 119.392,232.500 119.667 C 232.500 119.942,232.425 120.167,232.333 120.167 C 232.242 120.167,232.167 120.307,232.167 120.480 C 232.167 120.652,232.070 120.873,231.951 120.972 C 231.832 121.070,231.631 121.417,231.503 121.742 C 231.376 122.067,231.210 122.333,231.136 122.333 C 231.061 122.333,231.000 122.483,231.000 122.667 C 231.000 122.850,230.925 123.000,230.833 123.000 C 230.742 123.000,230.667 123.112,230.667 123.250 C 230.667 123.388,230.592 123.500,230.500 123.500 C 230.408 123.500,230.333 123.612,230.333 123.750 C 230.333 123.887,230.031 124.312,229.660 124.693 C 229.290 125.074,228.862 125.599,228.708 125.860 C 228.554 126.120,228.343 126.333,228.239 126.333 C 228.135 126.333,227.814 126.558,227.526 126.833 C 227.238 127.108,226.966 127.333,226.920 127.333 C 226.827 127.333,226.271 127.770,225.808 128.208 C 225.639 128.369,225.387 128.500,225.250 128.500 C 225.112 128.500,225.000 128.575,225.000 128.667 C 225.000 128.758,224.850 128.833,224.667 128.833 C 224.483 128.833,224.333 128.908,224.333 129.000 C 224.333 129.092,224.146 129.167,223.917 129.167 C 223.688 129.167,223.500 129.242,223.500 129.333 C 223.500 129.425,223.350 129.500,223.167 129.500 C 222.983 129.500,222.833 129.575,222.833 129.667 C 222.833 129.758,222.613 129.833,222.343 129.833 C 222.074 129.833,221.807 129.908,221.750 130.000 C 221.693 130.092,221.426 130.167,221.157 130.167 C 220.887 130.167,220.667 130.231,220.667 130.310 C 220.667 130.389,220.273 130.500,219.793 130.557 C 219.312 130.614,218.893 130.737,218.862 130.830 C 218.828 130.932,218.076 131.000,216.996 131.000 C 215.969 131.000,215.142 131.072,215.083 131.167 C 215.027 131.258,214.727 131.333,214.417 131.333 C 214.107 131.333,213.807 131.258,213.750 131.167 C 213.692 131.073,212.892 131.000,211.921 131.000 C 210.788 131.000,210.173 130.935,210.132 130.812 C 210.097 130.709,209.679 130.587,209.201 130.541 C 208.724 130.495,208.333 130.392,208.333 130.312 C 208.333 130.232,208.113 130.167,207.843 130.167 C 207.574 130.167,207.307 130.092,207.250 130.000 C 207.193 129.908,207.000 129.833,206.821 129.833 C 206.642 129.833,206.365 129.767,206.206 129.686 C 205.035 129.088,203.763 128.500,203.643 128.500 C 203.564 128.500,203.365 128.369,203.200 128.208 C 203.035 128.048,202.648 127.729,202.340 127.500 C 202.032 127.271,201.699 127.006,201.599 126.911 C 201.499 126.816,201.192 126.579,200.917 126.384 C 200.642 126.189,200.117 125.610,199.750 125.099 C 199.383 124.587,198.990 124.168,198.875 124.168 C 198.760 124.167,198.667 124.017,198.667 123.833 C 198.667 123.650,198.592 123.500,198.500 123.500 C 198.408 123.500,198.333 123.394,198.333 123.264 C 198.333 123.134,198.272 123.003,198.198 122.972 C 198.020 122.899,196.667 120.206,196.667 119.925 C 196.667 119.805,196.554 119.614,196.417 119.500 C 196.279 119.386,196.167 119.119,196.167 118.906 C 196.167 118.694,196.092 118.473,196.000 118.417 C 195.908 118.360,195.833 118.060,195.833 117.750 C 195.833 117.440,195.758 117.140,195.667 117.083 C 195.575 117.027,195.500 116.685,195.500 116.323 C 195.500 115.962,195.425 115.667,195.333 115.667 C 195.241 115.667,195.167 115.233,195.167 114.700 C 195.167 114.168,195.092 113.659,195.001 113.568 C 194.894 113.461,194.814 105.628,194.773 91.326 C 194.711 69.346,194.674 67.723,194.232 67.553 C 194.105 67.504,194.000 67.264,194.000 67.019 C 194.000 66.765,193.857 66.470,193.667 66.333 C 193.483 66.201,193.333 65.974,193.333 65.829 C 193.333 65.520,192.291 64.333,192.019 64.333 C 191.917 64.333,191.833 64.258,191.833 64.167 C 191.833 64.075,191.683 64.000,191.500 64.000 C 191.317 64.000,191.167 63.925,191.167 63.833 C 191.167 63.742,191.023 63.667,190.847 63.667 C 190.672 63.667,190.500 63.584,190.466 63.482 C 190.288 62.946,185.167 62.480,185.167 63.000 M333.774 63.417 C 333.636 63.554,333.293 63.667,333.012 63.667 C 332.730 63.667,332.500 63.742,332.500 63.833 C 332.500 63.925,332.350 64.000,332.167 64.000 C 331.983 64.000,331.833 64.075,331.833 64.167 C 331.833 64.258,331.721 64.333,331.583 64.333 C 331.446 64.333,331.333 64.408,331.333 64.500 C 331.333 64.592,331.235 64.667,331.115 64.667 C 330.859 64.667,330.386 65.088,329.917 65.734 C 329.733 65.987,329.447 66.355,329.280 66.553 C 329.113 66.750,328.934 67.121,328.883 67.376 C 328.832 67.631,328.725 67.881,328.645 67.930 C 328.565 67.979,328.500 68.236,328.500 68.500 C 328.500 68.764,328.425 69.027,328.333 69.083 C 328.223 69.151,328.167 80.943,328.167 103.917 C 328.167 126.890,328.223 138.682,328.333 138.750 C 328.425 138.807,328.500 139.037,328.500 139.262 C 328.500 139.487,328.566 139.801,328.647 139.961 C 328.728 140.120,328.897 140.475,329.022 140.750 C 329.147 141.025,329.325 141.331,329.417 141.429 C 329.508 141.527,329.771 141.846,330.000 142.136 C 330.229 142.426,330.507 142.664,330.617 142.665 C 330.727 142.666,330.877 142.771,330.950 142.898 C 331.114 143.183,332.253 143.833,332.588 143.833 C 332.723 143.833,332.833 143.908,332.833 144.000 C 332.833 144.092,333.171 144.167,333.583 144.167 C 333.996 144.167,334.333 144.242,334.333 144.333 C 334.333 144.429,334.833 144.500,335.500 144.500 C 336.167 144.500,336.667 144.429,336.667 144.333 C 336.667 144.242,337.004 144.167,337.417 144.167 C 337.829 144.167,338.167 144.092,338.167 144.000 C 338.167 143.908,338.317 143.833,338.500 143.833 C 338.683 143.833,338.833 143.758,338.833 143.667 C 338.833 143.575,338.953 143.500,339.100 143.500 C 339.403 143.500,341.447 141.467,341.679 140.934 C 341.764 140.741,341.899 140.471,341.980 140.333 C 342.707 139.103,342.694 139.534,342.810 112.757 C 342.915 88.537,342.920 88.270,343.236 88.757 C 343.412 89.028,343.731 89.402,343.945 89.589 C 344.158 89.775,344.333 90.019,344.333 90.130 C 344.333 90.242,344.408 90.333,344.500 90.333 C 344.592 90.333,344.667 90.429,344.667 90.547 C 344.667 90.664,344.817 90.868,345.000 91.000 C 345.183 91.132,345.333 91.323,345.333 91.425 C 345.333 91.526,345.671 91.977,346.083 92.426 C 346.496 92.875,346.833 93.308,346.833 93.388 C 346.833 93.468,347.058 93.743,347.333 94.000 C 347.608 94.257,347.833 94.544,347.833 94.638 C 347.833 94.733,348.096 95.088,348.417 95.428 C 348.738 95.768,349.000 96.100,349.000 96.165 C 349.000 96.231,349.225 96.519,349.500 96.807 C 349.775 97.095,350.000 97.406,350.000 97.498 C 350.000 97.591,350.075 97.667,350.167 97.667 C 350.258 97.667,350.333 97.771,350.333 97.899 C 350.333 98.027,350.596 98.363,350.917 98.644 C 351.238 98.926,351.500 99.233,351.500 99.326 C 351.500 99.499,351.814 99.923,352.417 100.563 C 352.600 100.757,352.856 101.123,352.986 101.375 C 353.117 101.627,353.323 101.833,353.445 101.833 C 353.567 101.833,353.667 101.946,353.667 102.083 C 353.667 102.221,353.742 102.333,353.833 102.333 C 353.925 102.333,354.000 102.431,354.000 102.551 C 354.000 102.670,354.262 103.055,354.583 103.405 C 354.904 103.755,355.167 104.095,355.167 104.160 C 355.167 104.226,355.467 104.594,355.833 104.980 C 356.200 105.365,356.500 105.762,356.500 105.862 C 356.500 105.962,356.635 106.166,356.800 106.314 C 356.964 106.462,357.280 106.846,357.500 107.167 C 357.721 107.487,358.149 108.001,358.451 108.308 C 358.753 108.615,359.000 108.972,359.000 109.100 C 359.000 109.228,359.075 109.333,359.167 109.333 C 359.258 109.333,359.333 109.411,359.333 109.506 C 359.333 109.677,359.613 110.025,360.583 111.058 C 360.858 111.351,361.196 111.814,361.333 112.086 C 361.471 112.358,361.827 112.828,362.125 113.129 C 362.423 113.431,362.667 113.739,362.667 113.814 C 362.667 113.889,362.892 114.186,363.167 114.474 C 363.442 114.762,363.667 115.057,363.667 115.130 C 363.667 115.203,363.967 115.595,364.333 116.000 C 364.700 116.405,365.000 116.793,365.000 116.863 C 365.000 116.932,365.244 117.239,365.542 117.545 C 365.840 117.851,366.203 118.311,366.349 118.567 C 366.613 119.029,367.085 119.620,368.125 120.789 C 368.423 121.124,368.667 121.496,368.667 121.616 C 368.667 121.735,368.742 121.833,368.833 121.833 C 368.925 121.833,369.000 121.912,369.000 122.008 C 369.000 122.103,369.169 122.355,369.375 122.566 C 370.001 123.208,370.500 123.829,370.500 123.964 C 370.500 124.035,370.650 124.201,370.833 124.333 C 371.017 124.465,371.167 124.672,371.167 124.792 C 371.167 124.913,371.429 125.274,371.750 125.594 C 372.071 125.915,372.333 126.235,372.333 126.304 C 372.333 126.373,372.633 126.762,373.000 127.167 C 373.367 127.572,373.667 127.968,373.667 128.047 C 373.667 128.126,373.760 128.285,373.875 128.401 C 373.990 128.517,374.233 128.821,374.417 129.078 C 374.600 129.334,374.975 129.779,375.250 130.065 C 375.525 130.351,375.855 130.790,375.984 131.039 C 376.113 131.288,376.450 131.749,376.734 132.064 C 377.018 132.379,377.400 132.843,377.583 133.096 C 377.767 133.348,378.010 133.650,378.125 133.766 C 378.240 133.881,378.333 134.045,378.333 134.130 C 378.333 134.215,378.541 134.501,378.794 134.767 C 379.047 135.033,379.478 135.550,379.750 135.917 C 380.023 136.283,380.378 136.705,380.540 136.853 C 380.701 137.001,380.833 137.189,380.834 137.270 C 380.834 137.403,380.997 137.615,382.010 138.793 C 382.188 139.000,382.333 139.214,382.333 139.268 C 382.333 139.322,382.558 139.576,382.833 139.833 C 383.108 140.090,383.333 140.387,383.333 140.493 C 383.333 140.715,385.279 142.667,385.501 142.667 C 385.583 142.667,385.852 142.854,386.099 143.083 C 386.346 143.313,386.650 143.500,386.774 143.500 C 386.898 143.500,387.000 143.575,387.000 143.667 C 387.000 143.758,387.225 143.833,387.500 143.833 C 387.775 143.833,388.000 143.908,388.000 144.000 C 388.000 144.104,389.000 144.167,390.667 144.167 C 392.333 144.167,393.333 144.104,393.333 144.000 C 393.333 143.908,393.558 143.833,393.833 143.833 C 394.108 143.833,394.333 143.758,394.333 143.667 C 394.333 143.575,394.439 143.500,394.568 143.500 C 394.697 143.500,395.180 143.144,395.642 142.708 C 396.103 142.273,396.673 141.740,396.907 141.524 C 397.142 141.308,397.333 140.990,397.333 140.816 C 397.333 140.642,397.408 140.500,397.500 140.500 C 397.592 140.500,397.667 140.354,397.667 140.177 C 397.667 139.999,397.742 139.807,397.833 139.750 C 397.925 139.693,398.000 139.314,398.000 138.907 C 398.000 138.500,398.075 138.167,398.167 138.167 C 398.277 138.167,398.333 126.559,398.333 103.677 C 398.333 80.863,398.277 69.151,398.167 69.083 C 398.075 69.027,398.000 68.685,398.000 68.323 C 398.000 67.962,397.925 67.667,397.833 67.667 C 397.742 67.667,397.667 67.479,397.667 67.250 C 397.667 67.021,397.597 66.833,397.511 66.833 C 397.426 66.833,397.307 66.678,397.246 66.489 C 397.096 66.016,395.416 64.333,395.094 64.333 C 394.951 64.333,394.833 64.277,394.832 64.208 C 394.830 64.056,394.021 63.667,393.705 63.667 C 393.579 63.667,393.364 63.554,393.226 63.417 C 392.864 63.055,389.136 63.055,388.774 63.417 C 388.636 63.554,388.387 63.668,388.220 63.670 C 388.053 63.672,387.729 63.821,387.500 64.000 C 387.271 64.179,386.999 64.328,386.895 64.330 C 386.525 64.337,384.833 66.176,384.833 66.571 C 384.833 66.700,384.777 66.831,384.708 66.861 C 384.463 66.970,384.000 68.187,384.000 68.722 C 384.000 69.022,383.925 69.341,383.834 69.433 C 383.725 69.541,383.653 77.958,383.626 93.674 C 383.599 108.933,383.526 117.629,383.426 117.420 C 383.339 117.239,383.039 116.849,382.759 116.554 C 382.085 115.845,381.833 115.535,381.833 115.416 C 381.833 115.362,381.646 115.131,381.417 114.902 C 381.188 114.672,381.000 114.413,381.000 114.326 C 381.000 114.239,380.700 113.858,380.333 113.480 C 379.967 113.102,379.667 112.720,379.667 112.630 C 379.667 112.540,379.460 112.268,379.208 112.025 C 378.956 111.782,378.638 111.366,378.500 111.100 C 378.363 110.835,378.007 110.373,377.709 110.075 C 377.411 109.777,377.167 109.451,377.167 109.350 C 377.167 109.249,377.092 109.167,377.000 109.167 C 376.908 109.167,376.833 109.071,376.833 108.953 C 376.833 108.836,376.683 108.632,376.500 108.500 C 376.317 108.368,376.167 108.178,376.167 108.079 C 376.167 107.979,375.829 107.535,375.417 107.092 C 375.004 106.649,374.667 106.215,374.667 106.127 C 374.667 106.039,374.442 105.757,374.167 105.500 C 373.892 105.243,373.667 104.956,373.667 104.862 C 373.667 104.767,373.404 104.412,373.083 104.072 C 372.762 103.732,372.500 103.389,372.500 103.310 C 372.500 103.231,372.425 103.167,372.333 103.167 C 372.242 103.167,372.167 103.091,372.167 102.998 C 372.167 102.906,371.942 102.595,371.667 102.307 C 371.392 102.019,371.167 101.690,371.167 101.576 C 371.167 101.461,370.904 101.137,370.583 100.856 C 370.262 100.574,370.000 100.245,370.000 100.125 C 370.000 100.005,369.850 99.799,369.667 99.667 C 369.483 99.535,369.333 99.358,369.333 99.274 C 369.333 99.191,369.202 99.001,369.041 98.853 C 368.879 98.705,368.642 98.377,368.512 98.125 C 368.383 97.873,368.209 97.667,368.127 97.667 C 367.885 97.667,367.500 97.213,367.500 96.929 C 367.500 96.785,367.425 96.667,367.333 96.667 C 367.242 96.667,367.167 96.588,367.167 96.492 C 367.167 96.397,366.979 96.131,366.750 95.902 C 366.521 95.672,366.333 95.413,366.333 95.326 C 366.333 95.238,366.033 94.867,365.667 94.500 C 365.300 94.133,365.000 93.751,365.000 93.650 C 365.000 93.549,364.775 93.257,364.500 93.000 C 364.225 92.743,364.000 92.457,364.000 92.364 C 364.000 92.271,363.662 91.832,363.250 91.389 C 362.837 90.946,362.500 90.522,362.500 90.447 C 362.500 90.371,362.406 90.215,362.292 90.099 C 362.177 89.983,361.933 89.674,361.750 89.411 C 361.567 89.149,361.192 88.703,360.917 88.421 C 360.642 88.140,360.308 87.700,360.174 87.444 C 360.041 87.188,359.722 86.759,359.466 86.491 C 359.210 86.222,359.000 85.933,359.000 85.847 C 359.000 85.761,358.813 85.543,358.583 85.363 C 358.354 85.183,358.167 84.952,358.167 84.851 C 358.167 84.750,358.092 84.667,358.000 84.667 C 357.908 84.667,357.833 84.565,357.833 84.441 C 357.833 84.317,357.627 83.997,357.375 83.729 C 357.123 83.462,356.696 82.944,356.425 82.580 C 356.155 82.215,355.799 81.795,355.634 81.647 C 355.468 81.499,355.333 81.307,355.333 81.220 C 355.333 81.134,355.202 80.917,355.042 80.740 C 354.881 80.562,354.528 80.116,354.257 79.750 C 353.986 79.383,353.555 78.884,353.299 78.641 C 353.043 78.398,352.833 78.080,352.833 77.933 C 352.833 77.787,352.758 77.667,352.667 77.667 C 352.575 77.667,352.500 77.588,352.500 77.492 C 352.500 77.397,352.331 77.145,352.125 76.934 C 351.524 76.318,351.107 75.799,350.499 74.913 C 350.185 74.457,349.757 73.911,349.548 73.701 C 349.338 73.490,349.167 73.262,349.167 73.194 C 349.167 73.126,348.867 72.738,348.500 72.333 C 348.133 71.928,347.833 71.527,347.833 71.443 C 347.833 71.358,347.701 71.168,347.540 71.020 C 347.378 70.871,347.026 70.450,346.757 70.083 C 346.487 69.717,346.150 69.304,346.007 69.167 C 345.865 69.029,345.643 68.712,345.515 68.463 C 345.027 67.513,342.266 64.667,341.832 64.667 C 341.741 64.667,341.667 64.592,341.667 64.500 C 341.667 64.408,341.517 64.333,341.333 64.333 C 341.150 64.333,341.000 64.258,341.000 64.167 C 341.000 64.075,340.850 64.000,340.667 64.000 C 340.483 64.000,340.333 63.925,340.333 63.833 C 340.333 63.742,340.103 63.667,339.821 63.667 C 339.540 63.667,339.197 63.554,339.060 63.417 C 338.861 63.218,338.321 63.167,336.417 63.167 C 334.512 63.167,333.973 63.218,333.774 63.417 M264.000 63.500 C 264.000 63.592,263.587 63.667,263.083 63.667 C 262.579 63.667,262.167 63.742,262.167 63.833 C 262.167 63.925,261.942 64.000,261.667 64.000 C 261.392 64.000,261.167 64.066,261.167 64.148 C 261.167 64.229,260.904 64.420,260.583 64.572 C 260.021 64.839,259.581 65.221,258.958 65.981 C 258.798 66.177,258.667 66.382,258.667 66.436 C 258.667 66.491,258.479 66.758,258.250 67.030 C 258.021 67.303,257.833 67.707,257.833 67.929 C 257.833 68.152,257.758 68.333,257.667 68.333 C 257.575 68.333,257.500 68.746,257.500 69.250 C 257.500 69.754,257.425 70.167,257.333 70.167 C 257.089 70.167,257.216 137.097,257.461 138.333 C 257.752 139.793,257.863 140.167,258.008 140.167 C 258.083 140.167,258.194 140.324,258.256 140.517 C 258.317 140.710,258.622 141.138,258.933 141.469 C 259.245 141.799,259.500 142.129,259.500 142.201 C 259.500 142.274,259.595 142.333,259.710 142.333 C 259.826 142.333,260.062 142.521,260.234 142.750 C 260.406 142.979,260.686 143.167,260.857 143.167 C 261.027 143.167,261.167 143.242,261.167 143.333 C 261.167 143.425,261.317 143.500,261.500 143.500 C 261.683 143.500,261.833 143.575,261.833 143.667 C 261.833 143.758,262.096 143.833,262.417 143.833 C 262.737 143.833,263.000 143.908,263.000 144.000 C 263.000 144.100,263.663 144.167,264.657 144.167 C 265.582 144.167,266.359 144.093,266.417 144.000 C 266.473 143.908,266.740 143.833,267.010 143.833 C 267.279 143.833,267.500 143.758,267.500 143.667 C 267.500 143.575,267.604 143.500,267.731 143.500 C 268.373 143.500,271.167 140.995,271.167 140.420 C 271.167 140.281,271.242 140.167,271.333 140.167 C 271.425 140.167,271.500 139.942,271.500 139.667 C 271.500 139.392,271.575 139.167,271.667 139.167 C 271.776 139.167,271.833 135.528,271.833 128.583 L 271.833 118.000 281.740 118.000 C 288.165 118.000,291.683 117.941,291.750 117.833 C 291.807 117.742,292.482 117.667,293.250 117.667 C 294.018 117.667,294.693 117.592,294.750 117.500 C 294.807 117.408,295.219 117.333,295.667 117.333 C 296.114 117.333,296.527 117.258,296.583 117.167 C 296.640 117.075,297.015 117.000,297.417 117.000 C 297.818 117.000,298.193 116.925,298.250 116.833 C 298.307 116.742,298.568 116.667,298.831 116.667 C 299.094 116.667,299.422 116.554,299.560 116.417 C 299.697 116.279,300.040 116.167,300.321 116.167 C 300.603 116.167,300.833 116.092,300.833 116.000 C 300.833 115.908,301.022 115.833,301.252 115.833 C 301.656 115.833,301.807 115.781,302.623 115.359 C 302.828 115.253,303.146 115.167,303.331 115.167 C 303.516 115.167,303.667 115.092,303.667 115.000 C 303.667 114.908,303.812 114.833,303.990 114.833 C 304.168 114.833,304.360 114.758,304.417 114.667 C 304.473 114.575,304.633 114.500,304.772 114.500 C 304.910 114.500,305.128 114.406,305.256 114.292 C 305.849 113.760,306.009 113.667,306.326 113.667 C 306.514 113.667,306.667 113.592,306.667 113.500 C 306.667 113.408,306.765 113.333,306.885 113.333 C 307.005 113.333,307.265 113.183,307.462 113.000 C 307.658 112.817,307.935 112.667,308.076 112.667 C 308.218 112.667,308.333 112.592,308.333 112.500 C 308.333 112.408,308.411 112.333,308.507 112.333 C 308.695 112.333,308.755 112.289,309.741 111.416 C 310.103 111.095,310.458 110.833,310.531 110.833 C 310.709 110.833,311.290 110.354,311.817 109.772 C 312.055 109.509,312.681 108.875,313.208 108.363 C 313.735 107.851,314.167 107.335,314.167 107.216 C 314.167 107.097,314.242 107.000,314.333 107.000 C 314.425 107.000,314.500 106.904,314.500 106.787 C 314.500 106.670,314.650 106.465,314.833 106.333 C 315.017 106.201,315.167 105.989,315.167 105.862 C 315.167 105.735,315.354 105.484,315.583 105.304 C 315.813 105.123,316.000 104.831,316.000 104.655 C 316.000 104.478,316.075 104.333,316.167 104.333 C 316.258 104.333,316.335 104.240,316.337 104.125 C 316.339 104.010,316.487 103.729,316.667 103.500 C 316.846 103.271,316.994 102.952,316.996 102.792 C 316.998 102.631,317.075 102.500,317.167 102.500 C 317.258 102.500,317.333 102.275,317.333 102.000 C 317.333 101.725,317.408 101.500,317.500 101.500 C 317.592 101.500,317.667 101.382,317.667 101.238 C 317.667 101.094,317.779 100.864,317.917 100.726 C 318.054 100.589,318.167 100.294,318.167 100.071 C 318.167 99.849,318.242 99.667,318.333 99.667 C 318.425 99.667,318.500 99.446,318.500 99.177 C 318.500 98.907,318.575 98.640,318.667 98.583 C 318.758 98.527,318.833 98.185,318.833 97.823 C 318.833 97.462,318.908 97.167,319.000 97.167 C 319.094 97.167,319.167 96.694,319.167 96.083 C 319.167 95.472,319.239 95.000,319.333 95.000 C 319.440 95.000,319.500 93.337,319.500 90.343 C 319.500 87.418,319.438 85.648,319.333 85.583 C 319.242 85.527,319.167 85.072,319.167 84.573 C 319.167 84.075,319.092 83.667,319.000 83.667 C 318.908 83.667,318.833 83.371,318.833 83.010 C 318.833 82.649,318.758 82.307,318.667 82.250 C 318.575 82.193,318.500 81.926,318.500 81.657 C 318.500 81.387,318.425 81.167,318.333 81.167 C 318.242 81.167,318.167 80.988,318.167 80.770 C 318.167 80.552,318.054 80.281,317.917 80.167 C 317.779 80.053,317.667 79.785,317.667 79.573 C 317.667 79.360,317.592 79.140,317.500 79.083 C 317.408 79.027,317.333 78.835,317.333 78.657 C 317.333 78.479,317.258 78.333,317.167 78.333 C 317.075 78.333,317.000 78.223,317.000 78.088 C 317.000 77.954,316.857 77.589,316.682 77.278 C 316.508 76.967,316.264 76.533,316.141 76.315 C 316.017 76.096,315.874 75.879,315.821 75.833 C 315.768 75.787,315.583 75.506,315.410 75.208 C 315.237 74.910,315.036 74.667,314.964 74.667 C 314.892 74.667,314.833 74.553,314.833 74.415 C 314.833 74.134,310.298 69.500,310.023 69.500 C 309.927 69.500,309.661 69.313,309.432 69.083 C 309.203 68.854,308.903 68.667,308.765 68.667 C 308.628 68.667,308.331 68.498,308.107 68.292 C 307.398 67.640,307.188 67.500,306.924 67.500 C 306.782 67.500,306.667 67.425,306.667 67.333 C 306.667 67.242,306.479 67.167,306.250 67.167 C 306.021 67.167,305.833 67.092,305.833 67.000 C 305.833 66.908,305.683 66.833,305.500 66.833 C 305.317 66.833,305.167 66.758,305.167 66.667 C 305.167 66.575,305.017 66.500,304.833 66.500 C 304.650 66.500,304.500 66.425,304.500 66.333 C 304.500 66.242,304.345 66.167,304.155 66.167 C 303.965 66.167,303.697 66.054,303.560 65.917 C 303.422 65.779,303.169 65.667,302.998 65.667 C 302.827 65.667,302.640 65.592,302.583 65.500 C 302.527 65.408,302.302 65.333,302.083 65.333 C 301.865 65.333,301.640 65.258,301.583 65.167 C 301.527 65.075,301.260 65.000,300.990 65.000 C 300.721 65.000,300.500 64.925,300.500 64.833 C 300.500 64.742,300.162 64.667,299.750 64.667 C 299.337 64.667,299.000 64.592,299.000 64.500 C 299.000 64.408,298.667 64.333,298.260 64.333 C 297.853 64.333,297.473 64.258,297.417 64.167 C 297.360 64.075,296.831 64.000,296.240 64.000 C 295.636 64.000,295.167 63.927,295.167 63.833 C 295.167 63.731,294.337 63.667,293.010 63.667 C 291.752 63.667,290.810 63.597,290.750 63.500 C 290.683 63.391,286.026 63.333,277.323 63.333 C 268.552 63.333,264.000 63.390,264.000 63.500 M291.417 77.000 C 291.473 77.092,291.923 77.167,292.417 77.167 C 292.910 77.167,293.360 77.242,293.417 77.333 C 293.473 77.425,293.815 77.500,294.177 77.500 C 294.538 77.500,294.833 77.575,294.833 77.667 C 294.833 77.758,295.040 77.836,295.292 77.839 C 295.544 77.842,295.896 77.954,296.074 78.089 C 296.251 78.223,296.533 78.333,296.699 78.333 C 296.864 78.333,297.000 78.408,297.000 78.500 C 297.000 78.592,297.150 78.667,297.333 78.667 C 297.517 78.667,297.667 78.742,297.667 78.833 C 297.667 78.925,297.817 79.000,298.000 79.000 C 298.183 79.000,298.333 79.057,298.333 79.126 C 298.333 79.195,298.577 79.358,298.875 79.488 C 299.173 79.618,299.538 79.862,299.686 80.029 C 299.834 80.196,300.011 80.333,300.079 80.333 C 300.326 80.333,302.000 81.972,302.000 82.214 C 302.000 82.304,302.137 82.499,302.304 82.647 C 302.472 82.795,302.715 83.160,302.845 83.458 C 302.975 83.756,303.138 84.000,303.207 84.000 C 303.277 84.000,303.333 84.103,303.333 84.230 C 303.333 84.356,303.446 84.553,303.583 84.667 C 303.721 84.781,303.833 85.090,303.833 85.354 C 303.833 85.618,303.908 85.833,304.000 85.833 C 304.092 85.833,304.167 86.054,304.167 86.323 C 304.167 86.593,304.242 86.860,304.333 86.917 C 304.425 86.973,304.500 87.465,304.500 88.010 C 304.500 88.559,304.574 89.000,304.667 89.000 C 304.767 89.000,304.833 89.663,304.833 90.657 C 304.833 91.582,304.760 92.359,304.667 92.417 C 304.575 92.473,304.500 92.886,304.500 93.333 C 304.500 93.781,304.425 94.193,304.333 94.250 C 304.242 94.307,304.167 94.611,304.167 94.927 C 304.167 95.242,304.092 95.500,304.000 95.500 C 303.908 95.500,303.833 95.650,303.833 95.833 C 303.833 96.017,303.777 96.167,303.708 96.168 C 303.640 96.169,303.435 96.507,303.254 96.918 C 303.073 97.330,302.867 97.667,302.796 97.667 C 302.725 97.667,302.665 97.760,302.664 97.875 C 302.658 98.270,301.393 99.679,299.935 100.917 C 299.503 101.283,299.046 101.677,298.920 101.792 C 298.794 101.906,298.610 102.000,298.512 102.000 C 298.414 102.000,298.333 102.075,298.333 102.167 C 298.333 102.258,298.183 102.333,298.000 102.333 C 297.817 102.333,297.667 102.408,297.667 102.500 C 297.667 102.592,297.517 102.667,297.333 102.667 C 297.150 102.667,297.000 102.742,297.000 102.833 C 297.000 102.925,296.854 103.000,296.677 103.000 C 296.499 103.000,296.307 103.075,296.250 103.167 C 296.193 103.258,295.968 103.333,295.750 103.333 C 295.532 103.333,295.307 103.408,295.250 103.500 C 295.193 103.592,294.926 103.667,294.657 103.667 C 294.387 103.667,294.167 103.742,294.167 103.833 C 294.167 103.925,293.910 104.000,293.595 104.000 C 293.281 104.000,292.911 104.112,292.774 104.250 C 292.599 104.425,292.171 104.500,291.345 104.500 C 290.671 104.500,290.167 104.571,290.167 104.667 C 290.167 104.776,287.000 104.833,281.000 104.833 L 271.833 104.833 271.833 90.833 L 271.833 76.833 281.573 76.833 C 287.887 76.833,291.350 76.892,291.417 77.000 " stroke="none" fill="#0856b3" fill-rule="evenodd"></path><path id="path2" d="M74.166 2.396 C 73.526 2.957,73.149 3.510,73.754 3.000 C 74.025 2.771,74.285 2.538,74.332 2.483 C 74.379 2.428,74.525 2.348,74.658 2.306 C 74.791 2.263,74.828 2.183,74.741 2.129 C 74.653 2.075,74.394 2.195,74.166 2.396 M71.536 4.939 C 71.326 5.156,71.221 5.333,71.302 5.333 C 71.479 5.333,72.082 4.690,71.985 4.605 C 71.947 4.572,71.745 4.722,71.536 4.939 M83.750 5.833 C 83.807 5.925,83.961 6.000,84.093 6.000 C 84.225 6.000,84.333 6.075,84.333 6.167 C 84.333 6.258,84.427 6.331,84.542 6.328 C 84.656 6.325,84.573 6.175,84.357 5.994 C 83.941 5.649,83.576 5.551,83.750 5.833 M96.833 12.698 C 97.187 13.024,98.000 13.493,98.000 13.371 C 98.000 13.288,97.794 13.117,97.542 12.990 C 96.946 12.692,96.730 12.603,96.833 12.698 M54.584 21.666 C 54.418 21.850,54.336 22.000,54.403 22.000 C 54.578 22.000,55.054 21.498,54.963 21.408 C 54.921 21.366,54.751 21.482,54.584 21.666 M53.525 22.767 C 53.221 23.111,53.417 23.274,53.742 22.948 C 53.884 22.807,54.000 22.648,54.000 22.595 C 54.000 22.420,53.752 22.510,53.525 22.767 M52.150 24.096 C 51.655 24.609,51.110 25.154,50.939 25.306 C 49.993 26.148,48.996 27.167,49.118 27.167 C 49.195 27.167,49.694 26.754,50.228 26.250 C 50.761 25.746,51.265 25.333,51.348 25.333 C 51.432 25.333,51.500 25.230,51.500 25.103 C 51.500 24.976,51.892 24.531,52.371 24.113 C 52.850 23.695,53.199 23.310,53.146 23.258 C 53.094 23.205,52.646 23.582,52.150 24.096 M154.333 43.083 C 154.333 43.221,154.227 43.333,154.097 43.333 C 153.967 43.333,153.836 43.390,153.806 43.458 C 153.775 43.527,153.037 44.119,152.167 44.774 C 151.296 45.428,150.421 46.103,150.222 46.274 C 150.024 46.444,149.499 46.863,149.056 47.206 C 147.306 48.557,144.504 50.737,143.000 51.917 C 141.529 53.071,135.819 57.530,133.917 59.010 C 133.458 59.367,132.258 60.300,131.250 61.084 C 130.242 61.868,129.294 62.612,129.144 62.737 C 128.994 62.862,128.282 63.414,127.561 63.964 C 126.840 64.514,125.237 65.761,124.000 66.735 C 122.763 67.709,121.412 68.766,121.000 69.083 C 120.587 69.401,118.712 70.863,116.833 72.333 C 114.954 73.803,113.079 75.266,112.667 75.585 C 112.254 75.904,110.379 77.366,108.500 78.835 C 106.621 80.305,104.718 81.786,104.272 82.128 C 103.826 82.470,102.888 83.201,102.189 83.752 C 101.489 84.303,100.623 84.978,100.264 85.252 C 99.297 85.990,97.981 87.008,97.769 87.181 C 97.086 87.739,93.845 90.286,92.684 91.177 C 90.139 93.130,89.753 93.429,89.417 93.713 C 89.233 93.868,88.146 94.717,87.001 95.600 C 85.856 96.482,84.726 97.365,84.489 97.561 C 84.253 97.757,83.811 98.104,83.507 98.333 C 83.203 98.563,81.662 99.763,80.083 101.000 C 78.504 102.237,76.966 103.438,76.664 103.667 C 75.782 104.337,71.115 107.986,70.750 108.290 C 70.567 108.443,70.042 108.857,69.583 109.211 C 65.379 112.452,65.527 112.337,60.425 116.333 C 57.186 118.871,55.522 120.167,53.567 121.676 C 50.846 123.776,50.491 124.078,50.536 124.261 C 50.562 124.369,51.415 125.349,52.432 126.437 C 53.449 127.526,55.281 129.504,56.505 130.833 C 60.733 135.428,62.253 137.083,63.083 137.997 C 63.542 138.501,64.029 139.028,64.167 139.167 C 64.304 139.306,64.792 139.832,65.250 140.337 C 65.708 140.841,66.903 142.138,67.905 143.219 C 68.907 144.300,69.869 145.349,70.043 145.551 C 70.217 145.752,70.743 146.329,71.213 146.833 C 72.181 147.873,73.493 149.297,74.825 150.756 C 75.324 151.303,76.187 152.237,76.741 152.833 C 77.296 153.429,78.537 154.774,79.500 155.821 C 80.462 156.868,81.400 157.883,81.583 158.077 C 81.767 158.271,82.703 159.289,83.664 160.340 C 84.626 161.390,85.770 162.625,86.209 163.083 C 86.647 163.542,87.051 164.089,87.106 164.301 C 87.241 164.812,87.894 164.742,87.970 164.208 C 87.999 164.002,88.093 163.833,88.178 163.833 C 88.264 163.833,88.335 163.740,88.337 163.625 C 88.339 163.510,88.487 163.229,88.667 163.000 C 88.846 162.771,88.994 162.484,88.996 162.363 C 88.998 162.242,89.094 162.038,89.208 161.911 C 89.727 161.332,89.833 161.164,89.833 160.924 C 89.833 160.782,89.908 160.667,90.000 160.667 C 90.092 160.667,90.167 160.517,90.167 160.333 C 90.167 160.150,90.242 160.000,90.333 160.000 C 90.425 160.000,90.500 159.864,90.500 159.698 C 90.500 159.532,90.650 159.235,90.833 159.038 C 91.017 158.842,91.167 158.565,91.167 158.424 C 91.167 158.282,91.242 158.167,91.333 158.167 C 91.425 158.167,91.500 158.025,91.500 157.851 C 91.500 157.678,91.612 157.492,91.750 157.440 C 91.888 157.387,92.000 157.191,92.000 157.005 C 92.000 156.819,92.075 156.667,92.167 156.667 C 92.258 156.667,92.335 156.573,92.337 156.458 C 92.339 156.344,92.487 156.063,92.667 155.833 C 92.846 155.604,92.994 155.285,92.996 155.125 C 92.998 154.965,93.075 154.833,93.167 154.833 C 93.258 154.833,93.333 154.683,93.333 154.500 C 93.333 154.317,93.408 154.167,93.500 154.167 C 93.592 154.167,93.667 154.017,93.667 153.833 C 93.667 153.650,93.742 153.500,93.833 153.500 C 93.925 153.500,94.000 153.428,94.000 153.341 C 94.000 153.188,94.648 152.132,94.998 151.715 C 95.091 151.605,95.167 151.398,95.167 151.257 C 95.167 151.116,95.242 151.000,95.333 151.000 C 95.425 151.000,95.500 150.850,95.500 150.667 C 95.500 150.483,95.575 150.333,95.667 150.333 C 95.758 150.333,95.833 150.146,95.833 149.917 C 95.833 149.688,95.908 149.500,96.000 149.500 C 96.092 149.500,96.167 149.385,96.167 149.245 C 96.167 149.104,96.266 148.951,96.388 148.904 C 96.510 148.858,96.712 148.560,96.836 148.243 C 96.960 147.926,97.123 147.667,97.198 147.667 C 97.272 147.667,97.333 147.517,97.333 147.333 C 97.333 147.150,97.408 147.000,97.500 147.000 C 97.592 147.000,97.667 146.850,97.667 146.667 C 97.667 146.483,97.742 146.333,97.833 146.333 C 97.925 146.333,98.000 146.183,98.000 146.000 C 98.000 145.817,98.057 145.667,98.126 145.667 C 98.195 145.667,98.359 145.423,98.491 145.125 C 98.622 144.827,98.809 144.492,98.906 144.381 C 99.410 143.805,99.500 143.660,99.500 143.434 C 99.500 143.298,99.575 143.140,99.667 143.083 C 99.758 143.027,99.833 142.835,99.833 142.657 C 99.833 142.479,99.890 142.333,99.958 142.332 C 100.027 142.331,100.165 142.163,100.264 141.957 C 100.672 141.111,101.393 139.913,101.525 139.861 C 101.603 139.831,101.667 139.662,101.667 139.486 C 101.667 139.310,101.742 139.167,101.833 139.167 C 101.925 139.167,102.000 139.017,102.000 138.833 C 102.000 138.650,102.061 138.500,102.136 138.500 C 102.210 138.500,102.374 138.237,102.500 137.917 C 102.626 137.596,102.790 137.333,102.864 137.333 C 102.939 137.333,103.000 137.183,103.000 137.000 C 103.000 136.817,103.075 136.667,103.167 136.667 C 103.258 136.667,103.333 136.525,103.333 136.351 C 103.333 136.178,103.446 135.992,103.583 135.940 C 103.721 135.887,103.833 135.691,103.833 135.505 C 103.833 135.319,103.900 135.167,103.981 135.167 C 104.062 135.167,104.171 135.035,104.223 134.875 C 104.276 134.715,104.509 134.263,104.743 133.871 C 104.976 133.478,105.167 133.047,105.167 132.912 C 105.167 132.777,105.242 132.667,105.333 132.667 C 105.425 132.667,105.500 132.517,105.500 132.333 C 105.500 132.150,105.575 132.000,105.667 132.000 C 105.758 132.000,105.833 131.850,105.833 131.667 C 105.833 131.483,105.910 131.333,106.003 131.333 C 106.096 131.333,106.297 131.071,106.450 130.750 C 106.603 130.429,106.790 130.167,106.864 130.167 C 106.939 130.167,107.000 130.017,107.000 129.833 C 107.000 129.650,107.075 129.500,107.167 129.500 C 107.258 129.500,107.333 129.350,107.333 129.167 C 107.333 128.983,107.408 128.833,107.500 128.833 C 107.592 128.833,107.667 128.646,107.667 128.417 C 107.667 128.188,107.733 128.000,107.814 128.000 C 107.895 128.000,108.007 127.869,108.063 127.708 C 108.119 127.548,108.387 127.117,108.660 126.750 C 108.933 126.383,109.158 125.952,109.161 125.792 C 109.164 125.631,109.242 125.500,109.333 125.500 C 109.425 125.500,109.500 125.350,109.500 125.167 C 109.500 124.983,109.575 124.833,109.667 124.833 C 109.758 124.833,109.833 124.683,109.833 124.500 C 109.833 124.317,109.908 124.167,110.000 124.167 C 110.092 124.167,110.167 124.054,110.167 123.917 C 110.167 123.779,110.242 123.667,110.333 123.667 C 110.425 123.667,110.500 123.549,110.500 123.405 C 110.500 123.261,110.594 123.038,110.708 122.911 C 111.227 122.332,111.333 122.164,111.333 121.924 C 111.333 121.782,111.408 121.667,111.500 121.667 C 111.592 121.667,111.667 121.479,111.667 121.250 C 111.667 121.021,111.742 120.833,111.833 120.833 C 111.925 120.833,112.000 120.735,112.000 120.615 C 112.000 120.495,112.150 120.235,112.333 120.038 C 112.517 119.842,112.667 119.569,112.667 119.433 C 112.667 119.298,112.742 119.140,112.833 119.083 C 112.925 119.027,113.000 118.835,113.000 118.657 C 113.000 118.479,113.112 118.333,113.250 118.333 C 113.389 118.333,113.500 118.185,113.500 118.000 C 113.500 117.817,113.575 117.667,113.667 117.667 C 113.758 117.667,113.833 117.517,113.833 117.333 C 113.833 117.150,113.908 117.000,114.000 117.000 C 114.092 117.000,114.167 116.888,114.167 116.750 C 114.167 116.612,114.242 116.500,114.333 116.500 C 114.425 116.500,114.500 116.350,114.500 116.167 C 114.500 115.983,114.575 115.833,114.667 115.833 C 114.758 115.833,114.833 115.683,114.833 115.500 C 114.833 115.317,114.908 115.167,115.000 115.167 C 115.092 115.167,115.167 115.017,115.167 114.833 C 115.167 114.650,115.240 114.500,115.330 114.500 C 115.420 114.500,115.541 114.313,115.598 114.083 C 115.656 113.854,115.761 113.667,115.832 113.667 C 115.903 113.667,116.004 113.535,116.057 113.375 C 116.109 113.215,116.343 112.763,116.576 112.371 C 116.809 111.978,117.000 111.547,117.000 111.412 C 117.000 111.277,117.075 111.167,117.167 111.167 C 117.258 111.167,117.333 111.017,117.333 110.833 C 117.333 110.650,117.408 110.500,117.500 110.500 C 117.592 110.500,117.667 110.428,117.667 110.341 C 117.667 110.188,118.315 109.132,118.664 108.715 C 118.757 108.605,118.833 108.398,118.833 108.257 C 118.833 108.116,118.908 108.000,119.000 108.000 C 119.092 108.000,119.167 107.850,119.167 107.667 C 119.167 107.483,119.242 107.333,119.333 107.333 C 119.425 107.333,119.500 107.146,119.500 106.917 C 119.500 106.688,119.562 106.500,119.639 106.500 C 119.715 106.500,119.883 106.294,120.013 106.042 C 120.143 105.790,120.289 105.546,120.337 105.500 C 120.580 105.268,121.000 104.481,121.000 104.256 C 121.000 104.115,121.075 104.000,121.167 104.000 C 121.258 104.000,121.333 103.850,121.333 103.667 C 121.333 103.483,121.394 103.333,121.469 103.333 C 121.543 103.333,121.707 103.071,121.833 102.750 C 121.959 102.429,122.123 102.167,122.198 102.167 C 122.272 102.167,122.333 102.049,122.333 101.905 C 122.333 101.761,122.427 101.538,122.542 101.411 C 123.060 100.832,123.167 100.664,123.167 100.424 C 123.167 100.282,123.242 100.167,123.333 100.167 C 123.425 100.167,123.500 100.014,123.500 99.826 C 123.500 99.639,123.650 99.325,123.833 99.128 C 124.017 98.931,124.167 98.672,124.167 98.552 C 124.167 98.432,124.242 98.333,124.333 98.333 C 124.425 98.333,124.500 98.183,124.500 98.000 C 124.500 97.817,124.575 97.667,124.667 97.667 C 124.758 97.667,124.833 97.479,124.833 97.250 C 124.833 96.991,124.928 96.833,125.083 96.833 C 125.222 96.833,125.333 96.685,125.333 96.500 C 125.333 96.317,125.408 96.167,125.500 96.167 C 125.592 96.167,125.667 96.017,125.667 95.833 C 125.667 95.650,125.742 95.500,125.833 95.500 C 125.925 95.500,126.000 95.388,126.000 95.250 C 126.000 95.112,126.075 95.000,126.167 95.000 C 126.258 95.000,126.333 94.850,126.333 94.667 C 126.333 94.483,126.408 94.333,126.500 94.333 C 126.592 94.333,126.667 94.183,126.667 94.000 C 126.667 93.817,126.742 93.667,126.833 93.667 C 126.925 93.667,127.000 93.517,127.000 93.333 C 127.000 93.150,127.075 93.000,127.167 93.000 C 127.258 93.000,127.333 92.893,127.333 92.762 C 127.333 92.631,127.427 92.422,127.542 92.298 C 127.828 91.989,128.334 91.146,128.446 90.792 C 128.497 90.631,128.605 90.500,128.686 90.500 C 128.767 90.500,128.833 90.313,128.833 90.083 C 128.833 89.854,128.908 89.667,129.000 89.667 C 129.092 89.667,129.167 89.517,129.167 89.333 C 129.167 89.150,129.242 89.000,129.333 89.000 C 129.425 89.000,129.500 88.920,129.500 88.822 C 129.500 88.724,129.688 88.399,129.917 88.098 C 130.146 87.798,130.333 87.465,130.333 87.359 C 130.333 87.253,130.408 87.167,130.500 87.167 C 130.592 87.167,130.667 87.017,130.667 86.833 C 130.667 86.650,130.742 86.500,130.833 86.500 C 130.925 86.500,131.000 86.350,131.000 86.167 C 131.000 85.983,131.075 85.833,131.167 85.833 C 131.258 85.833,131.333 85.697,131.333 85.531 C 131.333 85.365,131.483 85.069,131.667 84.872 C 131.850 84.675,132.000 84.398,132.000 84.257 C 132.000 84.116,132.056 84.000,132.125 83.999 C 132.293 83.998,132.833 83.034,132.833 82.736 C 132.833 82.606,132.908 82.500,133.000 82.500 C 133.092 82.500,133.167 82.350,133.167 82.167 C 133.167 81.983,133.228 81.833,133.302 81.833 C 133.377 81.833,133.541 81.571,133.667 81.250 C 133.793 80.929,133.957 80.667,134.031 80.667 C 134.106 80.667,134.167 80.549,134.167 80.405 C 134.167 80.261,134.260 80.038,134.375 79.911 C 134.893 79.332,135.000 79.164,135.000 78.924 C 135.000 78.782,135.075 78.667,135.167 78.667 C 135.258 78.667,135.335 78.535,135.337 78.375 C 135.339 78.215,135.487 77.896,135.667 77.667 C 135.846 77.438,135.994 77.156,135.996 77.042 C 135.998 76.927,136.075 76.833,136.167 76.833 C 136.258 76.833,136.333 76.683,136.333 76.500 C 136.333 76.317,136.408 76.167,136.500 76.167 C 136.592 76.167,136.667 75.979,136.667 75.750 C 136.667 75.491,136.761 75.333,136.917 75.333 C 137.056 75.333,137.167 75.185,137.167 75.000 C 137.167 74.817,137.228 74.667,137.302 74.667 C 137.377 74.667,137.541 74.404,137.667 74.083 C 137.793 73.762,137.957 73.500,138.031 73.500 C 138.106 73.500,138.167 73.350,138.167 73.167 C 138.167 72.983,138.242 72.833,138.333 72.833 C 138.425 72.833,138.500 72.683,138.500 72.500 C 138.500 72.317,138.575 72.167,138.667 72.167 C 138.758 72.167,138.833 72.017,138.833 71.833 C 138.833 71.650,138.908 71.500,139.000 71.500 C 139.092 71.500,139.167 71.428,139.167 71.341 C 139.167 71.188,139.815 70.132,140.164 69.715 C 140.257 69.605,140.333 69.398,140.333 69.257 C 140.333 69.116,140.408 69.000,140.500 69.000 C 140.592 69.000,140.667 68.813,140.667 68.583 C 140.667 68.354,140.742 68.167,140.833 68.167 C 140.925 68.167,141.000 68.017,141.000 67.833 C 141.000 67.650,141.075 67.500,141.167 67.500 C 141.258 67.500,141.333 67.387,141.333 67.250 C 141.333 67.112,141.396 67.000,141.473 67.000 C 141.550 67.000,141.756 66.701,141.932 66.335 C 142.107 65.970,142.306 65.670,142.375 65.669 C 142.444 65.668,142.500 65.517,142.500 65.333 C 142.500 65.150,142.575 65.000,142.667 65.000 C 142.758 65.000,142.833 64.850,142.833 64.667 C 142.833 64.483,142.908 64.333,143.000 64.333 C 143.092 64.333,143.167 64.197,143.167 64.031 C 143.167 63.865,143.317 63.569,143.500 63.372 C 143.683 63.175,143.833 62.898,143.833 62.757 C 143.833 62.616,143.890 62.500,143.958 62.499 C 144.126 62.498,144.667 61.534,144.667 61.236 C 144.667 61.106,144.742 61.000,144.833 61.000 C 144.925 61.000,145.000 60.850,145.000 60.667 C 145.000 60.483,145.075 60.333,145.167 60.333 C 145.258 60.333,145.335 60.240,145.337 60.125 C 145.339 60.010,145.487 59.729,145.667 59.500 C 145.846 59.271,145.994 58.952,145.996 58.792 C 145.998 58.631,146.075 58.500,146.167 58.500 C 146.258 58.500,146.333 58.350,146.333 58.167 C 146.333 57.981,146.444 57.833,146.583 57.833 C 146.722 57.833,146.833 57.685,146.833 57.500 C 146.833 57.317,146.908 57.167,147.000 57.167 C 147.092 57.167,147.167 57.031,147.167 56.865 C 147.167 56.699,147.317 56.402,147.500 56.205 C 147.683 56.008,147.833 55.732,147.833 55.590 C 147.833 55.449,147.908 55.333,148.000 55.333 C 148.092 55.333,148.167 55.183,148.167 55.000 C 148.167 54.817,148.242 54.667,148.333 54.667 C 148.425 54.667,148.500 54.487,148.500 54.268 C 148.500 54.048,148.612 53.826,148.750 53.773 C 148.887 53.720,149.000 53.569,149.000 53.436 C 149.000 53.303,149.059 53.169,149.130 53.139 C 149.329 53.054,150.000 51.847,150.000 51.574 C 150.000 51.442,150.075 51.333,150.167 51.333 C 150.258 51.333,150.333 51.183,150.333 51.000 C 150.333 50.817,150.408 50.667,150.500 50.667 C 150.592 50.667,150.667 50.517,150.667 50.333 C 150.667 50.150,150.742 50.000,150.833 50.000 C 150.925 50.000,151.000 49.920,151.000 49.822 C 151.000 49.724,151.188 49.399,151.417 49.098 C 151.646 48.798,151.833 48.465,151.833 48.359 C 151.833 48.253,151.908 48.167,152.000 48.167 C 152.092 48.167,152.167 48.017,152.167 47.833 C 152.167 47.650,152.242 47.500,152.333 47.500 C 152.425 47.500,152.500 47.313,152.500 47.083 C 152.500 46.854,152.566 46.667,152.647 46.667 C 152.728 46.667,152.836 46.535,152.887 46.375 C 152.999 46.021,153.506 45.177,153.792 44.868 C 153.906 44.744,154.000 44.536,154.000 44.405 C 154.000 44.274,154.075 44.167,154.167 44.167 C 154.258 44.167,154.333 44.017,154.333 43.833 C 154.333 43.650,154.408 43.500,154.500 43.500 C 154.592 43.500,154.667 43.350,154.667 43.167 C 154.667 42.983,154.592 42.833,154.500 42.833 C 154.408 42.833,154.333 42.946,154.333 43.083 M31.663 44.254 C 31.352 44.630,31.533 44.673,31.904 44.312 C 32.081 44.140,32.146 44.000,32.050 44.000 C 31.953 44.000,31.779 44.114,31.663 44.254 M29.120 46.743 C 27.205 48.603,26.323 49.586,27.431 48.624 C 28.360 47.817,31.366 44.810,31.305 44.749 C 31.269 44.713,30.286 45.611,29.120 46.743 M7.354 68.187 C 6.404 69.101,5.664 69.886,5.709 69.931 C 5.754 69.977,6.557 69.254,7.492 68.325 C 8.427 67.397,9.167 66.612,9.136 66.581 C 9.106 66.550,8.304 67.273,7.354 68.187 M4.946 70.519 C 4.688 70.801,4.519 71.074,4.570 71.126 C 4.671 71.227,5.499 70.335,5.500 70.125 C 5.500 69.933,5.452 69.967,4.946 70.519 M2.740 72.708 L 2.250 73.250 2.792 72.760 C 3.090 72.491,3.333 72.248,3.333 72.219 C 3.333 72.090,3.196 72.203,2.740 72.708 M2.936 75.906 C 3.032 76.158,3.500 76.403,3.500 76.202 C 3.500 76.135,3.353 75.988,3.173 75.876 C 2.903 75.707,2.861 75.713,2.936 75.906 M8.688 81.783 C 9.221 82.443,10.441 83.667,10.566 83.667 C 10.702 83.667,10.577 83.516,9.355 82.208 C 8.713 81.521,8.226 81.211,8.688 81.783 M12.256 85.540 C 12.352 85.790,13.003 86.233,12.995 86.043 C 12.992 85.974,12.806 85.783,12.581 85.620 C 12.324 85.432,12.204 85.403,12.256 85.540 M19.583 92.983 C 20.930 94.508,22.748 96.293,21.815 95.173 C 20.843 94.007,20.532 93.683,19.656 92.917 L 19.083 92.417 19.583 92.983 M30.333 104.127 C 30.333 104.196,30.483 104.347,30.667 104.461 C 31.054 104.703,31.106 104.582,30.762 104.238 C 30.499 103.975,30.333 103.932,30.333 104.127 M31.633 105.522 C 32.027 105.898,32.401 106.154,32.465 106.091 C 32.528 106.027,32.449 105.901,32.289 105.812 C 32.128 105.722,31.813 105.465,31.589 105.241 C 31.365 105.017,31.122 104.834,31.049 104.835 C 30.976 104.836,31.239 105.145,31.633 105.522 M33.167 107.062 C 33.167 107.128,33.354 107.369,33.583 107.598 C 33.813 107.828,34.000 107.950,34.000 107.870 C 34.000 107.790,33.813 107.549,33.583 107.333 C 33.354 107.118,33.167 106.996,33.167 107.062 M41.333 115.413 C 41.471 115.594,41.811 115.974,42.089 116.257 C 42.367 116.540,42.742 116.955,42.923 117.178 C 43.373 117.733,44.036 118.243,43.667 117.750 C 43.530 117.567,43.286 117.295,43.125 117.147 C 42.965 116.999,42.833 116.828,42.833 116.767 C 42.833 116.641,41.914 115.714,41.413 115.333 C 41.100 115.096,41.096 115.100,41.333 115.413 M47.611 125.611 C 47.452 125.770,47.474 126.000,47.649 126.000 C 47.731 126.000,47.841 125.888,47.894 125.750 C 47.991 125.496,47.814 125.409,47.611 125.611 M39.000 132.442 C 38.394 132.884,38.434 132.898,39.208 132.510 C 39.460 132.383,39.667 132.217,39.667 132.140 C 39.667 131.954,39.671 131.952,39.000 132.442 M35.605 135.080 C 35.306 135.307,35.307 135.315,35.647 135.289 C 35.841 135.274,36.000 135.166,36.000 135.048 C 36.000 134.786,35.993 134.786,35.605 135.080 M29.208 140.203 C 29.002 140.303,28.833 140.450,28.833 140.529 C 28.833 140.609,29.021 140.551,29.250 140.401 C 29.861 140.001,29.840 139.899,29.208 140.203 M27.331 141.682 C 27.103 141.862,27.027 141.988,27.163 141.963 C 27.440 141.911,27.907 141.518,27.809 141.420 C 27.774 141.385,27.559 141.503,27.331 141.682 M26.833 145.004 C 26.833 145.149,27.480 145.409,27.584 145.305 C 27.616 145.273,27.460 145.161,27.238 145.056 C 27.015 144.951,26.833 144.928,26.833 145.004 M71.417 159.619 C 71.600 159.663,71.821 159.767,71.908 159.850 C 71.995 159.932,72.141 160.000,72.232 160.000 C 72.323 160.000,72.251 159.890,72.074 159.755 C 71.896 159.621,71.600 159.517,71.417 159.525 L 71.083 159.539 71.417 159.619 " stroke="none" fill="#c00723" fill-rule="evenodd"></path><path id="path3" d="" stroke="none" fill="#aa5500" fill-rule="evenodd"></path><path id="path4" d="M74.961 1.897 C 74.802 2.018,74.721 2.165,74.780 2.225 C 74.840 2.284,74.794 2.333,74.677 2.333 C 74.435 2.333,73.668 3.055,68.733 7.926 C 66.777 9.856,64.968 11.629,64.713 11.865 C 64.459 12.101,63.901 12.659,63.474 13.105 C 63.048 13.552,62.410 14.190,62.058 14.524 C 61.705 14.858,61.215 15.345,60.970 15.607 C 60.724 15.869,60.161 16.424,59.720 16.840 C 59.278 17.256,58.768 17.799,58.585 18.048 C 58.403 18.297,58.191 18.500,58.113 18.500 C 58.035 18.500,57.566 18.931,57.072 19.458 C 55.979 20.623,56.123 20.479,54.958 21.572 C 54.431 22.066,54.000 22.521,54.000 22.581 C 54.000 22.703,53.565 23.167,53.451 23.167 C 53.268 23.167,51.500 24.941,51.500 25.125 C 51.500 25.240,51.432 25.333,51.348 25.333 C 51.265 25.333,50.761 25.746,50.228 26.250 C 49.694 26.754,49.196 27.167,49.119 27.167 C 49.043 27.167,49.027 27.242,49.083 27.333 C 49.140 27.425,49.097 27.500,48.987 27.500 C 48.877 27.500,47.641 28.644,46.240 30.042 C 44.839 31.440,43.331 32.923,42.888 33.337 C 42.445 33.752,41.934 34.296,41.752 34.546 C 41.570 34.796,41.362 35.000,41.290 35.000 C 41.096 35.000,39.333 36.798,39.333 36.996 C 39.333 37.090,39.262 37.167,39.176 37.167 C 39.089 37.167,38.527 37.658,37.926 38.259 C 37.325 38.860,36.833 39.423,36.833 39.509 C 36.833 39.596,36.762 39.667,36.674 39.667 C 36.586 39.667,34.570 41.598,32.194 43.958 C 29.818 46.319,27.572 48.512,27.202 48.831 C 26.832 49.151,26.565 49.470,26.608 49.540 C 26.651 49.610,26.565 49.667,26.417 49.667 C 26.268 49.667,26.193 49.742,26.250 49.833 C 26.307 49.925,26.272 50.000,26.173 50.000 C 25.944 50.000,23.556 52.322,13.827 62.000 C 9.542 66.262,5.897 69.869,5.727 70.014 C 5.556 70.159,5.267 70.459,5.083 70.681 C 4.900 70.902,4.600 71.166,4.417 71.266 C 4.233 71.367,4.002 71.610,3.902 71.807 C 3.802 72.004,3.685 72.129,3.641 72.085 C 3.597 72.042,3.270 72.305,2.914 72.670 C 2.463 73.131,2.123 73.333,1.800 73.333 C 1.266 73.333,1.148 73.854,1.575 74.319 C 2.395 75.213,3.227 76.000,3.353 76.000 C 3.434 76.000,3.500 76.078,3.500 76.174 C 3.500 76.270,4.944 77.799,6.708 79.572 C 8.473 81.345,10.179 83.096,10.500 83.463 C 10.821 83.830,11.158 84.089,11.250 84.038 C 11.342 83.988,11.356 84.013,11.283 84.093 C 11.209 84.174,11.560 84.655,12.063 85.162 C 18.500 91.657,21.054 94.275,21.750 95.094 C 22.208 95.633,24.477 97.979,26.792 100.307 C 29.106 102.635,31.000 104.577,31.000 104.622 C 31.000 104.754,32.217 105.833,32.366 105.833 C 32.440 105.833,32.502 105.927,32.505 106.042 C 32.511 106.316,34.768 108.676,34.899 108.545 C 34.955 108.490,35.000 108.542,35.000 108.660 C 35.000 108.779,36.200 110.071,37.667 111.531 C 39.133 112.991,40.335 114.237,40.337 114.301 C 40.339 114.365,40.609 114.642,40.937 114.917 C 41.820 115.657,42.833 116.628,42.833 116.732 C 42.833 116.882,44.077 118.209,47.040 121.218 C 49.743 123.964,50.113 124.500,49.300 124.500 C 49.212 124.500,48.803 124.837,48.390 125.250 C 47.978 125.662,47.564 126.000,47.470 126.000 C 47.377 126.000,47.102 126.206,46.859 126.458 C 46.616 126.710,46.204 127.026,45.944 127.161 C 45.684 127.295,45.255 127.651,44.991 127.952 C 44.727 128.254,44.434 128.500,44.340 128.500 C 44.161 128.500,43.710 128.840,43.070 129.458 C 42.856 129.665,42.609 129.833,42.520 129.833 C 42.430 129.833,42.221 130.005,42.054 130.216 C 41.887 130.426,41.375 130.854,40.917 131.168 C 40.458 131.481,39.911 131.909,39.701 132.119 C 39.490 132.329,39.256 132.500,39.179 132.500 C 39.103 132.500,38.731 132.800,38.353 133.167 C 37.975 133.533,37.591 133.833,37.498 133.833 C 37.406 133.833,37.095 134.058,36.807 134.333 C 36.519 134.608,36.220 134.833,36.142 134.833 C 36.064 134.833,36.000 134.950,36.000 135.093 C 36.000 135.236,35.929 135.309,35.843 135.256 C 35.756 135.202,35.437 135.404,35.133 135.704 C 34.829 136.004,34.377 136.355,34.128 136.484 C 33.879 136.613,33.418 136.950,33.103 137.234 C 32.788 137.518,32.323 137.900,32.071 138.083 C 31.818 138.267,31.530 138.494,31.431 138.589 C 31.331 138.684,30.992 138.943,30.676 139.165 C 30.360 139.387,29.847 139.816,29.537 140.118 C 29.226 140.420,28.897 140.667,28.806 140.667 C 28.715 140.667,28.363 140.948,28.025 141.292 C 27.686 141.635,27.298 141.939,27.163 141.965 C 27.027 141.992,26.680 142.273,26.391 142.590 C 26.102 142.907,25.778 143.167,25.671 143.167 C 25.338 143.167,25.000 143.623,25.000 144.071 C 25.000 144.415,25.081 144.500,25.407 144.500 C 25.631 144.500,25.860 144.575,25.917 144.667 C 25.973 144.758,26.191 144.833,26.401 144.833 C 26.745 144.833,27.417 145.085,28.206 145.511 C 28.365 145.596,28.642 145.667,28.821 145.667 C 29.000 145.667,29.193 145.742,29.250 145.833 C 29.307 145.925,29.574 146.000,29.843 146.000 C 30.113 146.000,30.333 146.075,30.333 146.167 C 30.333 146.258,30.554 146.333,30.823 146.333 C 31.093 146.333,31.360 146.408,31.417 146.500 C 31.473 146.592,31.740 146.667,32.010 146.667 C 32.279 146.667,32.500 146.742,32.500 146.833 C 32.500 146.925,32.721 147.000,32.990 147.000 C 33.260 147.000,33.527 147.075,33.583 147.167 C 33.640 147.258,33.907 147.333,34.177 147.333 C 34.446 147.333,34.667 147.393,34.667 147.465 C 34.667 147.620,36.245 148.175,36.792 148.212 C 36.998 148.226,37.167 148.280,37.167 148.332 C 37.167 148.385,37.523 148.524,37.958 148.641 C 38.394 148.759,38.880 148.925,39.039 149.011 C 39.199 149.097,39.513 149.167,39.738 149.167 C 39.963 149.167,40.193 149.242,40.250 149.333 C 40.307 149.425,40.569 149.500,40.833 149.500 C 41.098 149.500,41.360 149.575,41.417 149.667 C 41.473 149.758,41.732 149.833,41.992 149.833 C 42.258 149.833,42.506 149.942,42.560 150.083 C 42.613 150.221,42.842 150.333,43.068 150.333 C 43.295 150.333,43.527 150.408,43.583 150.500 C 43.640 150.592,43.907 150.667,44.177 150.667 C 44.446 150.667,44.667 150.742,44.667 150.833 C 44.667 150.925,44.887 151.000,45.157 151.000 C 45.426 151.000,45.693 151.075,45.750 151.167 C 45.807 151.258,46.074 151.333,46.343 151.333 C 46.613 151.333,46.833 151.408,46.833 151.500 C 46.833 151.592,47.054 151.667,47.323 151.667 C 47.593 151.667,47.860 151.742,47.917 151.833 C 47.973 151.925,48.240 152.000,48.510 152.000 C 48.779 152.000,49.000 152.075,49.000 152.167 C 49.000 152.258,49.169 152.336,49.375 152.339 C 49.581 152.342,49.896 152.454,50.074 152.589 C 50.251 152.723,50.566 152.833,50.772 152.833 C 50.978 152.833,51.193 152.908,51.250 153.000 C 51.307 153.092,51.532 153.167,51.750 153.167 C 51.968 153.167,52.193 153.242,52.250 153.333 C 52.307 153.425,52.569 153.500,52.833 153.500 C 53.098 153.500,53.360 153.575,53.417 153.667 C 53.473 153.758,53.698 153.833,53.917 153.833 C 54.135 153.833,54.360 153.908,54.417 154.000 C 54.473 154.092,54.740 154.167,55.010 154.167 C 55.279 154.167,55.500 154.242,55.500 154.333 C 55.500 154.425,55.719 154.500,55.986 154.500 C 56.254 154.500,56.723 154.625,57.028 154.778 C 58.070 155.300,58.162 155.333,58.581 155.333 C 58.811 155.333,59.000 155.408,59.000 155.500 C 59.000 155.592,59.221 155.667,59.490 155.667 C 59.760 155.667,60.027 155.742,60.083 155.833 C 60.140 155.925,60.407 156.000,60.677 156.000 C 60.946 156.000,61.167 156.075,61.167 156.167 C 61.167 156.258,61.392 156.333,61.667 156.333 C 61.942 156.333,62.167 156.408,62.167 156.500 C 62.167 156.592,62.429 156.667,62.750 156.667 C 63.071 156.667,63.333 156.742,63.333 156.833 C 63.333 156.925,63.558 157.000,63.833 157.000 C 64.108 157.000,64.333 157.072,64.333 157.159 C 64.333 157.247,64.597 157.368,64.919 157.428 C 65.240 157.488,65.545 157.604,65.595 157.686 C 65.645 157.767,65.865 157.833,66.083 157.833 C 66.302 157.833,66.527 157.908,66.583 158.000 C 66.640 158.092,66.907 158.167,67.177 158.167 C 67.446 158.167,67.667 158.242,67.667 158.333 C 67.667 158.425,67.887 158.500,68.157 158.500 C 68.426 158.500,68.693 158.575,68.750 158.667 C 68.807 158.758,69.017 158.834,69.218 158.836 C 69.617 158.839,70.758 159.203,70.941 159.386 C 71.004 159.449,71.212 159.502,71.403 159.505 C 71.594 159.508,71.896 159.621,72.074 159.755 C 72.251 159.890,72.608 160.000,72.865 160.000 C 73.123 160.000,73.333 160.075,73.333 160.167 C 73.333 160.258,73.558 160.333,73.833 160.333 C 74.108 160.333,74.333 160.408,74.333 160.500 C 74.333 160.592,74.596 160.667,74.917 160.667 C 75.237 160.667,75.500 160.742,75.500 160.833 C 75.500 160.925,75.725 161.000,76.000 161.000 C 76.275 161.000,76.500 161.075,76.500 161.167 C 76.500 161.258,76.762 161.333,77.083 161.333 C 77.404 161.333,77.667 161.408,77.667 161.500 C 77.667 161.592,77.892 161.667,78.167 161.667 C 78.442 161.667,78.667 161.742,78.667 161.833 C 78.667 161.925,78.798 162.000,78.958 162.001 C 79.119 162.002,79.465 162.114,79.727 162.251 C 79.990 162.388,80.342 162.500,80.509 162.500 C 80.677 162.500,80.860 162.575,80.917 162.667 C 80.973 162.758,81.240 162.833,81.510 162.833 C 81.779 162.833,82.000 162.908,82.000 163.000 C 82.000 163.092,82.221 163.167,82.490 163.167 C 82.760 163.167,83.027 163.242,83.083 163.333 C 83.140 163.425,83.407 163.500,83.677 163.500 C 83.946 163.500,84.167 163.575,84.167 163.667 C 84.167 163.758,84.387 163.833,84.657 163.833 C 84.926 163.833,85.193 163.908,85.250 164.000 C 85.307 164.092,85.541 164.167,85.772 164.167 C 86.002 164.167,86.303 164.279,86.440 164.417 C 86.765 164.741,87.167 164.737,87.167 164.410 C 87.167 164.165,86.819 163.751,84.655 161.418 C 84.145 160.867,83.320 159.970,82.822 159.424 C 82.324 158.878,81.767 158.272,81.583 158.078 C 81.400 157.884,80.462 156.868,79.500 155.821 C 78.537 154.774,77.296 153.429,76.741 152.833 C 76.187 152.237,75.324 151.303,74.825 150.756 C 73.493 149.297,72.181 147.873,71.213 146.833 C 70.743 146.329,70.217 145.752,70.043 145.551 C 69.869 145.349,68.907 144.300,67.905 143.219 C 66.903 142.138,65.708 140.841,65.250 140.337 C 64.792 139.832,64.304 139.306,64.167 139.167 C 64.029 139.028,63.542 138.501,63.083 137.997 C 62.253 137.083,60.733 135.428,56.505 130.833 C 55.281 129.504,53.449 127.526,52.432 126.437 C 51.415 125.349,50.562 124.369,50.536 124.261 C 50.491 124.078,50.846 123.776,53.567 121.676 C 55.522 120.167,57.186 118.871,60.425 116.333 C 65.527 112.337,65.379 112.452,69.583 109.211 C 70.042 108.857,70.567 108.443,70.750 108.290 C 71.115 107.986,75.782 104.337,76.664 103.667 C 76.966 103.438,78.504 102.237,80.083 101.000 C 81.662 99.763,83.203 98.563,83.507 98.333 C 83.811 98.104,84.253 97.757,84.489 97.561 C 84.726 97.365,85.856 96.482,87.001 95.600 C 88.146 94.717,89.233 93.868,89.417 93.713 C 89.753 93.429,90.139 93.130,92.684 91.177 C 93.845 90.286,97.086 87.739,97.769 87.181 C 97.981 87.008,99.297 85.990,100.264 85.252 C 100.623 84.978,101.489 84.303,102.189 83.752 C 102.888 83.201,103.826 82.470,104.272 82.128 C 104.718 81.786,106.621 80.305,108.500 78.835 C 110.379 77.366,112.254 75.904,112.667 75.585 C 113.079 75.266,114.954 73.803,116.833 72.333 C 118.712 70.863,120.587 69.401,121.000 69.083 C 121.412 68.766,122.763 67.709,124.000 66.735 C 125.237 65.761,126.840 64.514,127.561 63.964 C 128.282 63.414,128.994 62.862,129.144 62.737 C 129.294 62.612,130.242 61.868,131.250 61.084 C 132.258 60.300,133.458 59.367,133.917 59.010 C 135.819 57.530,141.529 53.071,143.000 51.917 C 144.504 50.737,147.306 48.557,149.056 47.206 C 149.499 46.863,150.024 46.444,150.222 46.274 C 150.421 46.103,151.296 45.428,152.167 44.774 C 153.037 44.119,153.775 43.527,153.806 43.458 C 153.836 43.390,153.967 43.333,154.097 43.333 C 154.227 43.333,154.333 43.221,154.333 43.083 C 154.333 42.891,154.120 42.833,153.417 42.833 C 152.912 42.833,152.500 42.758,152.500 42.667 C 152.500 42.575,152.354 42.500,152.177 42.500 C 151.999 42.500,151.807 42.425,151.750 42.333 C 151.693 42.242,151.509 42.167,151.341 42.167 C 151.173 42.167,150.992 42.054,150.940 41.917 C 150.887 41.779,150.729 41.667,150.589 41.667 C 150.448 41.667,150.333 41.592,150.333 41.500 C 150.333 41.408,150.183 41.333,150.000 41.333 C 149.817 41.333,149.667 41.272,149.667 41.198 C 149.667 41.123,149.404 40.959,149.083 40.833 C 148.762 40.707,148.500 40.543,148.500 40.469 C 148.500 40.394,148.350 40.333,148.167 40.333 C 147.983 40.333,147.833 40.258,147.833 40.167 C 147.833 40.075,147.683 40.000,147.500 40.000 C 147.317 40.000,147.167 39.925,147.167 39.833 C 147.167 39.742,146.987 39.667,146.768 39.667 C 146.548 39.667,146.326 39.554,146.273 39.417 C 146.220 39.279,146.062 39.167,145.922 39.167 C 145.782 39.167,145.667 39.092,145.667 39.000 C 145.667 38.908,145.517 38.833,145.333 38.833 C 145.150 38.833,145.000 38.772,145.000 38.698 C 145.000 38.623,144.737 38.459,144.417 38.333 C 144.096 38.207,143.833 38.043,143.833 37.969 C 143.833 37.894,143.683 37.833,143.500 37.833 C 143.317 37.833,143.167 37.758,143.167 37.667 C 143.167 37.575,143.017 37.500,142.833 37.500 C 142.650 37.500,142.500 37.425,142.500 37.333 C 142.500 37.242,142.348 37.167,142.161 37.167 C 141.975 37.167,141.780 37.054,141.727 36.917 C 141.674 36.779,141.489 36.667,141.316 36.667 C 141.142 36.667,141.000 36.610,140.999 36.542 C 140.999 36.473,140.587 36.229,140.083 36.000 C 139.580 35.771,139.168 35.527,139.167 35.458 C 139.167 35.390,139.017 35.333,138.833 35.333 C 138.650 35.333,138.500 35.258,138.500 35.167 C 138.500 35.075,138.350 35.000,138.167 35.000 C 137.983 35.000,137.833 34.933,137.833 34.851 C 137.833 34.770,137.646 34.656,137.417 34.598 C 137.188 34.541,137.000 34.420,137.000 34.330 C 137.000 34.240,136.850 34.167,136.667 34.167 C 136.483 34.167,136.333 34.110,136.333 34.042 C 136.332 33.973,135.920 33.729,135.417 33.500 C 134.913 33.271,134.501 33.027,134.501 32.958 C 134.500 32.890,134.350 32.833,134.167 32.833 C 133.983 32.833,133.833 32.754,133.833 32.657 C 133.833 32.560,133.768 32.521,133.688 32.570 C 133.608 32.619,133.372 32.511,133.163 32.330 C 132.953 32.148,132.681 32.000,132.558 32.000 C 132.434 32.000,132.333 31.925,132.333 31.833 C 132.333 31.742,132.183 31.667,132.000 31.667 C 131.817 31.667,131.666 31.610,131.666 31.542 C 131.666 31.473,131.254 31.229,130.750 31.000 C 130.246 30.771,129.834 30.527,129.834 30.458 C 129.834 30.390,129.641 30.333,129.407 30.333 C 129.165 30.333,129.025 30.261,129.083 30.167 C 129.140 30.075,129.032 30.000,128.843 30.000 C 128.654 30.000,128.500 29.944,128.499 29.875 C 128.498 29.707,127.534 29.167,127.236 29.167 C 127.106 29.167,127.000 29.092,127.000 29.000 C 127.000 28.908,126.850 28.833,126.667 28.833 C 126.483 28.833,126.333 28.772,126.333 28.698 C 126.333 28.623,126.071 28.459,125.750 28.333 C 125.429 28.207,125.167 28.043,125.167 27.969 C 125.167 27.894,125.017 27.833,124.833 27.833 C 124.650 27.833,124.500 27.767,124.500 27.686 C 124.500 27.605,124.369 27.494,124.208 27.438 C 124.048 27.383,123.692 27.192,123.417 27.014 C 123.142 26.836,122.785 26.686,122.625 26.679 C 122.465 26.672,122.333 26.592,122.333 26.500 C 122.333 26.408,122.183 26.333,122.000 26.333 C 121.817 26.333,121.667 26.272,121.667 26.198 C 121.667 26.123,121.404 25.959,121.083 25.833 C 120.763 25.707,120.500 25.543,120.500 25.469 C 120.500 25.394,120.356 25.333,120.181 25.333 C 120.005 25.333,119.836 25.270,119.806 25.192 C 119.727 24.991,118.203 24.167,117.911 24.167 C 117.777 24.167,117.667 24.092,117.667 24.000 C 117.667 23.908,117.517 23.833,117.333 23.833 C 117.150 23.833,117.000 23.772,117.000 23.698 C 117.000 23.623,116.737 23.459,116.417 23.333 C 116.096 23.207,115.833 23.043,115.833 22.969 C 115.833 22.894,115.690 22.833,115.514 22.833 C 115.338 22.833,115.169 22.770,115.139 22.692 C 115.060 22.491,113.537 21.667,113.244 21.667 C 113.110 21.667,113.000 21.592,113.000 21.500 C 113.000 21.408,112.850 21.333,112.667 21.333 C 112.483 21.333,112.333 21.272,112.333 21.198 C 112.333 21.123,112.071 20.959,111.750 20.833 C 111.429 20.707,111.167 20.552,111.167 20.488 C 111.167 20.424,111.035 20.330,110.875 20.279 C 110.715 20.227,110.186 19.956,109.700 19.676 C 109.214 19.396,108.708 19.167,108.575 19.167 C 108.442 19.167,108.333 19.092,108.333 19.000 C 108.333 18.908,108.183 18.833,108.000 18.833 C 107.817 18.833,107.667 18.758,107.667 18.667 C 107.667 18.575,107.517 18.500,107.333 18.500 C 107.150 18.500,107.000 18.425,107.000 18.333 C 107.000 18.242,106.888 18.167,106.750 18.167 C 106.612 18.167,106.500 18.097,106.500 18.011 C 106.500 17.926,106.331 17.803,106.125 17.739 C 105.919 17.674,105.712 17.576,105.667 17.519 C 105.513 17.331,104.138 16.667,103.901 16.667 C 103.772 16.667,103.667 16.592,103.667 16.500 C 103.667 16.408,103.517 16.333,103.333 16.333 C 103.150 16.333,103.000 16.258,103.000 16.167 C 103.000 16.075,102.850 16.000,102.667 16.000 C 102.483 16.000,102.333 15.925,102.333 15.833 C 102.333 15.742,102.179 15.667,101.990 15.667 C 101.801 15.667,101.686 15.604,101.733 15.527 C 101.824 15.380,98.901 13.827,98.542 13.831 C 98.427 13.832,98.333 13.758,98.333 13.667 C 98.333 13.575,98.267 13.500,98.187 13.500 C 98.028 13.500,96.210 12.453,95.882 12.172 C 95.771 12.078,95.565 12.000,95.424 12.000 C 95.282 12.000,95.167 11.925,95.167 11.833 C 95.167 11.742,95.021 11.667,94.843 11.667 C 94.665 11.667,94.473 11.592,94.417 11.500 C 94.360 11.408,94.168 11.333,93.990 11.333 C 93.812 11.333,93.667 11.258,93.667 11.167 C 93.667 11.075,93.579 11.000,93.471 11.000 C 93.364 11.000,93.158 10.897,93.013 10.771 C 92.868 10.645,92.263 10.289,91.667 9.979 C 91.071 9.670,90.558 9.360,90.528 9.292 C 90.497 9.223,90.333 9.167,90.163 9.167 C 89.992 9.167,89.807 9.092,89.750 9.000 C 89.693 8.908,89.501 8.833,89.323 8.833 C 89.146 8.833,89.000 8.758,89.000 8.667 C 89.000 8.575,88.858 8.500,88.684 8.500 C 88.511 8.500,88.332 8.404,88.287 8.286 C 88.242 8.168,87.840 7.887,87.394 7.661 C 86.948 7.435,86.558 7.194,86.528 7.125 C 86.497 7.056,86.328 7.000,86.153 7.000 C 85.977 7.000,85.833 6.925,85.833 6.833 C 85.833 6.742,85.683 6.667,85.500 6.667 C 85.317 6.667,85.167 6.592,85.167 6.500 C 85.167 6.408,84.979 6.333,84.750 6.333 C 84.521 6.333,84.333 6.267,84.333 6.186 C 84.333 6.105,84.202 5.995,84.042 5.941 C 83.735 5.838,83.142 5.484,83.000 5.320 C 82.954 5.267,82.673 5.117,82.375 4.988 C 82.077 4.858,81.833 4.695,81.833 4.626 C 81.833 4.557,81.683 4.500,81.500 4.500 C 81.317 4.500,81.167 4.425,81.167 4.333 C 81.167 4.242,81.017 4.167,80.833 4.167 C 80.650 4.167,80.500 4.092,80.500 4.000 C 80.500 3.908,80.345 3.833,80.155 3.833 C 79.965 3.833,79.696 3.720,79.558 3.582 C 79.420 3.443,79.238 3.373,79.153 3.425 C 79.069 3.477,79.000 3.403,79.000 3.260 C 79.000 3.111,78.857 3.000,78.667 3.000 C 78.483 3.000,78.333 2.939,78.333 2.864 C 78.333 2.790,78.071 2.626,77.750 2.500 C 77.429 2.374,77.167 2.210,77.167 2.136 C 77.167 2.061,77.017 2.000,76.833 2.000 C 76.650 2.000,76.500 1.925,76.500 1.833 C 76.500 1.590,75.300 1.640,74.961 1.897 " stroke="none" fill="#e72c2e" fill-rule="evenodd"></path><path id="path5" d="" stroke="none" fill="#00ffff" fill-rule="evenodd"></path></g></svg>